<?xml version="1.0" standalone="no"?>
<!DOCTYPE svg PUBLIC "-//W3C//DTD SVG 20010904//EN"
 "http://www.w3.org/TR/2001/REC-SVG-20010904/DTD/svg10.dtd">
<svg version="1.0" xmlns="http://www.w3.org/2000/svg"
 width="512.000000pt" height="512.000000pt" viewBox="0 0 512.000000 512.000000"
 preserveAspectRatio="xMidYMid meet">
<metadata>
Created by potrace 1.14, written by Peter Selinger 2001-2017
</metadata>
<g transform="translate(0.000000,512.000000) scale(0.100000,-0.100000)"
fill="#000000" stroke="none">
<path d="M2280 5110 c-129 -16 -167 -22 -275 -45 -114 -24 -296 -78 -329 -96
-10 -6 -26 -12 -35 -14 -9 -2 -52 -19 -96 -38 -386 -170 -726 -445 -974 -787
-33 -47 -65 -90 -69 -95 -36 -45 -174 -309 -212 -405 -87 -220 -143 -439 -167
-655 -10 -92 -10 -421 0 -512 9 -83 29 -197 52 -298 106 -469 381 -927 754
-1255 139 -122 349 -264 518 -348 165 -83 450 -178 627 -208 75 -13 94 -20
116 -44 15 -16 30 -26 34 -23 3 3 6 0 6 -9 0 -8 12 -21 26 -28 14 -8 30 -22
35 -32 5 -10 15 -18 22 -18 7 0 19 -9 27 -19 7 -11 17 -18 22 -15 4 3 8 -2 8
-10 0 -9 4 -16 8 -16 10 0 57 -37 98 -77 18 -18 40 -33 49 -33 9 0 14 -4 11
-9 -10 -15 34 -20 48 -5 8 8 20 14 26 14 6 0 8 4 5 10 -3 5 3 10 15 10 12 0
18 5 15 10 -3 6 0 10 8 10 7 0 23 10 35 23 35 37 82 79 82 72 0 -3 21 15 46
40 26 24 51 42 57 38 6 -3 7 -1 3 5 -4 7 -1 12 9 12 9 0 14 4 10 9 -3 5 15 24
40 42 24 17 42 37 38 42 -4 6 0 8 10 4 10 -3 17 -2 17 3 0 6 3 9 8 8 22 -6
256 62 374 108 95 37 260 116 326 155 59 35 167 103 172 109 3 3 17 13 32 23
105 67 357 301 453 422 22 28 43 52 46 55 7 6 169 246 187 278 141 248 241
532 287 812 4 25 9 54 11 65 26 139 23 491 -6 675 -6 36 -13 83 -16 105 -10
66 -70 276 -109 381 -98 267 -284 572 -470 773 -100 108 -133 139 -301 281
-69 59 -286 194 -402 252 -70 35 -129 65 -132 68 -3 3 -23 11 -45 18 -62 21
-95 36 -95 44 0 4 -11 5 -25 2 -17 -3 -27 1 -31 11 -3 8 -10 12 -15 10 -5 -3
-21 0 -36 8 -15 8 -34 12 -42 9 -8 -2 -18 2 -22 10 -5 10 -18 14 -34 10 -17
-3 -25 0 -25 9 0 11 -12 13 -45 11 -28 -3 -45 0 -45 7 0 7 -20 11 -49 11 -28
0 -51 5 -53 11 -5 14 -515 21 -618 9z"/>
</g>
</svg>
