<svg width="47" height="49" viewBox="0 0 47 49" fill="none" xmlns="http://www.w3.org/2000/svg">
<mask id="mask0_160_265" style="mask-type:luminance" maskUnits="userSpaceOnUse" x="0" y="0" width="47" height="49">
<path d="M47 0H0V48.8614H47V0Z" fill="white"/>
</mask>
<g mask="url(#mask0_160_265)">
<path d="M23.5 47.5036C23.5 47.5036 41.8438 34.2977 41.7775 19.0015C41.7775 8.52452 33.5778 0 23.5 0C13.4222 0 5.22241 8.52452 5.22241 18.9896C5.15616 34.2977 22.8054 46.9906 23.5 47.5036Z" fill="#68C2C5"/>
</g>
<path d="M38.189 23.014L37.634 25.16C37.486 25.678 37.227 26.122 36.82 26.492C36.709 26.603 36.561 26.714 36.413 26.825L35.747 29.23C35.71 29.415 35.599 29.6 35.488 29.748C35.118 30.229 34.526 30.414 33.934 30.266L32.491 29.896C31.714 29.674 31.233 28.86 31.455 28.083L31.825 26.64L20.392 23.569L20.022 25.012C19.8 25.789 18.986 26.27 18.209 26.048L16.766 25.678C16.174 25.53 15.767 25.012 15.693 24.457C15.656 24.272 15.693 24.05 15.73 23.865L16.359 21.46C16.285 21.312 16.211 21.127 16.174 20.979C16.026 20.461 16.026 19.906 16.137 19.388L16.692 17.242C16.914 16.354 17.543 15.651 18.394 15.281C18.653 15.17 18.949 15.096 19.245 15.059L20.096 13.949L21.576 11.951C21.724 11.729 21.909 11.544 22.094 11.359C22.464 10.989 22.871 10.693 23.315 10.471C23.537 10.36 23.759 10.249 24.018 10.175C24.499 10.027 24.98 9.916 25.498 9.916C26.016 9.879 26.534 9.953 27.052 10.101L32.713 11.618C33.231 11.766 33.712 11.951 34.156 12.21C35.488 13.024 36.339 14.43 36.524 15.984L36.82 18.463L36.968 19.869C37.449 20.202 37.819 20.683 38.004 21.238C38.337 21.793 38.337 22.422 38.189 23.014ZM20.54 17.501C19.8 17.242 19.023 17.649 18.764 18.389C18.764 18.426 18.727 18.5 18.727 18.537C18.468 19.277 18.875 20.054 19.615 20.313C19.652 20.313 19.726 20.35 19.763 20.35C20.614 20.572 21.872 21.053 22.094 20.202C22.316 19.351 21.391 17.723 20.54 17.501ZM33.971 18.796L33.675 16.317C33.638 16.095 33.564 15.873 33.49 15.688C33.231 15.059 32.676 14.615 32.047 14.467L26.349 12.95C25.461 12.728 24.536 13.024 23.981 13.764L22.501 15.762L30.456 17.908L33.971 18.796ZM34.822 21.312C33.971 21.09 32.343 22.015 32.121 22.866C31.899 23.717 33.231 23.939 34.082 24.161C34.859 24.457 35.71 24.05 35.969 23.273C36.228 22.496 35.858 21.645 35.081 21.386C35.007 21.349 34.896 21.349 34.822 21.312Z" fill="white"/>
<path d="M15.323 16.872L14.731 19.018C14.583 19.536 14.546 20.091 14.62 20.609L12.992 21.941C12.807 22.089 12.548 22.052 12.4 21.867C12.326 21.756 12.289 21.645 12.326 21.534L13.029 17.982C13.066 17.76 12.918 17.538 12.696 17.501H12.659L9.07 17.168C8.848 17.131 8.663 16.946 8.7 16.724C8.7 16.613 8.774 16.502 8.885 16.428L11.882 14.43C12.067 14.282 12.141 14.023 11.993 13.838C11.993 13.838 11.993 13.801 11.956 13.801L9.662 11.026C9.514 10.841 9.551 10.582 9.736 10.434C9.847 10.36 9.958 10.323 10.069 10.36L13.621 11.063C13.843 11.1 14.065 10.952 14.102 10.73V10.693L14.435 7.067C14.472 6.845 14.657 6.66 14.879 6.697C14.99 6.697 15.101 6.771 15.175 6.882L17.173 9.879C17.284 10.064 17.543 10.138 17.765 9.99C17.765 9.99 17.802 9.99 17.802 9.953L20.577 7.659C20.762 7.511 21.021 7.548 21.169 7.733C21.243 7.844 21.28 7.955 21.243 8.066L20.725 10.656C20.614 10.804 20.466 10.952 20.355 11.1L18.875 13.098L18.394 13.764C16.951 14.134 15.73 15.355 15.323 16.872Z" fill="white"/>
</svg>
