<svg width="47" height="49" viewBox="0 0 47 49" fill="none" xmlns="http://www.w3.org/2000/svg">
<mask id="mask0_160_224" style="mask-type:luminance" maskUnits="userSpaceOnUse" x="0" y="0" width="47" height="49">
<path d="M47 0H0V48.8614H47V0Z" fill="white"/>
</mask>
<g mask="url(#mask0_160_224)">
<path d="M23.5 47.5036C23.5 47.5036 41.8438 34.2977 41.7775 19.0015C41.7775 8.52452 33.5778 0 23.5 0C13.4222 0 5.22241 8.52452 5.22241 18.9896C5.15616 34.2977 22.8054 46.9906 23.5 47.5036Z" fill="#4166BE"/>
</g>
<g clip-path="url(#clip0_160_224)">
<path d="M20.1002 7.5C20.1002 6.57174 20.4584 5.6815 21.096 5.02513C21.7337 4.36875 22.5985 4 23.5002 4C24.4019 4 25.2667 4.36875 25.9044 5.02513C26.542 5.6815 26.9002 6.57174 26.9002 7.5C26.9002 8.42826 26.542 9.3185 25.9044 9.97487C25.2667 10.6313 24.4019 11 23.5002 11C22.5985 11 21.7337 10.6313 21.096 9.97487C20.4584 9.3185 20.1002 8.42826 20.1002 7.5ZM22.6502 25V30.25C22.6502 31.218 21.8905 32 20.9502 32C20.0099 32 19.2502 31.218 19.2502 30.25V19.7391L18.1399 21.5547C17.6405 22.375 16.5886 22.6156 15.7971 22.1016C15.0055 21.5875 14.7611 20.5102 15.2605 19.6953L17.3802 16.2336C18.703 14.0625 21.014 12.75 23.5002 12.75C25.9865 12.75 28.2974 14.0625 29.6202 16.2281L31.7399 19.6953C32.2393 20.5156 32.0002 21.593 31.2086 22.107C30.4171 22.6211 29.3652 22.375 28.8658 21.5602L27.7502 19.7391V30.25C27.7502 31.218 26.9905 32 26.0502 32C25.1099 32 24.3502 31.218 24.3502 30.25V25H22.6502Z" fill="white"/>
</g>
<defs>
<clipPath id="clip0_160_224">
<rect width="17" height="28" fill="white" transform="translate(15 4)"/>
</clipPath>
</defs>
</svg>
