<svg width="47" height="49" viewBox="0 0 47 49" fill="none" xmlns="http://www.w3.org/2000/svg">
<mask id="mask0_160_213" style="mask-type:luminance" maskUnits="userSpaceOnUse" x="0" y="0" width="47" height="49">
<path d="M47 0H0V48.8614H47V0Z" fill="white"/>
</mask>
<g mask="url(#mask0_160_213)">
<path d="M23.5 47.5036C23.5 47.5036 41.8438 34.2977 41.7775 19.0015C41.7775 8.52452 33.5778 0 23.5 0C13.4222 0 5.22241 8.52452 5.22241 18.9896C5.15616 34.2977 22.8054 46.9906 23.5 47.5036Z" fill="#22B14C"/>
</g>
<g clip-path="url(#clip0_160_213)">
<path d="M29.4697 8.3085L16.0732 13.6667H12.4375C11.0942 13.6667 10 14.7608 10 16.1042V19.0833C10 20.3595 11.0021 21.25 12.4375 21.25H13.3583L14.342 28.1357C14.3994 28.5365 14.7418 28.8333 15.1458 28.8333H18.3958C18.6277 28.8333 18.8476 28.7347 19.0025 28.5625C19.1563 28.3902 19.23 28.1606 19.204 27.9298L18.5648 22.2467L29.4686 26.6082C29.5672 26.6472 29.669 26.6667 29.7708 26.6667C29.9301 26.6667 30.0904 26.619 30.2269 26.5269C30.4501 26.3752 30.5833 26.1239 30.5833 25.8542V9.0625C30.5833 8.79275 30.4501 8.54141 30.2269 8.38975C30.0027 8.23808 29.7188 8.20775 29.4697 8.3085Z" fill="white"/>
<path d="M32.9872 15.114L35.6956 12.9473C36.0455 12.6667 36.1029 12.1554 35.8223 11.8044C35.5407 11.4556 35.0304 11.3992 34.6794 11.6777L31.9711 13.8443C31.6212 14.1249 31.5637 14.6362 31.8443 14.9872C32.0047 15.1866 32.2408 15.2917 32.4792 15.2917C32.6579 15.2917 32.8367 15.2332 32.9872 15.114Z" fill="white"/>
<path d="M32.9872 20.886C32.6384 20.6076 32.1271 20.6639 31.8443 21.0127C31.5637 21.3627 31.6212 21.8751 31.9711 22.1557L34.6794 24.3223C34.83 24.4415 35.0087 24.5 35.1875 24.5C35.4258 24.5 35.662 24.3949 35.8223 24.1956C36.1029 23.8457 36.0455 23.3332 35.6956 23.0527L32.9872 20.886Z" fill="white"/>
<path d="M35.1875 17.1875H32.4792C32.0307 17.1875 31.6667 17.5515 31.6667 18C31.6667 18.4485 32.0307 18.8125 32.4792 18.8125H35.1875C35.636 18.8125 36 18.4485 36 18C36 17.5515 35.636 17.1875 35.1875 17.1875Z" fill="white"/>
</g>
<defs>
<clipPath id="clip0_160_213">
<rect width="26" height="26" fill="white" transform="translate(10 5)"/>
</clipPath>
</defs>
</svg>
