<svg width="47" height="49" viewBox="0 0 47 49" fill="none" xmlns="http://www.w3.org/2000/svg">
<mask id="mask0_160_254" style="mask-type:luminance" maskUnits="userSpaceOnUse" x="0" y="0" width="47" height="49">
<path d="M47 0H0V48.8614H47V0Z" fill="white"/>
</mask>
<g mask="url(#mask0_160_254)">
<path d="M23.5 47.5036C23.5 47.5036 41.8438 34.2977 41.7775 19.0015C41.7775 8.52452 33.5778 0 23.5 0C13.4222 0 5.22241 8.52452 5.22241 18.9896C5.15616 34.2977 22.8054 46.9906 23.5 47.5036Z" fill="#DF5900"/>
</g>
<path d="M34.1859 21.5646C33.8422 17.0904 31.7591 14.2867 29.9214 11.8125C28.2197 9.52193 26.75 7.54392 26.75 4.62607C26.75 4.3917 26.6188 4.17748 26.4106 4.07007C26.2019 3.96203 25.951 3.97972 25.7612 4.11765C23.0012 6.09261 20.6984 9.42127 19.8939 12.5973C19.3355 14.8084 19.2616 17.2942 19.2512 18.936C16.7024 18.3916 16.125 14.579 16.1189 14.5374C16.0902 14.3397 15.9694 14.1676 15.7936 14.0736C15.616 13.9809 15.4072 13.9741 15.2272 14.0632C15.0935 14.1279 11.9465 15.727 11.7634 22.1114C11.7506 22.3238 11.75 22.5368 11.75 22.7498C11.75 28.9524 16.797 33.9991 23 33.9991C23.0086 33.9996 23.0177 34.0009 23.025 33.9991C23.0275 33.9991 23.0299 33.9991 23.0329 33.9991C29.2207 33.9813 34.25 28.9414 34.25 22.7498C34.25 22.4379 34.1859 21.5646 34.1859 21.5646ZM23 32.7491C20.9321 32.7491 19.25 30.9573 19.25 28.7547C19.25 28.6796 19.2494 28.6039 19.2549 28.5112C19.2799 27.5823 19.4563 26.9482 19.6498 26.5264C20.0124 27.3052 20.6605 28.0211 21.7134 28.0211C22.0589 28.0211 22.3384 27.7415 22.3384 27.3961C22.3384 26.5063 22.3568 25.4798 22.5783 24.5533C22.7755 23.7318 23.2466 22.8578 23.8436 22.1572C24.1091 23.0666 24.6267 23.8026 25.1321 24.5209C25.8553 25.5487 26.603 26.6113 26.7342 28.4233C26.7421 28.5307 26.7501 28.6387 26.7501 28.7547C26.75 30.9572 25.0679 32.7491 23 32.7491Z" fill="white"/>
</svg>
