<svg width="47" height="49" viewBox="0 0 47 49" fill="none" xmlns="http://www.w3.org/2000/svg">
<mask id="mask0_160_247" style="mask-type:luminance" maskUnits="userSpaceOnUse" x="0" y="0" width="47" height="49">
<path d="M47 0H0V48.8614H47V0Z" fill="white"/>
</mask>
<g mask="url(#mask0_160_247)">
<path d="M23.5 47.5036C23.5 47.5036 41.8438 34.2977 41.7775 19.0015C41.7775 8.52452 33.5778 0 23.5 0C13.4222 0 5.22241 8.52452 5.22241 18.9896C5.15617 34.2977 22.8054 46.9906 23.5 47.5036Z" fill="#2FC0FF"/>
</g>
<path d="M36.25 19.9087C35.7389 19.9104 35.2334 20.0153 34.7638 20.217C34.2942 20.4188 33.8702 20.7133 33.5172 21.0829C33.3361 21.3021 33.1089 21.4785 32.8517 21.5997C32.5945 21.7208 32.3137 21.7836 32.0294 21.7836C31.7451 21.7836 31.4643 21.7208 31.2071 21.5997C30.9499 21.4785 30.7226 21.3021 30.5416 21.0829C30.1897 20.7119 29.766 20.4165 29.2962 20.2146C28.8265 20.0127 28.3205 19.9086 27.8092 19.9086C27.2979 19.9086 26.792 20.0127 26.3222 20.2146C25.8525 20.4165 25.4287 20.7119 25.0769 21.0829C24.896 21.302 24.669 21.4785 24.412 21.5996C24.155 21.7207 23.8744 21.7835 23.5902 21.7835C23.3061 21.7835 23.0255 21.7207 22.7685 21.5996C22.5115 21.4785 22.2844 21.302 22.1036 21.0829C21.7518 20.7119 21.3282 20.4165 20.8585 20.2147C20.3888 20.0128 19.8829 19.9087 19.3717 19.9087C18.8605 19.9087 18.3546 20.0128 17.8849 20.2147C17.4153 20.4165 16.9916 20.7119 16.6398 21.0829C16.4592 21.302 16.2324 21.4784 15.9756 21.5995C15.7187 21.7207 15.4383 21.7835 15.1544 21.7835C14.8704 21.7835 14.59 21.7207 14.3332 21.5995C14.0764 21.4784 13.8495 21.302 13.6689 21.0829C13.3163 20.7131 12.8926 20.4185 12.4232 20.2167C11.9538 20.0149 11.4484 19.9101 10.9375 19.9087C10.6889 19.9087 10.4504 20.0074 10.2746 20.1833C10.0988 20.3591 10 20.5975 10 20.8462C10 21.0948 10.0988 21.3333 10.2746 21.5091C10.4504 21.6849 10.6889 21.7837 10.9375 21.7837C11.2208 21.7871 11.5001 21.8514 11.7564 21.9723C12.0127 22.0931 12.24 22.2676 12.423 22.484C12.7746 22.855 13.1982 23.1504 13.6678 23.3523C14.1374 23.5542 14.6432 23.6584 15.1544 23.6584C15.6655 23.6584 16.1714 23.5542 16.641 23.3523C17.1106 23.1504 17.5341 22.855 17.8858 22.484C18.0665 22.2648 18.2934 22.0883 18.5504 21.9671C18.8073 21.8459 19.0879 21.7831 19.372 21.7831C19.656 21.7831 19.9366 21.8459 20.1935 21.9671C20.4505 22.0883 20.6774 22.2648 20.8581 22.484C21.21 22.855 21.6337 23.1504 22.1035 23.3523C22.5732 23.5542 23.0792 23.6583 23.5905 23.6583C24.1018 23.6583 24.6077 23.5542 25.0775 23.3523C25.5472 23.1504 25.9709 22.855 26.3228 22.484C26.5037 22.2648 26.7308 22.0884 26.9878 21.9673C27.2449 21.8461 27.5255 21.7833 27.8097 21.7833C28.0938 21.7833 28.3745 21.8461 28.6315 21.9673C28.8886 22.0884 29.1157 22.2648 29.2966 22.484C29.6485 22.8549 30.0724 23.1503 30.5422 23.3522C31.012 23.554 31.518 23.6581 32.0294 23.6581C32.5407 23.6581 33.0467 23.554 33.5166 23.3522C33.9864 23.1503 34.4102 22.8549 34.7622 22.484C34.9455 22.2675 35.1732 22.0929 35.4299 21.972C35.6866 21.8512 35.9663 21.787 36.25 21.7837C36.4986 21.7837 36.7371 21.6849 36.9129 21.5091C37.0887 21.3333 37.1875 21.0948 37.1875 20.8462C37.1875 20.5975 37.0887 20.3591 36.9129 20.1833C36.7371 20.0074 36.4986 19.9087 36.25 19.9087Z" fill="white"/>
<path d="M36.25 24.1274C35.7389 24.1291 35.2334 24.234 34.7638 24.4358C34.2942 24.6376 33.8702 24.9321 33.5172 25.3016C33.3361 25.5208 33.1089 25.6973 32.8517 25.8184C32.5945 25.9396 32.3137 26.0024 32.0294 26.0024C31.7451 26.0024 31.4643 25.9396 31.2071 25.8184C30.9499 25.6973 30.7226 25.5208 30.5416 25.3016C30.1897 24.9307 29.766 24.6352 29.2962 24.4334C28.8265 24.2315 28.3205 24.1273 27.8092 24.1273C27.2979 24.1273 26.792 24.2315 26.3222 24.4334C25.8525 24.6352 25.4287 24.9307 25.0769 25.3016C24.896 25.5208 24.669 25.6972 24.412 25.8184C24.155 25.9395 23.8744 26.0023 23.5902 26.0023C23.3061 26.0023 23.0255 25.9395 22.7685 25.8184C22.5115 25.6972 22.2844 25.5208 22.1036 25.3016C21.7518 24.9307 21.3282 24.6353 20.8585 24.4334C20.3888 24.2315 19.8829 24.1274 19.3717 24.1274C18.8605 24.1274 18.3546 24.2315 17.8849 24.4334C17.4153 24.6353 16.9916 24.9307 16.6398 25.3016C16.4592 25.5207 16.2324 25.6972 15.9756 25.8183C15.7187 25.9394 15.4383 26.0022 15.1544 26.0022C14.8704 26.0022 14.59 25.9394 14.3332 25.8183C14.0764 25.6972 13.8495 25.5207 13.6689 25.3016C13.3163 24.9319 12.8926 24.6373 12.4232 24.4355C11.9538 24.2337 11.4484 24.1289 10.9375 24.1274C10.6889 24.1274 10.4504 24.2262 10.2746 24.402C10.0988 24.5778 10 24.8163 10 25.0649C10 25.3136 10.0988 25.552 10.2746 25.7278C10.4504 25.9037 10.6889 26.0024 10.9375 26.0024C11.2208 26.0059 11.5001 26.0702 11.7564 26.191C12.0127 26.3118 12.24 26.4864 12.423 26.7027C12.7746 27.0737 13.1982 27.3692 13.6678 27.5711C14.1374 27.773 14.6432 27.8771 15.1544 27.8771C15.6655 27.8771 16.1714 27.773 16.641 27.5711C17.1106 27.3692 17.5341 27.0737 17.8858 26.7027C18.0665 26.4835 18.2934 26.307 18.5504 26.1859C18.8073 26.0647 19.0879 26.0018 19.372 26.0018C19.656 26.0018 19.9366 26.0647 20.1935 26.1859C20.4505 26.307 20.6774 26.4835 20.8581 26.7027C21.21 27.0737 21.6337 27.3691 22.1035 27.571C22.5732 27.7729 23.0792 27.877 23.5905 27.877C24.1018 27.877 24.6077 27.7729 25.0775 27.571C25.5472 27.3691 25.9709 27.0737 26.3228 26.7027C26.5037 26.4836 26.7308 26.3071 26.9878 26.186C27.2449 26.0649 27.5255 26.0021 27.8097 26.0021C28.0938 26.0021 28.3745 26.0649 28.6315 26.186C28.8886 26.3071 29.1157 26.4836 29.2966 26.7027C29.6485 27.0737 30.0724 27.3691 30.5422 27.5709C31.012 27.7728 31.518 27.8769 32.0294 27.8769C32.5407 27.8769 33.0467 27.7728 33.5166 27.5709C33.9864 27.3691 34.4102 27.0737 34.7622 26.7027C34.9455 26.4862 35.1732 26.3116 35.4299 26.1908C35.6866 26.07 35.9663 26.0057 36.25 26.0024C36.4986 26.0024 36.7371 25.9037 36.9129 25.7278C37.0887 25.552 37.1875 25.3136 37.1875 25.0649C37.1875 24.8163 37.0887 24.5778 36.9129 24.402C36.7371 24.2262 36.4986 24.1274 36.25 24.1274Z" fill="white"/>
<path d="M10.9375 12.8774C11.2208 12.8809 11.5001 12.9452 11.7564 13.066C12.0127 13.1868 12.24 13.3614 12.423 13.5777C12.7746 13.9487 13.1982 14.2442 13.6678 14.4461C14.1374 14.648 14.6432 14.7521 15.1544 14.7521C15.6655 14.7521 16.1714 14.648 16.641 14.4461C17.1106 14.2442 17.5341 13.9487 17.8858 13.5777C18.0665 13.3585 18.2934 13.182 18.5504 13.0609C18.8073 12.9397 19.0879 12.8769 19.372 12.8769C19.656 12.8769 19.9366 12.9397 20.1935 13.0609C20.4505 13.182 20.6774 13.3585 20.8581 13.5777C21.21 13.9487 21.6337 14.2441 22.1035 14.446C22.5732 14.6479 23.0792 14.752 23.5905 14.752C24.1018 14.752 24.6077 14.6479 25.0775 14.446C25.5472 14.2441 25.9709 13.9487 26.3228 13.5777C26.5037 13.3586 26.7308 13.1821 26.9878 13.061C27.2449 12.9399 27.5255 12.8771 27.8097 12.8771C28.0938 12.8771 28.3745 12.9399 28.6315 13.061C28.8886 13.1821 29.1157 13.3586 29.2966 13.5777C29.6485 13.9487 30.0724 14.2441 30.5422 14.4459C31.012 14.6478 31.518 14.7519 32.0294 14.7519C32.5407 14.7519 33.0467 14.6478 33.5166 14.4459C33.9864 14.2441 34.4102 13.9487 34.7622 13.5777C34.9455 13.3612 35.1732 13.1866 35.4299 13.0658C35.6866 12.945 35.9663 12.8807 36.25 12.8774C36.4986 12.8774 36.7371 12.7787 36.9129 12.6028C37.0887 12.427 37.1875 12.1886 37.1875 11.9399C37.1875 11.6913 37.0887 11.4528 36.9129 11.277C36.7371 11.1012 36.4986 11.0024 36.25 11.0024C35.7391 11.0038 35.2337 11.1084 34.7641 11.3097C34.2945 11.5111 33.8704 11.8051 33.5172 12.1743C33.3361 12.3935 33.1089 12.5699 32.8517 12.6911C32.5945 12.8122 32.3137 12.875 32.0294 12.875C31.7451 12.875 31.4643 12.8122 31.2071 12.6911C30.9499 12.5699 30.7226 12.3935 30.5416 12.1743C30.1897 11.8033 29.766 11.5079 29.2962 11.306C28.8265 11.1041 28.3205 11 27.8092 11C27.2979 11 26.792 11.1041 26.3222 11.306C25.8525 11.5079 25.4287 11.8033 25.0769 12.1743C24.896 12.3934 24.669 12.5699 24.412 12.691C24.155 12.8121 23.8744 12.875 23.5902 12.875C23.3061 12.875 23.0255 12.8121 22.7685 12.691C22.5115 12.5699 22.2844 12.3934 22.1036 12.1743C21.7518 11.8034 21.3282 11.5079 20.8585 11.3061C20.3888 11.1042 19.8829 11.0001 19.3717 11.0001C18.8605 11.0001 18.3546 11.1042 17.8849 11.3061C17.4153 11.5079 16.9916 11.8034 16.6398 12.1743C16.4592 12.3934 16.2324 12.5698 15.9756 12.6909C15.7187 12.8121 15.4383 12.8749 15.1544 12.8749C14.8704 12.8749 14.59 12.8121 14.3332 12.6909C14.0764 12.5698 13.8495 12.3934 13.6689 12.1743C13.3161 11.805 12.8923 11.5108 12.4229 11.3094C11.9535 11.108 11.4483 11.0036 10.9375 11.0024C10.6889 11.0024 10.4504 11.1012 10.2746 11.277C10.0988 11.4528 10 11.6913 10 11.9399C10 12.1886 10.0988 12.427 10.2746 12.6028C10.4504 12.7787 10.6889 12.8774 10.9375 12.8774Z" fill="white"/>
<path d="M36.25 15.2212C35.7391 15.2226 35.2337 15.3271 34.7641 15.5285C34.2945 15.7298 33.8704 16.0239 33.5172 16.3931C33.3361 16.6122 33.1089 16.7887 32.8517 16.9098C32.5945 17.031 32.3137 17.0938 32.0294 17.0938C31.7451 17.0938 31.4643 17.031 31.2071 16.9098C30.9499 16.7887 30.7226 16.6122 30.5416 16.3931C30.1897 16.0221 29.766 15.7266 29.2962 15.5248C28.8265 15.3229 28.3205 15.2188 27.8092 15.2188C27.2979 15.2188 26.792 15.3229 26.3222 15.5248C25.8525 15.7266 25.4287 16.0221 25.0769 16.3931C24.896 16.6122 24.669 16.7886 24.412 16.9098C24.155 17.0309 23.8744 17.0937 23.5902 17.0937C23.3061 17.0937 23.0255 17.0309 22.7685 16.9098C22.5115 16.7886 22.2844 16.6122 22.1036 16.3931C21.7518 16.0221 21.3282 15.7267 20.8585 15.5248C20.3888 15.3229 19.8829 15.2188 19.3717 15.2188C18.8605 15.2188 18.3546 15.3229 17.8849 15.5248C17.4153 15.7267 16.9916 16.0221 16.6398 16.3931C16.4592 16.6121 16.2324 16.7886 15.9756 16.9097C15.7187 17.0308 15.4383 17.0936 15.1544 17.0936C14.8704 17.0936 14.59 17.0308 14.3332 16.9097C14.0764 16.7886 13.8495 16.6121 13.6689 16.3931C13.3161 16.0237 12.8923 15.7295 12.4229 15.5281C11.9535 15.3268 11.4483 15.2223 10.9375 15.2212C10.6889 15.2212 10.4504 15.3199 10.2746 15.4958C10.0988 15.6716 10 15.91 10 16.1587C10 16.4073 10.0988 16.6458 10.2746 16.8216C10.4504 16.9974 10.6889 17.0962 10.9375 17.0962C11.2208 17.0996 11.5001 17.1639 11.7564 17.2848C12.0127 17.4056 12.24 17.5801 12.423 17.7965C12.7746 18.1675 13.1982 18.4629 13.6678 18.6648C14.1374 18.8667 14.6432 18.9709 15.1544 18.9709C15.6655 18.9709 16.1714 18.8667 16.641 18.6648C17.1106 18.4629 17.5341 18.1675 17.8858 17.7965C18.0665 17.5773 18.2934 17.4008 18.5504 17.2796C18.8073 17.1584 19.0879 17.0956 19.372 17.0956C19.656 17.0956 19.9366 17.1584 20.1935 17.2796C20.4505 17.4008 20.6774 17.5773 20.8581 17.7965C21.21 18.1675 21.6337 18.4629 22.1035 18.6648C22.5732 18.8667 23.0792 18.9708 23.5905 18.9708C24.1018 18.9708 24.6077 18.8667 25.0775 18.6648C25.5472 18.4629 25.9709 18.1675 26.3228 17.7965C26.5037 17.5773 26.7308 17.4009 26.9878 17.2798C27.2449 17.1586 27.5255 17.0958 27.8097 17.0958C28.0938 17.0958 28.3745 17.1586 28.6315 17.2798C28.8886 17.4009 29.1157 17.5773 29.2966 17.7965C29.6485 18.1674 30.0724 18.4628 30.5422 18.6647C31.012 18.8665 31.518 18.9706 32.0294 18.9706C32.5407 18.9706 33.0467 18.8665 33.5166 18.6647C33.9864 18.4628 34.4102 18.1674 34.7622 17.7965C34.9455 17.58 35.1732 17.4054 35.4299 17.2845C35.6866 17.1637 35.9663 17.0995 36.25 17.0962C36.4986 17.0962 36.7371 16.9974 36.9129 16.8216C37.0887 16.6458 37.1875 16.4073 37.1875 16.1587C37.1875 15.91 37.0887 15.6716 36.9129 15.4958C36.7371 15.3199 36.4986 15.2212 36.25 15.2212Z" fill="white"/>
</svg>
