<svg width="50" height="49" viewBox="0 0 50 49" fill="none" xmlns="http://www.w3.org/2000/svg">
<mask id="mask0_160_187" style="mask-type:luminance" maskUnits="userSpaceOnUse" x="0" y="0" width="50" height="49">
<path d="M49.0435 0H0V48.8614H49.0435V0Z" fill="white"/>
</mask>
<g mask="url(#mask0_160_187)">
<path d="M24.5217 47.5036C24.5217 47.5036 43.6631 34.2977 43.5939 19.0015C43.5939 8.52452 35.0378 0 24.5217 0C14.0058 0 5.44947 8.52452 5.44947 18.9896C5.38035 34.2977 23.797 46.9906 24.5217 47.5036Z" fill="#E366AC"/>
</g>
<path d="M31.1086 12.4164C33.8102 12.4164 36.0031 14.6094 36.0031 17.3109V25.7055C36.0031 27.4445 35.2977 29.0141 34.1602 30.157C33.0227 31.2945 31.4477 32 29.7086 32C27.532 32 25.5086 30.8734 24.3602 29.025L21.8828 25.0219L19.2195 30.4578C18.7602 31.3984 17.8031 31.9945 16.7531 31.9945C14.7188 31.9945 13.3898 29.8617 14.2867 28.0352L17.6773 21.1172C18.1805 20.0891 19.0719 19.3125 20.1602 18.9461C21.8938 18.3719 23.7969 18.957 24.9016 20.4117L26.2141 22.1344V17.3109C26.2086 14.6094 28.4016 12.4164 31.1086 12.4164Z" fill="white"/>
<path d="M24.1742 13.2969C26.7415 13.2969 28.8227 11.2157 28.8227 8.64844C28.8227 6.08118 26.7415 4 24.1742 4C21.607 4 19.5258 6.08118 19.5258 8.64844C19.5258 11.2157 21.607 13.2969 24.1742 13.2969Z" fill="white"/>
</svg>
