<svg width="47" height="49" viewBox="0 0 47 49" fill="none" xmlns="http://www.w3.org/2000/svg">
<mask id="mask0_160_209" style="mask-type:luminance" maskUnits="userSpaceOnUse" x="0" y="0" width="47" height="49">
<path d="M47 0H0V48.8614H47V0Z" fill="white"/>
</mask>
<g mask="url(#mask0_160_209)">
<path d="M23.5 47.5036C23.5 47.5036 41.8438 34.2977 41.7775 19.0015C41.7775 8.52452 33.5778 0 23.5 0C13.4222 0 5.22241 8.52452 5.22241 18.9896C5.15617 34.2977 22.8054 46.9906 23.5 47.5036Z" fill="#FF6766"/>
</g>
<path d="M25.9148 31.9517C27.2352 31.6848 28.0934 30.386 27.8293 29.0513L27.7125 28.4661C27.4434 27.0955 26.9457 25.7916 26.25 24.6057H33.5625C34.9082 24.6057 36 23.5021 36 22.1417C36 21.192 35.4668 20.3655 34.6848 19.9548C35.2383 19.5031 35.5938 18.8101 35.5938 18.0349C35.5938 16.8337 34.7406 15.8326 33.6184 15.617C33.8418 15.2423 33.9688 14.806 33.9688 14.3388C33.9688 13.2454 33.2629 12.3162 32.2879 11.9979C32.3234 11.8285 32.3438 11.6489 32.3438 11.4641C32.3438 10.1037 31.252 9 29.9062 9H24.9551C23.9902 9 23.0508 9.28747 22.2484 9.82649L20.2934 11.1458C18.9375 12.0595 18.125 13.5996 18.125 15.2474V17.2136V19.6776V20.9559C18.125 22.4548 18.8004 23.8665 19.9531 24.806L20.3289 25.1088C21.6746 26.1971 22.5938 27.7269 22.9289 29.4312L23.0457 30.0164C23.3098 31.3511 24.5945 32.2187 25.9148 31.9517ZM11.625 27.0698H14.875C15.7738 27.0698 16.5 26.3357 16.5 25.4271V13.9281C16.5 13.0195 15.7738 12.2854 14.875 12.2854H11.625C10.7262 12.2854 10 13.0195 10 13.9281V25.4271C10 26.3357 10.7262 27.0698 11.625 27.0698Z" fill="white"/>
</svg>
