<svg width="47" height="49" viewBox="0 0 47 49" fill="none" xmlns="http://www.w3.org/2000/svg">
<mask id="mask0_160_234" style="mask-type:luminance" maskUnits="userSpaceOnUse" x="0" y="0" width="47" height="49">
<path d="M47 0H0V48.8614H47V0Z" fill="white"/>
</mask>
<g mask="url(#mask0_160_234)">
<path d="M23.5 47.5036C23.5 47.5036 41.8438 34.2977 41.7775 19.0015C41.7775 8.52452 33.5778 0 23.5 0C13.4222 0 5.22241 8.52452 5.22241 18.9896C5.15617 34.2977 22.8054 46.9906 23.5 47.5036Z" fill="#8A70CF"/>
</g>
<path d="M25.2857 5C26.2734 5 27.0714 5.80996 27.0714 6.8125V7.36758C27.0714 10.4602 25.5145 13.2922 23.0257 14.9348L23.0368 14.9518L26.2065 19.5H31.0893C31.9319 19.5 32.7243 19.9021 33.2321 20.5875L35.6429 23.85C36.2344 24.6486 36.0725 25.7871 35.2857 26.3875C34.4989 26.9879 33.3772 26.8236 32.7857 26.025L30.6429 23.125H25.2857H25.2076L30.3583 31.202C30.894 32.0402 30.6596 33.1617 29.8281 33.7111C28.9967 34.2605 27.8973 34.017 27.356 33.173L18.394 19.1148C18.2321 19.6359 18.1429 20.191 18.1429 20.7574V24.9375C18.1429 25.94 17.3449 26.75 16.3571 26.75C15.3694 26.75 14.5714 25.94 14.5714 24.9375V20.7574C14.5714 17.0701 16.7813 13.751 20.1574 12.3803C22.1775 11.559 23.5 9.57656 23.5 7.36758V6.8125C23.5 5.80996 24.298 5 25.2857 5ZM15.4643 6.8125C16.1747 6.8125 16.856 7.09894 17.3583 7.6088C17.8607 8.11867 18.1429 8.81019 18.1429 9.53125C18.1429 10.2523 17.8607 10.9438 17.3583 11.4537C16.856 11.9636 16.1747 12.25 15.4643 12.25C14.7539 12.25 14.0726 11.9636 13.5702 11.4537C13.0679 10.9438 12.7857 10.2523 12.7857 9.53125C12.7857 8.81019 13.0679 8.11867 13.5702 7.6088C14.0726 7.09894 14.7539 6.8125 15.4643 6.8125Z" fill="white"/>
</svg>
