<svg width="47" height="49" viewBox="0 0 47 49" fill="none" xmlns="http://www.w3.org/2000/svg">
<mask id="mask0_160_273" style="mask-type:luminance" maskUnits="userSpaceOnUse" x="0" y="0" width="47" height="49">
<path d="M47 0H0V48.8614H47V0Z" fill="white"/>
</mask>
<g mask="url(#mask0_160_273)">
<path d="M23.5 47.5036C23.5 47.5036 41.8438 34.2977 41.7775 19.0015C41.7775 8.52452 33.5778 0 23.5 0C13.4222 0 5.22241 8.52452 5.22241 18.9896C5.15617 34.2977 22.8054 46.9906 23.5 47.5036Z" fill="#68C571"/>
</g>
<path d="M22.3835 10.3279C23.1655 12.674 22.3671 15.042 20.6007 15.6217C18.8343 16.2014 16.7671 14.7686 15.9851 12.4225C15.203 10.0764 16.0015 7.70841 17.7679 7.12873C19.5343 6.54904 21.6015 7.98185 22.3835 10.3279ZM15.4874 16.1084C16.521 17.8803 16.2694 19.942 14.9296 20.7076C13.5897 21.4733 11.6647 20.6584 10.6366 18.8865C9.60849 17.1147 9.84911 15.0529 11.189 14.2873C12.5288 13.5217 14.4538 14.3365 15.4819 16.1084H15.4874ZM13.7811 27.1881C16.6468 19.4608 21.7382 17.4975 23.9968 17.4975C26.2554 17.4975 31.3468 19.4608 34.2124 27.1881C34.4093 27.7186 34.4968 28.2873 34.4968 28.8561V28.9436C34.4968 30.3545 33.3538 31.4975 31.9429 31.4975C31.314 31.4975 30.6905 31.4209 30.0835 31.2678L25.271 30.0647C24.4343 29.8568 23.5593 29.8568 22.7226 30.0647L17.9101 31.2678C17.303 31.4209 16.6796 31.4975 16.0507 31.4975C14.6397 31.4975 13.4968 30.3545 13.4968 28.9436V28.8561C13.4968 28.2873 13.5843 27.7186 13.7811 27.1881ZM33.064 20.7076C31.7241 19.942 31.4726 17.8803 32.5061 16.1084C33.5397 14.3365 35.4593 13.5217 36.7991 14.2873C38.139 15.0529 38.3905 17.1147 37.3569 18.8865C36.3233 20.6584 34.4038 21.4733 33.064 20.7076ZM26.9554 15.6217C25.189 15.042 24.3905 12.674 25.1726 10.3279C25.9546 7.98185 28.0218 6.54904 29.7882 7.12873C31.5546 7.70841 32.353 10.0764 31.571 12.4225C30.789 14.7686 28.7218 16.2014 26.9554 15.6217Z" fill="white"/>
</svg>
