<svg width="47" height="53" viewBox="0 0 47 53" fill="none" xmlns="http://www.w3.org/2000/svg">
<mask id="mask0_160_238" style="mask-type:luminance" maskUnits="userSpaceOnUse" x="0" y="4" width="47" height="49">
<path d="M47 4H0V52.8614H47V4Z" fill="white"/>
</mask>
<g mask="url(#mask0_160_238)">
<path d="M23.5 51.5036C23.5 51.5036 41.8438 38.2977 41.7775 23.0015C41.7775 12.5245 33.5778 4 23.5 4C13.4222 4 5.22241 12.5245 5.22241 22.9896C5.15617 38.2977 22.8054 50.9906 23.5 51.5036Z" fill="#8A70CF"/>
</g>
<path d="M19.3799 27.987C19.3802 29.4616 19.2984 31.5655 19.0049 34.3655C18.9197 35.1784 19.5098 35.9067 20.3226 35.9918C20.375 35.9973 20.4272 35.9999 20.4787 35.9999C21.2269 36 21.8692 35.4345 21.9489 34.6741C22.2523 31.7776 22.3399 29.5708 22.3401 27.987C22.3401 25.9053 22.1884 24.8988 22.1758 24.8178C22.163 24.7367 22.1423 24.659 22.1174 24.5835C22.2196 24.186 22.2485 23.7541 22.2044 23.3272C22.106 22.441 22.1265 21.5724 22.2495 20.7369C21.8902 20.4457 21.5909 20.1237 21.3519 19.7893C20.4466 18.5156 20.3403 17.1572 20.336 16.4619C20.336 16.178 20.3566 15.9983 20.3604 15.9669C20.4234 15.4476 20.8955 15.0776 21.4147 15.1406C21.9339 15.2036 22.304 15.6757 22.2409 16.1949V16.1966C22.2401 16.2049 22.2387 16.2213 22.2373 16.2446C22.234 16.2914 22.2304 16.3659 22.2306 16.4618C22.2289 16.8185 22.2836 17.465 22.5512 18.0806C22.6264 18.2508 22.7147 18.4183 22.8208 18.5807C22.9162 18.3363 23.0198 18.0961 23.1335 17.8621C23.6603 16.7541 23.47 15.407 22.5241 14.5397C21.5944 13.6809 19.8772 13.9914 19.0033 15.608C17.8151 17.8378 17.2205 20.4009 17.3764 23.061C17.4464 24.4629 18.3366 25.6453 19.3265 26.0977C19.3547 26.5406 19.3799 27.165 19.3799 27.987Z" fill="white"/>
<path d="M29.056 35.5066C29.3829 35.5066 29.6481 35.2414 29.6481 34.9145L29.6479 22.8302C29.6475 21.8525 29.0397 21.0194 28.1821 20.6823C28.2409 20.7975 28.2779 20.9261 28.285 21.0635C28.3022 21.3876 28.1539 21.6821 27.9143 21.8653C28.2427 22.0619 28.4633 22.4195 28.4639 22.83V34.9144C28.4639 35.2413 28.729 35.5066 29.056 35.5066Z" fill="white"/>
<path d="M25.1999 21.9642C25.0914 22.2318 25.0303 22.5236 25.0302 22.8302C25.0302 23.1569 25.2953 23.4219 25.6223 23.4219C25.9492 23.4219 26.2144 23.1569 26.2144 22.8302H26.2142C26.2148 22.5376 26.3275 22.2724 26.5103 22.0725C26.0438 22.0639 25.6067 22.0275 25.1999 21.9642Z" fill="white"/>
<path d="M26.7089 12.2686C27.0428 10.8359 26.1521 9.40389 24.7194 9.06999C23.2867 8.73609 21.8546 9.62678 21.5207 11.0594C21.1868 12.492 22.0776 13.9241 23.5103 14.258C24.943 14.5919 26.3751 13.7012 26.7089 12.2686Z" fill="white"/>
<path d="M26.8087 21.839C26.995 21.8375 27.1851 21.8325 27.3768 21.8225C27.4756 21.8173 27.5687 21.7919 27.6524 21.7507C27.8995 21.6291 28.0641 21.3683 28.0487 21.0761C28.0379 20.8702 27.94 20.6888 27.7922 20.5664C27.6691 20.4643 27.5116 20.4029 27.3399 20.4029C27.3274 20.4029 27.3146 20.4031 27.3023 20.4038C27.1057 20.4145 26.91 20.4196 26.7208 20.4196C25.6626 20.4191 24.7656 20.2515 24.0533 19.921C23.4877 19.6546 23.0543 19.3039 22.7212 18.8467C22.5738 18.6442 22.444 18.423 22.3344 18.1753C22.0233 17.4599 21.9926 16.7379 21.994 16.4624C21.9938 16.3568 21.9978 16.2768 22.0011 16.2305C22.0029 16.2014 22.0046 16.1811 22.0061 16.1665C22.029 15.9781 21.9771 15.7924 21.86 15.6429C21.7432 15.4936 21.5749 15.3988 21.3865 15.3758C21.3573 15.3724 21.3284 15.3705 21.2996 15.3705C20.9416 15.3705 20.639 15.6393 20.596 15.9949C20.5906 16.0393 20.5733 16.2046 20.5733 16.4606C20.5808 17.6815 20.9079 18.7554 21.545 19.6519C21.7575 19.9492 22.0103 20.2202 22.2932 20.4633C22.638 20.7593 23.0286 21.0125 23.4566 21.2104C24.0018 21.4637 24.6208 21.6399 25.3041 21.7405C25.7495 21.8061 26.2217 21.8405 26.7209 21.8403C26.7496 21.8402 26.7796 21.8393 26.8087 21.839Z" fill="white"/>
</svg>
