<svg width="50" height="49" viewBox="0 0 50 49" fill="none" xmlns="http://www.w3.org/2000/svg">
<mask id="mask0_160_203" style="mask-type:luminance" maskUnits="userSpaceOnUse" x="0" y="0" width="50" height="49">
<path d="M49.6957 0H0.652176V48.8614H49.6957V0Z" fill="white"/>
</mask>
<g mask="url(#mask0_160_203)">
<path d="M25.1739 47.5036C25.1739 47.5036 44.3153 34.2977 44.2461 19.0015C44.2461 8.52452 35.6899 0 25.1739 0C14.6579 0 6.10165 8.52452 6.10165 18.9896C6.03253 34.2977 24.4492 46.9906 25.1739 47.5036Z" fill="#FF7F27"/>
</g>
<path d="M36.7888 24.9718L26.2593 7.50955C25.9931 7.06822 25.5153 6.79836 25 6.79836C24.4846 6.79836 24.0068 7.06818 23.7407 7.50955L13.2112 24.9718C12.9374 25.426 12.9293 25.9925 13.1901 26.4543C13.4509 26.9161 13.9401 27.2016 14.4705 27.2016H35.5295C36.0598 27.2016 36.5491 26.916 36.8099 26.4543C37.0707 25.9925 37.0626 25.426 36.7888 24.9718ZM25.0078 12.8388C25.6126 12.8388 26.1243 13.1799 26.1243 13.7846C26.1243 15.6298 25.9072 18.2813 25.9072 20.1264C25.9072 20.6071 25.38 20.8086 25.0078 20.8086C24.5117 20.8086 24.093 20.6071 24.093 20.1264C24.093 18.2813 23.876 15.6298 23.876 13.7846C23.876 13.1799 24.3721 12.8388 25.0078 12.8388ZM25.0233 24.2665C24.3411 24.2665 23.8294 23.7083 23.8294 23.0726C23.8294 22.4213 24.3411 21.8787 25.0233 21.8787C25.6591 21.8787 26.2018 22.4213 26.2018 23.0726C26.2018 23.7083 25.6591 24.2665 25.0233 24.2665Z" fill="white"/>
</svg>
