<svg width="47" height="49" viewBox="0 0 47 49" fill="none" xmlns="http://www.w3.org/2000/svg">
<mask id="mask0_160_220" style="mask-type:luminance" maskUnits="userSpaceOnUse" x="0" y="0" width="47" height="49">
<path d="M47 0H0V48.8614H47V0Z" fill="white"/>
</mask>
<g mask="url(#mask0_160_220)">
<path d="M23.5 47.5036C23.5 47.5036 41.8438 34.2977 41.7775 19.0015C41.7775 8.52452 33.5778 0 23.5 0C13.4222 0 5.22241 8.52452 5.22241 18.9896C5.15617 34.2977 22.8054 46.9906 23.5 47.5036Z" fill="#8F3ABC"/>
</g>
<g clip-path="url(#clip0_160_220)">
<path d="M31.7636 9.4498C31.9666 8.88836 31.6778 8.27302 31.1184 8.06642C30.559 7.85981 29.932 8.15175 29.7289 8.71319L29.5214 9.28361L26.8281 8.30446C26.2642 8.10235 25.6462 8.3898 25.4386 8.94675L23.7108 13.6763C23.5078 14.2377 23.7965 14.8531 24.3559 15.0597L27.0492 16.0343L26.3544 17.9387L25.0552 17.4536C24.6176 17.2875 24.2251 17.0225 23.9093 16.6721L22.601 15.1989C21.7799 14.2782 20.6025 13.7527 19.3618 13.7527H18.1167C16.4746 13.7527 14.9768 14.6734 14.2415 16.1376L12.1527 20.2968C11.7963 21.0064 12.085 21.8688 12.7978 22.2236C13.5106 22.5784 14.3768 22.291 14.7332 21.5813L15.6084 19.8431V29.5627C15.6084 30.3577 16.2535 31 17.052 31C17.8505 31 18.4957 30.3577 18.4957 29.5627V23.8136H19.407L20.6611 26.3109V29.5627C20.6611 30.3577 21.3062 31 22.1047 31C22.9033 31 23.5484 30.3577 23.5484 29.5627V26.3109C23.5484 25.8662 23.4446 25.4261 23.2416 25.0263L21.7438 22.035V18.5675L21.7574 18.581C22.3799 19.2817 23.1649 19.8162 24.0446 20.144L25.3665 20.6381L25.0371 21.5454C24.8341 22.1068 25.1228 22.7222 25.6823 22.9288C26.2417 23.1354 26.8642 22.8434 27.0718 22.2865L29.0838 16.7799L31.8177 17.768C32.3816 17.9702 32.9997 17.6827 33.2072 17.1258L34.935 12.3917C35.1381 11.8303 34.8493 11.215 34.2899 11.0083L31.556 10.0202L31.7636 9.4498ZM20.6611 10.1595C20.6611 9.58767 20.433 9.0393 20.0269 8.63499C19.6208 8.23068 19.07 8.00353 18.4957 8.00353C17.9213 8.00353 17.3706 8.23068 16.9645 8.63499C16.5584 9.0393 16.3302 9.58767 16.3302 10.1595C16.3302 10.7312 16.5584 11.2796 16.9645 11.6839C17.3706 12.0882 17.9213 12.3154 18.4957 12.3154C19.07 12.3154 19.6208 12.0882 20.0269 11.6839C20.433 11.2796 20.6611 10.7312 20.6611 10.1595Z" fill="white"/>
</g>
<defs>
<clipPath id="clip0_160_220">
<rect width="23" height="23" fill="white" transform="translate(12 8)"/>
</clipPath>
</defs>
</svg>
