<svg width="47" height="49" viewBox="0 0 47 49" fill="none" xmlns="http://www.w3.org/2000/svg">
<mask id="mask0_160_182" style="mask-type:luminance" maskUnits="userSpaceOnUse" x="0" y="0" width="47" height="49">
<path d="M47 0H0V48.8614H47V0Z" fill="white"/>
</mask>
<g mask="url(#mask0_160_182)">
<path d="M23.5 47.5036C23.5 47.5036 41.8438 34.2977 41.7775 19.0015C41.7775 8.52452 33.5778 0 23.5 0C13.4222 0 5.22241 8.52452 5.22241 18.9896C5.15616 34.2977 22.8054 46.9906 23.5 47.5036Z" fill="#FF9034"/>
</g>
<path d="M38 14.2373V12.1595H37.8852V10.1788H37.7721V9.47731H36.9628V10.177C36.9628 10.177 17.3803 10.3148 13.9614 10.177C13.4384 10.177 10.4523 10.4721 13.4472 15.0766C13.4472 15.0766 14.8077 17.1403 12.9436 19.4426C11.1043 21.7113 10.2756 26.307 10.0601 27.6958H10V28.5227H18.4864V27.6958V26.936C14.8201 27.611 21.0201 19.0786 20.7445 20.5151C20.9442 20.5663 21.1509 20.5982 21.3664 20.5982H23.5751C24.9391 20.5982 26.7502 19.1387 26.7502 17.7729C26.7502 17.181 26.5417 16.6385 26.1954 16.2127H37.1236L37.477 14.9123H37.9399V14.2833H37.8639L37.8834 14.2373H38ZM23.5786 19.3896H21.37C21.2074 19.3896 21.0502 19.3631 20.9017 19.3189C21.0307 18.5609 21.1297 17.8824 21.2004 17.3541C21.3859 17.9672 21.7481 18.6086 22.4601 18.886C22.5096 18.9055 22.5609 18.9143 22.6121 18.9143C22.7782 18.9143 22.9372 18.8118 23.0026 18.6493C23.0856 18.4319 22.9778 18.1899 22.7623 18.1051C22.0255 17.8188 21.8788 16.7057 21.8506 16.218H23.9797C24.6741 16.3982 25.1918 17.029 25.1918 17.7782C25.1918 18.6652 24.4673 19.3896 23.5786 19.3896ZM34.9097 14.9158H24.0009L25.895 14.285H34.9097V14.9158Z" fill="white"/>
</svg>
