<svg width="47" height="49" viewBox="0 0 47 49" fill="none" xmlns="http://www.w3.org/2000/svg">
<mask id="mask0_160_228" style="mask-type:luminance" maskUnits="userSpaceOnUse" x="0" y="0" width="47" height="49">
<path d="M47 0H0V48.8614H47V0Z" fill="white"/>
</mask>
<g mask="url(#mask0_160_228)">
<path d="M23.5 47.5036C23.5 47.5036 41.8438 34.2977 41.7775 19.0015C41.7775 8.52452 33.5778 0 23.5 0C13.4222 0 5.22241 8.52452 5.22241 18.9896C5.15617 34.2977 22.8054 46.9906 23.5 47.5036Z" fill="#3757A4"/>
</g>
<path d="M23.4771 11.1386C22.5816 11.1391 21.5101 11.2353 20.4017 11.5679C19.295 11.9001 18.1464 12.4753 17.1503 13.428C17.116 13.4607 17.0859 13.4959 17.0576 13.5321C15.5319 13.1964 13.602 13.3637 11.932 15.3375C8.55215 19.3328 15.3774 22.8177 16.3664 19.7031C17.0725 17.4791 16.1312 15.5231 17.2261 14.8585C17.3954 14.9893 17.5987 15.0563 17.803 15.0563C18.0376 15.0563 18.2727 14.9694 18.4557 14.7945C18.5184 14.7346 18.583 14.6794 18.6473 14.6233C18.9651 14.638 19.3324 14.6783 19.7579 14.7468C19.7579 14.7468 19.4955 14.5461 19.0506 14.2995C19.6451 13.8691 20.2898 13.5754 20.9454 13.378C21.6421 13.1682 22.3469 13.0723 22.9868 13.0412C21.8277 15.2731 21.4194 16.7796 21.3198 19.4196C21.3556 20.3542 21.6676 20.9284 22.1011 21.2903C22.0422 21.9256 21.8513 22.8869 21.2901 23.8956C20.5449 25.2211 19.1964 26.6925 16.3823 27.7735C15.6199 28.0635 15.2373 28.9165 15.5273 29.6789C15.7516 30.2682 16.3126 30.6306 16.9079 30.6306C17.0825 30.6307 17.2599 30.5994 17.4327 30.5336C20.8233 29.2534 22.822 27.2424 23.8732 25.3274C24.4616 24.263 24.768 23.2482 24.9243 22.4085L27.4304 23.2712L28.9647 28.5564C29.1919 29.3397 30.0113 29.7902 30.7943 29.5629C31.5775 29.3356 32.0282 28.5163 31.8009 27.7332H31.8007L30.053 21.7125C29.9195 21.2526 29.5683 20.8838 29.1156 20.728L25.5158 19.4889C25.6796 18.2116 26.1081 16.9036 26.5197 15.765C26.4093 15.6999 26.2993 15.633 26.19 15.5619C25.3558 15.0173 24.8415 14.4752 24.7038 14.322C24.4894 14.0777 24.3862 13.7735 24.4068 13.4588C24.4275 13.1438 24.5694 12.8559 24.8066 12.6477C25.022 12.4587 25.2986 12.3547 25.5852 12.3547C25.9238 12.3547 26.2467 12.5002 26.4707 12.7537L26.5176 12.8034C26.5741 12.8613 26.6385 12.9236 26.7076 12.9863C26.8322 13.1002 27.0182 13.2585 27.2542 13.4277C27.3059 12.5915 26.9972 11.7904 26.3258 11.5082C26.187 11.4498 26.0359 11.4072 25.8769 11.3807C25.8756 11.3803 25.8744 11.38 25.8733 11.3796C25.8244 11.3688 24.8573 11.1394 23.4771 11.1386ZM12.7104 15.3673C12.7104 15.3673 12.1265 16.343 12.0413 16.9878C11.9563 17.6327 11.8417 17.8821 12.7773 19.6991C10.2489 17.898 12.7104 15.3673 12.7104 15.3673Z" fill="white"/>
<path d="M31.7462 10.4482C32.2936 9.08635 31.6333 7.53858 30.2714 6.99117C28.9095 6.44376 27.3617 7.104 26.8143 8.46586C26.2669 9.82773 26.9272 11.3755 28.2891 11.9229C29.651 12.4703 31.1988 11.8101 31.7462 10.4482Z" fill="white"/>
<path d="M26.347 12.9667C26.3258 12.9446 26.3105 12.9284 26.3019 12.919C26.2981 12.915 26.2957 12.9121 26.2944 12.9108C26.2941 12.9106 26.2939 12.9105 26.2939 12.9105C25.9494 12.5205 25.3541 12.4822 24.9625 12.8256C24.5701 13.1698 24.5312 13.7669 24.8753 14.1592C24.9146 14.2028 25.4214 14.7778 26.3192 15.3641C27.2142 15.9467 28.5204 16.552 30.1277 16.5538H30.1416C31.3575 16.5538 32.7219 16.1866 34.1012 15.2687C34.5363 14.9804 34.6553 14.3939 34.3667 13.959C34.0784 13.524 33.492 13.405 33.057 13.6935C31.9448 14.4272 30.9802 14.661 30.1277 14.6637C29.011 14.6653 28.0461 14.2341 27.3513 13.7806C27.0054 13.5553 26.7313 13.3279 26.549 13.1617C26.4581 13.0786 26.39 13.0109 26.347 12.9667Z" fill="white"/>
</svg>
