<svg width="47" height="49" viewBox="0 0 47 49" fill="none" xmlns="http://www.w3.org/2000/svg">
<mask id="mask0_160_260" style="mask-type:luminance" maskUnits="userSpaceOnUse" x="0" y="0" width="47" height="49">
<path d="M47 0H0V48.8614H47V0Z" fill="white"/>
</mask>
<g mask="url(#mask0_160_260)">
<path d="M23.5 47.5036C23.5 47.5036 41.8438 34.2977 41.7775 19.0015C41.7775 8.52452 33.5778 0 23.5 0C13.4222 0 5.22241 8.52452 5.22241 18.9896C5.15617 34.2977 22.8054 46.9906 23.5 47.5036Z" fill="#FE0000"/>
</g>
<path d="M35.0222 17.9246C34.6456 17.5481 34.0583 17.099 33.6972 16.8333C34.4054 15.7536 34.2631 14.9023 33.2334 13.8727C32.8081 13.4594 32.2962 13.1461 31.7346 12.9556C31.8815 12.5819 31.9162 12.1735 31.8344 11.7805C31.7526 11.3874 31.5578 11.0268 31.274 10.7428L30.176 9.64459C29.529 8.9978 28.4848 9.01582 27.7039 9.39421C27.6572 9.15008 27.5643 8.91713 27.4302 8.70788C27.1006 8.19235 26.5349 7.8027 26.0533 7.44275C25.6757 7.16356 25.2107 7.0288 24.7424 7.06286C24.2741 7.09692 23.8334 7.29754 23.5002 7.62842L17.0527 14.079C15.0397 16.0444 15.2014 19.8708 15.2705 21.5053C15.279 21.7053 15.2856 21.8632 15.2856 21.9681C15.2867 22.3343 15.2151 22.697 15.0751 23.0353C14.935 23.3736 14.7292 23.6807 14.4697 23.939L12.4353 25.9727C12.3767 26.0313 12.3438 26.1108 12.3438 26.1937C12.3438 26.2766 12.3767 26.3561 12.4353 26.4147L18.8747 32.8541C18.9037 32.8831 18.9382 32.9061 18.9761 32.9218C19.014 32.9375 19.0546 32.9456 19.0956 32.9456C19.1367 32.9456 19.1773 32.9375 19.2152 32.9218C19.2531 32.9061 19.2876 32.8831 19.3166 32.8541L23.1334 29.0372C23.4879 28.6807 23.9096 28.3981 24.3741 28.2057C24.8386 28.0133 25.3366 27.9149 25.8394 27.9163C26.424 27.9164 27.0029 27.8013 27.5431 27.5775C28.0832 27.3537 28.574 27.0257 28.9872 26.6122L33.7106 21.8882C34.2434 21.492 34.7452 21.0557 35.2114 20.5829C35.9132 19.882 35.7351 18.6367 35.0222 17.9246ZM33.5141 17.0936C33.2487 17.4462 32.8928 17.8409 32.3604 18.3735C30.9706 19.7633 29.9009 20.1504 29.1744 20.1868C29.2474 21.0658 29.5537 21.7381 30.048 22.0927C30.4755 22.3993 31.0275 22.4558 31.6887 22.2607C31.7681 22.2374 31.8536 22.2466 31.9262 22.2862C31.9989 22.3258 32.0529 22.3926 32.0763 22.472C32.0998 22.5514 32.0908 22.6369 32.0513 22.7096C32.0118 22.7823 31.9451 22.8365 31.8657 22.86C31.112 23.0827 30.327 23.0619 29.6837 22.6005C29.0154 22.1211 28.6137 21.2449 28.544 20.1258C27.3898 19.8291 26.8913 18.6166 26.919 17.4153C25.8788 18.049 24.315 17.7051 23.1697 17.2912C24.2694 18.8519 24.9558 20.6657 25.165 22.5634C25.1695 22.6042 25.1659 22.6455 25.1544 22.6849C25.1429 22.7243 25.1238 22.7611 25.0981 22.7931C25.0724 22.8251 25.0407 22.8517 25.0047 22.8715C24.9687 22.8912 24.9292 22.9037 24.8884 22.9081C24.806 22.9172 24.7234 22.8931 24.6588 22.8412C24.6268 22.8155 24.6001 22.7838 24.5804 22.7478C24.5606 22.7118 24.5482 22.6723 24.5437 22.6315C24.14 18.9486 21.9185 16.7418 21.8961 16.7199C21.6348 16.4637 21.9505 16.058 22.2598 16.2197C23.6153 16.9316 26.1959 17.7448 27.0262 16.4592C27.2225 16.1526 27.2891 15.7807 27.2115 15.425C27.1338 15.0694 26.9181 14.7592 26.6119 14.5624L23.7119 12.7025C23.4856 12.5582 23.2293 12.4674 22.9627 12.437C22.696 12.4067 22.4259 12.4376 22.1729 12.5273L18.6886 13.7767C18.6106 13.8046 18.5247 13.8004 18.4498 13.765C18.3749 13.7296 18.3171 13.6659 18.2891 13.5879C18.2612 13.5099 18.2653 13.424 18.3007 13.3491C18.336 13.2741 18.3997 13.2163 18.4777 13.1883L21.962 11.939C22.3051 11.8172 22.6715 11.7754 23.0332 11.8165C23.3949 11.8576 23.7424 11.9807 24.0494 12.1764L24.7987 12.6569C25.8519 12.2174 27.0536 10.9547 27.113 9.86304C27.1176 9.78035 27.1548 9.70286 27.2165 9.6476C27.2781 9.59233 27.3592 9.56382 27.4419 9.56832C27.5246 9.57281 27.6022 9.60996 27.6575 9.67158C27.7128 9.73321 27.7414 9.81427 27.737 9.89697C27.6697 11.1356 26.5506 12.4263 25.4145 13.0519L26.9493 14.0363C27.2593 14.2343 27.5083 14.5143 27.6687 14.8453C27.829 15.1762 27.8945 15.5452 27.8578 15.9111C28.6763 15.3298 30.037 14.2693 30.9662 13.0556C30.9912 13.023 31.0223 12.9956 31.0578 12.975C31.0934 12.9543 31.1326 12.941 31.1733 12.9355C31.214 12.9301 31.2554 12.9328 31.2951 12.9433C31.3348 12.9539 31.372 12.9722 31.4046 12.9972C31.4372 13.0222 31.4646 13.0533 31.4851 13.0889C31.5057 13.1244 31.519 13.1637 31.5244 13.2044C31.5298 13.2451 31.5271 13.2865 31.5165 13.3262C31.5058 13.3658 31.4875 13.403 31.4625 13.4356C30.1548 15.1434 28.1151 16.5119 27.6035 16.8409C27.3908 18.0261 27.7378 19.4293 28.894 19.5563C29.707 19.6446 30.7818 19.0681 31.9185 17.9316C32.4225 17.4274 32.7709 17.0417 33.0147 16.7177C33.0646 16.6515 33.1387 16.6078 33.2207 16.5962C33.3028 16.5846 33.3861 16.6061 33.4523 16.6559C33.5186 16.7058 33.5623 16.7799 33.5738 16.862C33.5854 16.944 33.5639 17.0273 33.5141 17.0936Z" fill="white"/>
</svg>
