<svg width="38" height="38" viewBox="0 0 38 38" fill="none" xmlns="http://www.w3.org/2000/svg">
<circle cx="19" cy="19" r="19" fill="white"/>
<g clip-path="url(#clip0_115_514)">
<path d="M18.953 12.0214C17.0714 12.0214 15.5482 10.4302 15.5482 8.46466C15.5482 6.49908 17.0714 4.9079 18.953 4.9079C20.8346 4.9079 22.3578 6.49908 22.3578 8.46466C22.3578 10.477 20.8346 12.0214 18.953 12.0214Z" fill="#FF407E"/>
<path d="M17.2058 35C16.4442 35 15.817 34.3448 15.817 33.5492V24.3765H18.6394V33.5024C18.6394 34.3448 18.0122 35 17.2058 35Z" fill="#FF407E"/>
<path d="M20.7449 35C19.9833 35 19.3561 34.3448 19.3561 33.5492V24.3765H22.1337V33.5024C22.1337 34.3448 21.5065 35 20.7449 35Z" fill="#FF407E"/>
<path d="M25.9418 21.2409L24.2842 15.7186C23.881 13.987 22.4026 12.817 20.7002 12.817H17.2954C15.593 12.817 14.1146 13.987 13.6666 15.7186L12.0538 21.2409C11.8746 21.8493 12.1434 22.5045 12.7258 22.7853C12.8602 22.8321 12.9946 22.8789 13.129 22.8789C13.6666 22.8789 14.1146 22.5045 14.249 21.9897L15.8618 16.6546C15.9066 16.4674 16.041 16.327 16.2202 16.327C16.3994 16.327 16.5338 16.561 16.3994 17.0758C16.0858 18.4798 14.5626 24.7977 14.3386 25.7337C14.2938 25.8273 14.3386 25.9677 14.4282 26.0613C14.473 26.1549 14.6074 26.2017 14.697 26.2017H23.3882C23.4778 26.2017 23.5674 26.1549 23.657 26.0613C23.7466 25.9677 23.7466 25.8741 23.7466 25.7337C23.5674 24.7977 21.9994 18.4798 21.6858 17.0758C21.5514 16.561 21.6858 16.327 21.865 16.327C22.0442 16.327 22.1786 16.4674 22.2234 16.6546L23.7914 21.9429C23.9258 22.4577 24.3738 22.8321 24.9114 22.8321C25.0458 22.8321 25.1802 22.7853 25.3146 22.7385C25.8522 22.5045 26.121 21.8493 25.9418 21.2409Z" fill="#FF407E"/>
<path d="M23.9258 4.5803C24.3738 5.0951 24.5978 5.79709 24.5978 6.49908C24.5978 7.71587 24.8218 8.27746 25.001 8.46466C25.0458 8.51146 25.001 8.55826 25.001 8.60506H24.9562C22.8058 8.74546 22.0442 7.48187 21.7306 7.06068C21.1034 6.35868 21.0586 5.32909 21.5962 4.5335C22.2234 3.83151 23.2538 3.83151 23.881 4.4867C23.881 4.5335 23.881 4.5335 23.9258 4.5803Z" fill="#FF407E"/>
<path d="M14.025 4.5803C13.577 5.0951 13.353 5.79709 13.353 6.49908C13.353 7.71587 13.129 8.27746 12.9498 8.46466C12.905 8.51146 12.9498 8.55826 12.9498 8.60506H12.9946C15.145 8.74546 15.9066 7.48187 16.2202 7.06068C16.8922 6.17149 16.8474 5.0951 16.3546 4.5335C15.7274 3.83151 14.697 3.83151 14.0698 4.4867C14.0698 4.5335 14.025 4.5335 14.025 4.5803Z" fill="#FF407E"/>
</g>
<defs>
<clipPath id="clip0_115_514">
<rect width="14" height="31" fill="white" transform="translate(12 4)"/>
</clipPath>
</defs>
</svg>
