<svg width="38" height="38" viewBox="0 0 38 38" fill="none" xmlns="http://www.w3.org/2000/svg">
<circle cx="19" cy="19" r="19" fill="white"/>
<g clip-path="url(#clip0_115_524)">
<path d="M26.5148 18.402C23.9107 19.6152 21.2357 20.6468 18.524 21.5794C18.0447 20.0382 17.7724 18.737 17.3748 16.8862C17.2096 16.1174 16.847 15.4266 16.3342 14.9102C17.8355 12.6827 19.3368 10.4557 20.8381 8.22819C22.2455 6.14095 19.1643 3.7038 17.7465 5.80647C15.6929 8.85404 13.6379 11.9021 11.5838 14.9501C11.5012 15.0731 11.4349 15.1965 11.3823 15.3209C10.8476 15.9976 10.5626 16.8562 10.7491 17.7276C11.2284 19.9497 11.7158 22.1808 12.4148 24.3465C12.6721 25.1435 13.2748 25.7307 14.0041 26.0738C14.0699 26.131 14.1394 26.1869 14.2174 26.2404C17.8709 28.7288 21.6687 30.9822 25.6979 32.8125C28.0034 33.8587 29.5161 30.232 27.2101 29.1863C24.6754 28.0372 22.2478 26.7106 19.8923 25.2578C22.6322 24.317 25.3339 23.2782 27.9649 22.0528C30.2541 20.9858 28.8117 17.3314 26.5148 18.402Z" fill="#880015"/>
<path d="M12.8459 12.1167C13.9837 10.6658 13.7286 8.56674 12.2763 7.42986C10.8236 6.29343 8.72634 6.54849 7.58992 8.00034C6.45213 9.45174 6.70809 11.5499 8.15949 12.6872C9.61134 13.8245 11.7099 13.5686 12.8459 12.1167Z" fill="#880015"/>
</g>
<defs>
<clipPath id="clip0_115_524">
<rect width="28" height="28" fill="white" transform="translate(4 5)"/>
</clipPath>
</defs>
</svg>
