<svg width="38" height="38" viewBox="0 0 38 38" fill="none" xmlns="http://www.w3.org/2000/svg">
<circle cx="19" cy="19" r="19" fill="white"/>
<path d="M26.9414 16.8813C26.9398 16.877 26.938 16.8726 26.9363 16.8684C26.8493 16.6571 26.6457 16.5208 26.4173 16.5208C26.4171 16.5208 26.4168 16.5208 26.4166 16.5208C26.188 16.5211 25.9844 16.658 25.8978 16.8696C25.8964 16.8731 25.8949 16.8766 25.8936 16.8803L24.3611 20.904C24.2689 21.1459 24.3904 21.4168 24.6323 21.5089C24.6872 21.5299 24.7436 21.5398 24.7991 21.5398C24.9879 21.5398 25.1659 21.4247 25.2372 21.2378L25.5039 20.5375H27.3191L27.5829 21.2364C27.6743 21.4786 27.9449 21.6009 28.1869 21.5094C28.4291 21.4181 28.5514 21.1476 28.4599 20.9054L26.9414 16.8813ZM25.861 19.5999L26.4157 18.1435L26.9653 19.5999H25.861Z" fill="#7092BE"/>
<path d="M9.97856 20.5382C9.97763 20.5382 9.97675 20.5382 9.97588 20.5382C9.64444 20.5401 9.2885 20.5414 9.01813 20.5417V16.9291C9.01813 16.6702 8.80831 16.4604 8.54938 16.4604C8.29044 16.4604 8.08063 16.6702 8.08063 16.9291V21.007C8.08063 21.2352 8.24506 21.4303 8.46994 21.469C8.5035 21.4748 8.53075 21.4794 8.98169 21.4794C9.19963 21.4794 9.51669 21.4784 9.98113 21.4757C10.24 21.4743 10.4488 21.2632 10.4473 21.0044C10.4458 20.7464 10.2362 20.5382 9.97856 20.5382Z" fill="#7092BE"/>
<path d="M13.0848 20.5382C13.0839 20.5382 13.083 20.5382 13.0821 20.5382C12.7507 20.5401 12.3948 20.5414 12.1244 20.5417V16.9291C12.1244 16.6702 11.9146 16.4604 11.6556 16.4604C11.3967 16.4604 11.1869 16.6702 11.1869 16.9291V21.007C11.1869 21.2352 11.3513 21.4303 11.5762 21.469C11.6098 21.4748 11.637 21.4794 12.088 21.4794C12.3059 21.4794 12.623 21.4784 13.0874 21.4757C13.3463 21.4743 13.555 21.2632 13.5535 21.0044C13.5521 20.7464 13.3425 20.5382 13.0848 20.5382Z" fill="#7092BE"/>
<path d="M31.5215 20.5382C31.5206 20.5382 31.5197 20.5382 31.5188 20.5382C31.1874 20.5401 30.8314 20.5414 30.5611 20.5417V16.9291C30.5611 16.6702 30.3513 16.4604 30.0923 16.4604C29.8334 16.4604 29.6236 16.6702 29.6236 16.9291V21.007C29.6236 21.2352 29.788 21.4303 30.0129 21.469C30.0464 21.4748 30.0737 21.4794 30.5246 21.4794C30.7426 21.4794 31.0596 21.4784 31.5241 21.4757C31.7829 21.4743 31.9917 21.2632 31.9902 21.0044C31.9887 20.7464 31.7792 20.5382 31.5215 20.5382Z" fill="#7092BE"/>
<path d="M6.47858 16.4604C6.21964 16.4604 6.00983 16.6702 6.00983 16.9291V21.0105C6.00983 21.2694 6.21964 21.4792 6.47858 21.4792C6.73751 21.4792 6.94733 21.2694 6.94733 21.0105V16.9291C6.94733 16.6702 6.73751 16.4604 6.47858 16.4604Z" fill="#7092BE"/>
<path d="M16.8575 17.4352C17.1164 17.4352 17.3263 17.2254 17.3263 16.9664C17.3263 16.7075 17.1164 16.4977 16.8575 16.4977H15.1534C14.8945 16.4977 14.6847 16.7075 14.6847 16.9664V21.0105C14.6847 21.2694 14.8945 21.4792 15.1534 21.4792H16.8575C17.1164 21.4792 17.3263 21.2694 17.3263 21.0105C17.3263 20.7516 17.1164 20.5417 16.8575 20.5417H15.6222V19.4572H16.7318C16.9908 19.4572 17.2006 19.2474 17.2006 18.9884C17.2006 18.7295 16.9908 18.5197 16.7318 18.5197H15.6222V17.4351L16.8575 17.4352Z" fill="#7092BE"/>
<path d="M22.7305 18.5011H21.5096C21.2507 18.5011 21.0409 18.7109 21.0409 18.9698C21.0409 19.2288 21.2507 19.4386 21.5096 19.4386H22.2134C22.0904 20.0162 21.7208 20.5418 20.9689 20.5418C20.1022 20.5418 19.3971 19.8366 19.3971 18.9698C19.3971 18.1031 20.1022 17.3979 20.9689 17.3979C21.2839 17.3979 21.5877 17.4907 21.8475 17.6662C22.0621 17.8111 22.3534 17.7547 22.4983 17.5401C22.6432 17.3256 22.5868 17.0343 22.3723 16.8893C21.9569 16.6088 21.4717 16.4604 20.9689 16.4604C19.5853 16.4604 18.4596 17.5862 18.4596 18.9698C18.4596 20.3536 19.5853 21.4793 20.9689 21.4793C22.2821 21.4793 23.1993 20.4473 23.1993 18.9698C23.1993 18.7109 22.9894 18.5011 22.7305 18.5011Z" fill="#7092BE"/>
<path d="M34.0312 14.3896H33.2391C32.3018 11.4985 30.4602 8.90674 28.0243 7.06218C25.4093 5.08199 22.2887 4.03537 19 4.03537C15.4207 4.03537 11.957 5.31924 9.247 7.65056C9.05075 7.81937 9.02856 8.11537 9.19737 8.31162C9.36625 8.50793 9.66225 8.52999 9.85844 8.36124C12.3984 6.17624 15.6449 4.97287 19 4.97287C24.9484 4.97287 30.3074 8.81443 32.2501 14.3896H31.0366C29.1231 9.42143 24.3281 6.10625 19 6.10625C16.1326 6.10625 13.4178 7.02818 11.149 8.77231C10.9243 8.94512 10.7848 9.20656 10.7664 9.48974C10.7479 9.77331 10.8526 10.0511 11.0534 10.2521L15.1909 14.3896H13.5883L10.2521 11.0534C10.0511 10.8526 9.77325 10.7481 9.48981 10.7663C9.20669 10.7847 8.94519 10.9242 8.77238 11.149C8.01119 12.1391 7.40162 13.228 6.95675 14.3896H5.75C6.328 12.7239 7.20694 11.1987 8.36981 9.84893C8.53875 9.65274 8.51675 9.35681 8.32062 9.18781C8.1245 9.01906 7.82856 9.04081 7.6595 9.23699C6.34769 10.7597 5.37388 12.4918 4.76081 14.3896H3.96875C3.43456 14.3896 3 14.8241 3 15.3583V22.6416C3 23.1758 3.43456 23.6104 3.96875 23.6104H4.76094C5.69825 26.5014 7.53981 29.0932 9.97569 30.9377C12.5907 32.9179 15.7113 33.9646 19 33.9646C22.2887 33.9646 25.4093 32.9179 28.0243 30.9377C30.4602 29.0932 32.3018 26.5014 33.2391 23.6104H34.0312C34.5654 23.6104 35 23.1758 35 22.6416V15.3583C35 14.8242 34.5654 14.3896 34.0312 14.3896ZM11.7164 9.58912C11.7058 9.57856 11.7009 9.56562 11.7019 9.55062C11.7033 9.52874 11.7162 9.51887 11.7204 9.51562C13.8238 7.89849 16.3411 7.04374 19 7.04374C23.8191 7.04374 28.1684 9.96918 30.0263 14.3896H16.5169L11.7164 9.58912ZM9.51556 11.7204C9.51888 11.7162 9.52875 11.7033 9.55069 11.7019C9.566 11.7007 9.57863 11.7057 9.58913 11.7164L12.2624 14.3896H7.96631C8.36419 13.4381 8.88356 12.5426 9.51556 11.7204ZM19 33.0271C13.0516 33.0271 7.69256 29.1856 5.74988 23.6104H6.96338C8.87694 28.5786 13.6719 31.8937 19 31.8937C21.8674 31.8937 24.5823 30.9718 26.8511 29.2276C27.0758 29.0547 27.2152 28.7932 27.2336 28.5101C27.252 28.2266 27.1474 27.9487 26.9466 27.748L22.8091 23.6105H24.4118L27.7479 26.9467C27.9337 27.1324 28.1851 27.2358 28.4461 27.2358C28.4674 27.2358 28.4889 27.2351 28.5103 27.2337C28.7934 27.2152 29.0549 27.0758 29.2276 26.8511C29.9888 25.8609 30.5984 24.7721 31.0432 23.6105H32.2501C30.3074 29.1856 24.9484 33.0271 19 33.0271ZM25.7377 23.6104H30.0338C29.6359 24.5619 29.1165 25.4574 28.4844 26.2796C28.4812 26.2838 28.4713 26.2967 28.4494 26.2981C28.4347 26.2987 28.4214 26.2942 28.4109 26.2836L25.7377 23.6104ZM34.0625 22.6417C34.0625 22.6589 34.0484 22.6729 34.0312 22.6729H11.541C11.2821 22.6729 11.0723 22.8828 11.0723 23.1417C11.0723 23.4006 11.2821 23.6104 11.541 23.6104H21.4832L26.2837 28.4109C26.2943 28.4215 26.2991 28.4344 26.2981 28.4494C26.2967 28.4713 26.2837 28.4812 26.2796 28.4844C24.1762 30.1015 21.6589 30.9562 19 30.9562C14.1808 30.9562 9.83169 28.0308 7.97369 23.6104H9.35356C9.6125 23.6104 9.82231 23.4006 9.82231 23.1417C9.82231 22.8828 9.6125 22.6729 9.35356 22.6729H3.96875C3.95156 22.6729 3.9375 22.6589 3.9375 22.6417V15.3583C3.9375 15.3411 3.95156 15.3271 3.96875 15.3271H34.0312C34.0484 15.3271 34.0625 15.3411 34.0625 15.3583V22.6417Z" fill="#7092BE"/>
</svg>
