<svg width="38" height="38" viewBox="0 0 38 38" fill="none" xmlns="http://www.w3.org/2000/svg">
<circle cx="19" cy="19" r="19" fill="white"/>
<g clip-path="url(#clip0_115_545)">
<path d="M29.6916 6.56143C29.6275 6.30269 29.429 6.09849 29.1722 6.02711C28.9154 5.95567 28.6399 6.02808 28.4515 6.21661L14.3481 20.3199L19.7873 25.7592L26.112 19.4344C27.7641 17.7824 28.9682 15.7194 29.594 13.4685C30.22 11.2175 30.2537 8.82911 29.6916 6.56143Z" fill="#7092BE"/>
<path d="M13.3026 21.3653L7.5807 27.0873C6.6868 27.9812 6.6868 29.4357 7.5807 30.3296C8.02767 30.7765 8.61478 31 9.20184 31C9.7889 31 10.3761 30.7765 10.823 30.3296L16.545 24.6076L13.3026 21.3653Z" fill="#7092BE"/>
</g>
<defs>
<clipPath id="clip0_115_545">
<rect width="25" height="25" fill="white" transform="translate(6 6)"/>
</clipPath>
</defs>
</svg>
