<svg width="38" height="38" viewBox="0 0 38 38" fill="none" xmlns="http://www.w3.org/2000/svg">
<circle cx="19" cy="19" r="19" fill="white"/>
<path fill-rule="evenodd" clip-rule="evenodd" d="M11.2206 24.4228C11.1619 24.3757 11.089 24.35 11.0138 24.35H5.29999C4.38873 24.35 3.64999 23.6113 3.64999 22.7V16.1C3.64999 15.1888 4.38873 14.45 5.29999 14.45H11.0138C11.089 14.45 11.1619 14.4244 11.2206 14.3773L20.7664 6.70646C21.8462 5.83878 23.45 6.60742 23.45 7.99263V30.8074C23.45 32.1926 21.8462 32.9613 20.7664 32.0936L11.2206 24.4228Z" fill="#7092BE"/>
<path fill-rule="evenodd" clip-rule="evenodd" d="M25.1 31.0244C25.1 30.9066 25.163 30.798 25.2641 30.7375C29.1189 28.4328 31.7 24.2178 31.7 19.4C31.7 14.5141 29.0455 10.2483 25.1 7.96596V6.62613C25.1 6.38117 25.3572 6.22233 25.5725 6.33916C30.2049 8.8529 33.35 13.7592 33.35 19.4C33.35 25.0409 30.2049 29.9472 25.5725 32.4609C25.3572 32.5777 25.1 32.4189 25.1 32.1739V31.0244Z" fill="#7092BE"/>
<path fill-rule="evenodd" clip-rule="evenodd" d="M25.1 26.9267C25.1 26.8328 25.1402 26.7436 25.2092 26.68C27.1711 24.871 28.4 22.279 28.4 19.4C28.4 16.521 27.1711 13.9291 25.2092 12.1201C25.1402 12.0564 25.1 11.9672 25.1 11.8734V10.5528C25.1 10.2861 25.3986 10.1318 25.6087 10.2961C28.3122 12.4101 30.05 15.7021 30.05 19.4C30.05 23.0979 28.3122 26.3899 25.6087 28.5039C25.3986 28.6682 25.1 28.514 25.1 28.2473V26.9267Z" fill="#7092BE"/>
<path fill-rule="evenodd" clip-rule="evenodd" d="M25.1 23.3622C25.1 23.6792 25.4864 23.8012 25.6452 23.5269C26.3478 22.313 26.75 20.9035 26.75 19.4C26.75 17.8966 26.3478 16.4871 25.6452 15.2732C25.4864 14.9988 25.1 15.1208 25.1 15.4378V23.3622Z" fill="#7092BE"/>
</svg>
