<svg width="38" height="38" viewBox="0 0 38 38" fill="none" xmlns="http://www.w3.org/2000/svg">
<circle cx="19" cy="19" r="19" fill="white"/>
<path d="M27.6951 15.3994C27.6373 15.2971 27.5535 15.2121 27.4523 15.1529C27.351 15.0937 27.2359 15.0625 27.1186 15.0625H18.4381L19.8934 3.91028C19.9091 3.76102 19.8741 3.61084 19.7943 3.48391C19.7145 3.35698 19.5944 3.26069 19.4533 3.21054C19.3123 3.16039 19.1585 3.1593 19.0168 3.20745C18.8751 3.2556 18.7537 3.35018 18.672 3.47597L8.11561 22.0248C8.05388 22.1255 8.02005 22.2409 8.0176 22.3591C8.01515 22.4773 8.04418 22.594 8.10169 22.6972C8.1592 22.8004 8.24311 22.8863 8.34476 22.9461C8.44642 23.0059 8.56215 23.0375 8.68001 23.0375H17.2308L16.0775 34.2065C16.0662 34.3552 16.1048 34.5035 16.1871 34.6277C16.2695 34.7519 16.3909 34.8449 16.5321 34.8919C16.6732 34.9389 16.826 34.9372 16.9661 34.8871C17.1062 34.837 17.2256 34.7413 17.3052 34.6154L27.6872 16.0685C27.7474 15.9676 27.7798 15.8526 27.7812 15.735C27.7826 15.6175 27.7529 15.5017 27.6951 15.3994Z" fill="#FFC90E"/>
</svg>
