<svg width="40" height="40" viewBox="0 0 40 40" fill="none" xmlns="http://www.w3.org/2000/svg">
<circle cx="20" cy="20" r="19.2" fill="white" stroke="black" stroke-width="0.4"/>
<path d="M34.189 24.014L33.634 26.16C33.486 26.678 33.227 27.122 32.82 27.492C32.709 27.603 32.561 27.714 32.413 27.825L31.747 30.23C31.71 30.415 31.599 30.6 31.488 30.748C31.118 31.229 30.526 31.414 29.934 31.266L28.491 30.896C27.714 30.674 27.233 29.86 27.455 29.083L27.825 27.64L16.392 24.569L16.022 26.012C15.8 26.789 14.986 27.27 14.209 27.048L12.766 26.678C12.174 26.53 11.767 26.012 11.693 25.457C11.656 25.272 11.693 25.05 11.73 24.865L12.359 22.46C12.285 22.312 12.211 22.127 12.174 21.979C12.026 21.461 12.026 20.906 12.137 20.388L12.692 18.242C12.914 17.354 13.543 16.651 14.394 16.281C14.653 16.17 14.949 16.096 15.245 16.059L16.096 14.949L17.576 12.951C17.724 12.729 17.909 12.544 18.094 12.359C18.464 11.989 18.871 11.693 19.315 11.471C19.537 11.36 19.759 11.249 20.018 11.175C20.499 11.027 20.98 10.916 21.498 10.916C22.016 10.879 22.534 10.953 23.052 11.101L28.713 12.618C29.231 12.766 29.712 12.951 30.156 13.21C31.488 14.024 32.339 15.43 32.524 16.984L32.82 19.463L32.968 20.869C33.449 21.202 33.819 21.683 34.004 22.238C34.337 22.793 34.337 23.422 34.189 24.014ZM16.54 18.501C15.8 18.242 15.023 18.649 14.764 19.389C14.764 19.426 14.727 19.5 14.727 19.537C14.468 20.277 14.875 21.054 15.615 21.313C15.652 21.313 15.726 21.35 15.763 21.35C16.614 21.572 17.872 22.053 18.094 21.202C18.316 20.351 17.391 18.723 16.54 18.501ZM29.971 19.796L29.675 17.317C29.638 17.095 29.564 16.873 29.49 16.688C29.231 16.059 28.676 15.615 28.047 15.467L22.349 13.95C21.461 13.728 20.536 14.024 19.981 14.764L18.501 16.762L26.456 18.908L29.971 19.796ZM30.822 22.312C29.971 22.09 28.343 23.015 28.121 23.866C27.899 24.717 29.231 24.939 30.082 25.161C30.859 25.457 31.71 25.05 31.969 24.273C32.228 23.496 31.858 22.645 31.081 22.386C31.007 22.349 30.896 22.349 30.822 22.312Z" fill="#22B14C"/>
<path d="M11.323 17.872L10.731 20.018C10.583 20.536 10.546 21.091 10.62 21.609L8.99199 22.941C8.80699 23.089 8.54799 23.052 8.39999 22.867C8.32599 22.756 8.28899 22.645 8.32599 22.534L9.02899 18.982C9.06599 18.76 8.91799 18.538 8.69599 18.501H8.65899L5.06999 18.168C4.84799 18.131 4.66299 17.946 4.69999 17.724C4.69999 17.613 4.77399 17.502 4.88499 17.428L7.88199 15.43C8.06699 15.282 8.14099 15.023 7.99299 14.838C7.99299 14.838 7.99299 14.801 7.95599 14.801L5.66199 12.026C5.51399 11.841 5.55099 11.582 5.73599 11.434C5.84699 11.36 5.95799 11.323 6.06899 11.36L9.62099 12.063C9.84299 12.1 10.065 11.952 10.102 11.73V11.693L10.435 8.067C10.472 7.845 10.657 7.66 10.879 7.697C10.99 7.697 11.101 7.771 11.175 7.882L13.173 10.879C13.284 11.064 13.543 11.138 13.765 10.99C13.765 10.99 13.802 10.99 13.802 10.953L16.577 8.659C16.762 8.511 17.021 8.548 17.169 8.733C17.243 8.844 17.28 8.955 17.243 9.066L16.725 11.656C16.614 11.804 16.466 11.952 16.355 12.1L14.875 14.098L14.394 14.764C12.951 15.134 11.73 16.355 11.323 17.872Z" fill="#22B14C"/>
</svg>
