<svg width="40" height="40" viewBox="0 0 40 40" fill="none" xmlns="http://www.w3.org/2000/svg">
<circle cx="20" cy="20" r="19.2" fill="white" stroke="black" stroke-width="0.4"/>
<g clip-path="url(#clip0_115_98)">
<path d="M19.953 13.0214C18.0714 13.0214 16.5482 11.4302 16.5482 9.46466C16.5482 7.49908 18.0714 5.9079 19.953 5.9079C21.8346 5.9079 23.3578 7.49908 23.3578 9.46466C23.3578 11.477 21.8346 13.0214 19.953 13.0214Z" fill="#FF407E"/>
<path d="M18.2058 36C17.4442 36 16.817 35.3448 16.817 34.5492V25.3765H19.6394V34.5024C19.6394 35.3448 19.0122 36 18.2058 36Z" fill="#FF407E"/>
<path d="M21.7449 36C20.9833 36 20.3561 35.3448 20.3561 34.5492V25.3765H23.1337V34.5024C23.1337 35.3448 22.5065 36 21.7449 36Z" fill="#FF407E"/>
<path d="M26.9418 22.2409L25.2842 16.7186C24.881 14.987 23.4026 13.817 21.7002 13.817H18.2954C16.593 13.817 15.1146 14.987 14.6666 16.7186L13.0538 22.2409C12.8746 22.8493 13.1434 23.5045 13.7258 23.7853C13.8602 23.8321 13.9946 23.8789 14.129 23.8789C14.6666 23.8789 15.1146 23.5045 15.249 22.9897L16.8618 17.6546C16.9066 17.4674 17.041 17.327 17.2202 17.327C17.3994 17.327 17.5338 17.561 17.3994 18.0758C17.0858 19.4798 15.5626 25.7977 15.3386 26.7337C15.2938 26.8273 15.3386 26.9677 15.4282 27.0613C15.473 27.1549 15.6074 27.2017 15.697 27.2017H24.3882C24.4778 27.2017 24.5674 27.1549 24.657 27.0613C24.7466 26.9677 24.7466 26.8741 24.7466 26.7337C24.5674 25.7977 22.9994 19.4798 22.6858 18.0758C22.5514 17.561 22.6858 17.327 22.865 17.327C23.0442 17.327 23.1786 17.4674 23.2234 17.6546L24.7914 22.9429C24.9258 23.4577 25.3738 23.8321 25.9114 23.8321C26.0458 23.8321 26.1802 23.7853 26.3146 23.7385C26.8522 23.5045 27.121 22.8493 26.9418 22.2409Z" fill="#FF407E"/>
<path d="M24.9258 5.58027C25.3738 6.09507 25.5978 6.79706 25.5978 7.49905C25.5978 8.71584 25.8218 9.27743 26.001 9.46463C26.0458 9.51143 26.001 9.55823 26.001 9.60503H25.9562C23.8058 9.74543 23.0442 8.48184 22.7306 8.06065C22.1034 7.35865 22.0586 6.32906 22.5962 5.53347C23.2234 4.83148 24.2538 4.83148 24.881 5.48667C24.881 5.53347 24.881 5.53347 24.9258 5.58027Z" fill="#FF407E"/>
<path d="M15.025 5.58027C14.577 6.09507 14.353 6.79706 14.353 7.49905C14.353 8.71584 14.129 9.27743 13.9498 9.46463C13.905 9.51143 13.9498 9.55823 13.9498 9.60503H13.9946C16.145 9.74543 16.9066 8.48184 17.2202 8.06065C17.8922 7.17146 17.8474 6.09507 17.3546 5.53347C16.7274 4.83148 15.697 4.83148 15.0698 5.48667C15.0698 5.53347 15.025 5.53347 15.025 5.58027Z" fill="#FF407E"/>
</g>
<defs>
<clipPath id="clip0_115_98">
<rect width="14" height="31" fill="white" transform="translate(13 5)"/>
</clipPath>
</defs>
</svg>
