<svg width="40" height="40" viewBox="0 0 40 40" fill="none" xmlns="http://www.w3.org/2000/svg">
<circle cx="20" cy="20" r="19.2" fill="white" stroke="black" stroke-width="0.4"/>
<path d="M33.7536 26.3005L21.4691 5.9278C21.1587 5.41292 20.6012 5.09808 19.9999 5.09808C19.3987 5.09808 18.8412 5.41286 18.5308 5.9278L6.24642 26.3005C5.92693 26.8304 5.91747 27.4912 6.22176 28.03C6.52604 28.5688 7.09681 28.9019 7.71554 28.9019H32.2844C32.9031 28.9019 33.4739 28.5687 33.7782 28.03C34.0825 27.4912 34.0731 26.8304 33.7536 26.3005ZM20.0091 12.1452C20.7147 12.1452 21.3116 12.5432 21.3116 13.2487C21.3116 15.4014 21.0584 18.4948 21.0584 20.6475C21.0584 21.2083 20.4433 21.4434 20.0091 21.4434C19.4303 21.4434 18.9418 21.2083 18.9418 20.6475C18.9418 18.4948 18.6886 15.4014 18.6886 13.2487C18.6886 12.5432 19.2675 12.1452 20.0091 12.1452ZM20.0272 25.4775C19.2313 25.4775 18.6343 24.8263 18.6343 24.0847C18.6343 23.3249 19.2313 22.6918 20.0272 22.6918C20.7689 22.6918 21.4021 23.3249 21.4021 24.0847C21.4021 24.8263 20.7689 25.4775 20.0272 25.4775Z" fill="#FF421D"/>
</svg>
