<svg width="40" height="40" viewBox="0 0 40 40" fill="none" xmlns="http://www.w3.org/2000/svg">
<circle cx="20" cy="20" r="19.2" fill="white" stroke="black" stroke-width="0.4"/>
<g clip-path="url(#clip0_115_83)">
<path d="M31.1859 22.5646C30.8422 18.0904 28.7591 15.2867 26.9214 12.8125C25.2197 10.5219 23.75 8.54392 23.75 5.62607C23.75 5.3917 23.6188 5.17748 23.4106 5.07007C23.2019 4.96203 22.951 4.97972 22.7612 5.11765C20.0012 7.09261 17.6984 10.4213 16.8939 13.5973C16.3355 15.8084 16.2616 18.2942 16.2512 19.936C13.7024 19.3916 13.125 15.579 13.1189 15.5374C13.0902 15.3397 12.9694 15.1676 12.7936 15.0736C12.616 14.9809 12.4072 14.9741 12.2272 15.0632C12.0935 15.1279 8.94652 16.727 8.76342 23.1114C8.75059 23.3238 8.75 23.5368 8.75 23.7498C8.75 29.9524 13.797 34.9991 20 34.9991C20.0086 34.9996 20.0177 35.0009 20.025 34.9991C20.0275 34.9991 20.0299 34.9991 20.0329 34.9991C26.2207 34.9813 31.25 29.9414 31.25 23.7498C31.25 23.4379 31.1859 22.5646 31.1859 22.5646ZM20 33.7491C17.9321 33.7491 16.25 31.9573 16.25 29.7547C16.25 29.6796 16.2494 29.6039 16.2549 29.5112C16.2799 28.5823 16.4563 27.9482 16.6498 27.5264C17.0124 28.3052 17.6605 29.0211 18.7134 29.0211C19.0589 29.0211 19.3384 28.7415 19.3384 28.3961C19.3384 27.5063 19.3568 26.4798 19.5783 25.5533C19.7755 24.7318 20.2466 23.8578 20.8436 23.1572C21.1091 24.0666 21.6267 24.8026 22.1321 25.5209C22.8553 26.5487 23.603 27.6113 23.7342 29.4233C23.7421 29.5307 23.7501 29.6387 23.7501 29.7547C23.75 31.9572 22.0679 33.7491 20 33.7491Z" fill="#FF421D"/>
</g>
<defs>
<clipPath id="clip0_115_83">
<rect width="30" height="30" fill="white" transform="translate(5 5)"/>
</clipPath>
</defs>
</svg>
