<svg width="40" height="40" viewBox="0 0 40 40" fill="none" xmlns="http://www.w3.org/2000/svg">
<circle cx="20" cy="20" r="19.2" fill="white" stroke="black" stroke-width="0.4"/>
<path d="M32.25 20.9087C31.7389 20.9104 31.2334 21.0153 30.7638 21.217C30.2942 21.4188 29.8702 21.7133 29.5172 22.0829C29.3361 22.3021 29.1089 22.4785 28.8517 22.5997C28.5945 22.7208 28.3137 22.7836 28.0294 22.7836C27.7451 22.7836 27.4643 22.7208 27.2071 22.5997C26.9499 22.4785 26.7226 22.3021 26.5416 22.0829C26.1897 21.7119 25.766 21.4165 25.2962 21.2146C24.8265 21.0127 24.3205 20.9086 23.8092 20.9086C23.2979 20.9086 22.792 21.0127 22.3222 21.2146C21.8525 21.4165 21.4287 21.7119 21.0769 22.0829C20.896 22.302 20.669 22.4785 20.412 22.5996C20.155 22.7207 19.8744 22.7835 19.5902 22.7835C19.3061 22.7835 19.0255 22.7207 18.7685 22.5996C18.5115 22.4785 18.2844 22.302 18.1036 22.0829C17.7518 21.7119 17.3282 21.4165 16.8585 21.2146C16.3888 21.0128 15.8829 20.9086 15.3717 20.9086C14.8605 20.9086 14.3546 21.0128 13.8849 21.2146C13.4153 21.4165 12.9916 21.7119 12.6398 22.0829C12.4592 22.302 12.2324 22.4784 11.9756 22.5995C11.7187 22.7206 11.4383 22.7834 11.1544 22.7834C10.8704 22.7834 10.59 22.7206 10.3332 22.5995C10.0764 22.4784 9.84952 22.302 9.66891 22.0829C9.3163 21.7131 8.89256 21.4185 8.42317 21.2167C7.95378 21.0149 7.44843 20.9101 6.9375 20.9087C6.68886 20.9087 6.4504 21.0074 6.27459 21.1832C6.09877 21.3591 6 21.5975 6 21.8462C6 22.0948 6.09877 22.3332 6.27459 22.5091C6.4504 22.6849 6.68886 22.7837 6.9375 22.7837C7.22083 22.7871 7.50011 22.8514 7.7564 22.9722C8.0127 23.0931 8.24002 23.2676 8.42297 23.484C8.77463 23.8549 9.19819 24.1504 9.66779 24.3523C10.1374 24.5542 10.6432 24.6583 11.1544 24.6583C11.6655 24.6583 12.1714 24.5542 12.641 24.3523C13.1106 24.1504 13.5341 23.8549 13.8858 23.484C14.0665 23.2648 14.2934 23.0883 14.5504 22.9671C14.8073 22.8459 15.0879 22.7831 15.372 22.7831C15.656 22.7831 15.9366 22.8459 16.1935 22.9671C16.4505 23.0883 16.6774 23.2648 16.8581 23.484C17.21 23.8549 17.6337 24.1504 18.1035 24.3523C18.5732 24.5541 19.0792 24.6583 19.5905 24.6583C20.1018 24.6583 20.6077 24.5541 21.0775 24.3523C21.5472 24.1504 21.9709 23.8549 22.3228 23.484C22.5037 23.2648 22.7308 23.0884 22.9878 22.9672C23.2449 22.8461 23.5255 22.7833 23.8097 22.7833C24.0938 22.7833 24.3745 22.8461 24.6315 22.9672C24.8886 23.0884 25.1157 23.2648 25.2966 23.484C25.6485 23.8549 26.0724 24.1503 26.5422 24.3522C27.012 24.554 27.518 24.6581 28.0294 24.6581C28.5407 24.6581 29.0467 24.554 29.5166 24.3522C29.9864 24.1503 30.4102 23.8549 30.7622 23.484C30.9455 23.2674 31.1732 23.0928 31.4299 22.972C31.6866 22.8512 31.9663 22.7869 32.25 22.7837C32.4986 22.7837 32.7371 22.6849 32.9129 22.5091C33.0887 22.3332 33.1875 22.0948 33.1875 21.8462C33.1875 21.5975 33.0887 21.3591 32.9129 21.1832C32.7371 21.0074 32.4986 20.9087 32.25 20.9087Z" fill="#2FC0FF"/>
<path d="M32.25 25.1274C31.7389 25.1291 31.2334 25.234 30.7638 25.4358C30.2942 25.6375 29.8702 25.932 29.5172 26.3016C29.3361 26.5208 29.1089 26.6973 28.8517 26.8184C28.5945 26.9395 28.3137 27.0024 28.0294 27.0024C27.7451 27.0024 27.4643 26.9395 27.2071 26.8184C26.9499 26.6973 26.7226 26.5208 26.5416 26.3016C26.1897 25.9307 25.766 25.6352 25.2962 25.4333C24.8265 25.2314 24.3205 25.1273 23.8092 25.1273C23.2979 25.1273 22.792 25.2314 22.3222 25.4333C21.8525 25.6352 21.4287 25.9307 21.0769 26.3016C20.896 26.5208 20.669 26.6972 20.412 26.8183C20.155 26.9395 19.8744 27.0023 19.5902 27.0023C19.3061 27.0023 19.0255 26.9395 18.7685 26.8183C18.5115 26.6972 18.2844 26.5208 18.1036 26.3016C17.7518 25.9307 17.3282 25.6353 16.8585 25.4334C16.3888 25.2315 15.8829 25.1274 15.3717 25.1274C14.8605 25.1274 14.3546 25.2315 13.8849 25.4334C13.4153 25.6353 12.9916 25.9307 12.6398 26.3016C12.4592 26.5207 12.2324 26.6971 11.9756 26.8183C11.7187 26.9394 11.4383 27.0022 11.1544 27.0022C10.8704 27.0022 10.59 26.9394 10.3332 26.8183C10.0764 26.6971 9.84952 26.5207 9.66891 26.3016C9.3163 25.9319 8.89256 25.6372 8.42317 25.4354C7.95378 25.2337 7.44843 25.1289 6.9375 25.1274C6.68886 25.1274 6.4504 25.2262 6.27459 25.402C6.09877 25.5778 6 25.8163 6 26.0649C6 26.3135 6.09877 26.552 6.27459 26.7278C6.4504 26.9036 6.68886 27.0024 6.9375 27.0024C7.22083 27.0058 7.50011 27.0702 7.7564 27.191C8.0127 27.3118 8.24002 27.4863 8.42297 27.7027C8.77463 28.0737 9.19819 28.3691 9.66779 28.5711C10.1374 28.773 10.6432 28.8771 11.1544 28.8771C11.6655 28.8771 12.1714 28.773 12.641 28.5711C13.1106 28.3691 13.5341 28.0737 13.8858 27.7027C14.0665 27.4835 14.2934 27.307 14.5504 27.1858C14.8073 27.0647 15.0879 27.0018 15.372 27.0018C15.656 27.0018 15.9366 27.0647 16.1935 27.1858C16.4505 27.307 16.6774 27.4835 16.8581 27.7027C17.21 28.0737 17.6337 28.3691 18.1035 28.571C18.5732 28.7729 19.0792 28.877 19.5905 28.877C20.1018 28.877 20.6077 28.7729 21.0775 28.571C21.5472 28.3691 21.9709 28.0737 22.3228 27.7027C22.5037 27.4836 22.7308 27.3071 22.9878 27.186C23.2449 27.0649 23.5255 27.002 23.8097 27.002C24.0938 27.002 24.3745 27.0649 24.6315 27.186C24.8886 27.3071 25.1157 27.4836 25.2966 27.7027C25.6485 28.0736 26.0724 28.369 26.5422 28.5709C27.012 28.7728 27.518 28.8769 28.0294 28.8769C28.5407 28.8769 29.0467 28.7728 29.5166 28.5709C29.9864 28.369 30.4102 28.0736 30.7622 27.7027C30.9455 27.4862 31.1732 27.3116 31.4299 27.1908C31.6866 27.0699 31.9663 27.0057 32.25 27.0024C32.4986 27.0024 32.7371 26.9036 32.9129 26.7278C33.0887 26.552 33.1875 26.3135 33.1875 26.0649C33.1875 25.8163 33.0887 25.5778 32.9129 25.402C32.7371 25.2262 32.4986 25.1274 32.25 25.1274Z" fill="#2FC0FF"/>
<path d="M6.9375 13.8774C7.22083 13.8809 7.50011 13.9452 7.7564 14.066C8.0127 14.1868 8.24002 14.3614 8.42297 14.5777C8.77463 14.9487 9.19819 15.2442 9.66779 15.4461C10.1374 15.648 10.6432 15.7521 11.1544 15.7521C11.6655 15.7521 12.1714 15.648 12.641 15.4461C13.1106 15.2442 13.5341 14.9487 13.8858 14.5777C14.0665 14.3585 14.2934 14.182 14.5504 14.0609C14.8073 13.9397 15.0879 13.8769 15.372 13.8769C15.656 13.8769 15.9366 13.9397 16.1935 14.0609C16.4505 14.182 16.6774 14.3585 16.8581 14.5777C17.21 14.9487 17.6337 15.2441 18.1035 15.446C18.5732 15.6479 19.0792 15.752 19.5905 15.752C20.1018 15.752 20.6077 15.6479 21.0775 15.446C21.5472 15.2441 21.9709 14.9487 22.3228 14.5777C22.5037 14.3586 22.7308 14.1821 22.9878 14.061C23.2449 13.9399 23.5255 13.8771 23.8097 13.8771C24.0938 13.8771 24.3745 13.9399 24.6315 14.061C24.8886 14.1821 25.1157 14.3586 25.2966 14.5777C25.6485 14.9487 26.0724 15.2441 26.5422 15.4459C27.012 15.6478 27.518 15.7519 28.0294 15.7519C28.5407 15.7519 29.0467 15.6478 29.5166 15.4459C29.9864 15.2441 30.4102 14.9487 30.7622 14.5777C30.9455 14.3612 31.1732 14.1866 31.4299 14.0658C31.6866 13.945 31.9663 13.8807 32.25 13.8774C32.4986 13.8774 32.7371 13.7787 32.9129 13.6028C33.0887 13.427 33.1875 13.1886 33.1875 12.9399C33.1875 12.6913 33.0887 12.4528 32.9129 12.277C32.7371 12.1012 32.4986 12.0024 32.25 12.0024C31.7391 12.0038 31.2337 12.1084 30.7641 12.3097C30.2945 12.5111 29.8704 12.8051 29.5172 13.1743C29.3361 13.3935 29.1089 13.5699 28.8517 13.6911C28.5945 13.8122 28.3137 13.875 28.0294 13.875C27.7451 13.875 27.4643 13.8122 27.2071 13.6911C26.9499 13.5699 26.7226 13.3935 26.5416 13.1743C26.1897 12.8033 25.766 12.5079 25.2962 12.306C24.8265 12.1041 24.3205 12 23.8092 12C23.2979 12 22.792 12.1041 22.3222 12.306C21.8525 12.5079 21.4287 12.8033 21.0769 13.1743C20.896 13.3934 20.669 13.5699 20.412 13.691C20.155 13.8121 19.8744 13.875 19.5902 13.875C19.3061 13.875 19.0255 13.8121 18.7685 13.691C18.5115 13.5699 18.2844 13.3934 18.1036 13.1743C17.7518 12.8034 17.3282 12.5079 16.8585 12.3061C16.3888 12.1042 15.8829 12.0001 15.3717 12.0001C14.8605 12.0001 14.3546 12.1042 13.8849 12.3061C13.4153 12.5079 12.9916 12.8034 12.6398 13.1743C12.4592 13.3934 12.2324 13.5698 11.9756 13.6909C11.7187 13.8121 11.4383 13.8749 11.1544 13.8749C10.8704 13.8749 10.59 13.8121 10.3332 13.6909C10.0764 13.5698 9.84952 13.3934 9.66891 13.1743C9.3161 12.805 8.89227 12.5108 8.42289 12.3094C7.95351 12.108 7.44826 12.0036 6.9375 12.0024C6.68886 12.0024 6.4504 12.1012 6.27459 12.277C6.09877 12.4528 6 12.6913 6 12.9399C6 13.1886 6.09877 13.427 6.27459 13.6028C6.4504 13.7787 6.68886 13.8774 6.9375 13.8774Z" fill="#2FC0FF"/>
<path d="M32.25 16.2212C31.7391 16.2226 31.2337 16.3271 30.7641 16.5285C30.2945 16.7298 29.8704 17.0239 29.5172 17.3931C29.3361 17.6122 29.1089 17.7887 28.8517 17.9098C28.5945 18.031 28.3137 18.0938 28.0294 18.0938C27.7451 18.0938 27.4643 18.031 27.2071 17.9098C26.9499 17.7887 26.7226 17.6122 26.5416 17.3931C26.1897 17.0221 25.766 16.7266 25.2962 16.5248C24.8265 16.3229 24.3205 16.2188 23.8092 16.2188C23.2979 16.2188 22.792 16.3229 22.3222 16.5248C21.8525 16.7266 21.4287 17.0221 21.0769 17.3931C20.896 17.6122 20.669 17.7886 20.412 17.9098C20.155 18.0309 19.8744 18.0937 19.5902 18.0937C19.3061 18.0937 19.0255 18.0309 18.7685 17.9098C18.5115 17.7886 18.2844 17.6122 18.1036 17.3931C17.7518 17.0221 17.3282 16.7267 16.8585 16.5248C16.3888 16.3229 15.8829 16.2188 15.3717 16.2188C14.8605 16.2188 14.3546 16.3229 13.8849 16.5248C13.4153 16.7267 12.9916 17.0221 12.6398 17.3931C12.4592 17.6121 12.2324 17.7886 11.9756 17.9097C11.7187 18.0308 11.4383 18.0936 11.1544 18.0936C10.8704 18.0936 10.59 18.0308 10.3332 17.9097C10.0764 17.7886 9.84952 17.6121 9.66891 17.3931C9.3161 17.0237 8.89227 16.7295 8.42289 16.5281C7.95351 16.3268 7.44826 16.2223 6.9375 16.2212C6.68886 16.2212 6.4504 16.3199 6.27459 16.4958C6.09877 16.6716 6 16.91 6 17.1587C6 17.4073 6.09877 17.6458 6.27459 17.8216C6.4504 17.9974 6.68886 18.0962 6.9375 18.0962C7.22083 18.0996 7.50011 18.1639 7.7564 18.2848C8.0127 18.4056 8.24002 18.5801 8.42297 18.7965C8.77463 19.1675 9.19819 19.4629 9.66779 19.6648C10.1374 19.8667 10.6432 19.9709 11.1544 19.9709C11.6655 19.9709 12.1714 19.8667 12.641 19.6648C13.1106 19.4629 13.5341 19.1675 13.8858 18.7965C14.0665 18.5773 14.2934 18.4008 14.5504 18.2796C14.8073 18.1584 15.0879 18.0956 15.372 18.0956C15.656 18.0956 15.9366 18.1584 16.1935 18.2796C16.4505 18.4008 16.6774 18.5773 16.8581 18.7965C17.21 19.1675 17.6337 19.4629 18.1035 19.6648C18.5732 19.8667 19.0792 19.9708 19.5905 19.9708C20.1018 19.9708 20.6077 19.8667 21.0775 19.6648C21.5472 19.4629 21.9709 19.1675 22.3228 18.7965C22.5037 18.5773 22.7308 18.4009 22.9878 18.2798C23.2449 18.1586 23.5255 18.0958 23.8097 18.0958C24.0938 18.0958 24.3745 18.1586 24.6315 18.2798C24.8886 18.4009 25.1157 18.5773 25.2966 18.7965C25.6485 19.1674 26.0724 19.4628 26.5422 19.6647C27.012 19.8665 27.518 19.9706 28.0294 19.9706C28.5407 19.9706 29.0467 19.8665 29.5166 19.6647C29.9864 19.4628 30.4102 19.1674 30.7622 18.7965C30.9455 18.58 31.1732 18.4054 31.4299 18.2845C31.6866 18.1637 31.9663 18.0995 32.25 18.0962C32.4986 18.0962 32.7371 17.9974 32.9129 17.8216C33.0887 17.6458 33.1875 17.4073 33.1875 17.1587C33.1875 16.91 33.0887 16.6716 32.9129 16.4958C32.7371 16.3199 32.4986 16.2212 32.25 16.2212Z" fill="#2FC0FF"/>
</svg>
