<svg width="40" height="40" viewBox="0 0 40 40" fill="none" xmlns="http://www.w3.org/2000/svg">
<circle cx="20" cy="20" r="19.2" fill="white" stroke="black" stroke-width="0.4"/>
<path d="M34 16.2373V14.1594H33.8852V12.1788H33.7721V11.4773H32.9628V12.177C32.9628 12.177 13.3803 12.3148 9.96138 12.177C9.43838 12.177 6.45233 12.4721 9.44721 17.0766C9.44721 17.0766 10.8077 19.1403 8.94365 21.4426C7.10431 23.7113 6.27564 28.307 6.06007 29.6958H6V30.5227H14.4864V29.6958V28.936C10.8201 29.6109 17.0201 21.0786 16.7445 22.5151C16.9442 22.5663 17.1509 22.5981 17.3664 22.5981H19.5751C20.9391 22.5981 22.7502 21.1387 22.7502 19.7729C22.7502 19.181 22.5417 18.6385 22.1954 18.2127H33.1236L33.477 16.9123H33.9399V16.2833H33.8639L33.8834 16.2373H34ZM19.5786 21.3896H17.37C17.2074 21.3896 17.0502 21.3631 16.9017 21.3189C17.0307 20.5609 17.1297 19.8824 17.2004 19.3541C17.3859 19.9672 17.7481 20.6086 18.4601 20.886C18.5096 20.9055 18.5609 20.9143 18.6121 20.9143C18.7782 20.9143 18.9372 20.8118 19.0026 20.6493C19.0856 20.4319 18.9779 20.1899 18.7623 20.105C18.0255 19.8188 17.8788 18.7057 17.8506 18.218H19.9797C20.6741 18.3982 21.1918 19.029 21.1918 19.7782C21.1918 20.6652 20.4673 21.3896 19.5786 21.3896ZM30.9097 16.9158H20.0009L21.895 16.285H30.9097V16.9158Z" fill="#ED1C24"/>
</svg>
