<svg width="40" height="40" viewBox="0 0 40 40" fill="none" xmlns="http://www.w3.org/2000/svg">
<circle cx="20" cy="20" r="19.2" fill="white" stroke="black" stroke-width="0.4"/>
<g clip-path="url(#clip0_115_93)">
<path d="M27.5148 19.4021C24.9107 20.6152 22.2357 21.6468 19.524 22.5794C19.0447 21.0382 18.7724 19.737 18.3748 17.8862C18.2096 17.1174 17.847 16.4267 17.3342 15.9102C18.8355 13.6827 20.3368 11.4557 21.8381 9.22822C23.2455 7.14098 20.1643 4.70383 18.7465 6.8065C16.6929 9.85407 14.6379 12.9021 12.5838 15.9501C12.5012 16.0731 12.4349 16.1966 12.3823 16.3209C11.8476 16.9976 11.5626 17.8563 11.7491 18.7277C12.2284 20.9497 12.7158 23.1808 13.4148 25.3465C13.6721 26.1435 14.2748 26.7308 15.0041 27.0739C15.0699 27.1311 15.1394 27.1869 15.2174 27.2404C18.8709 29.7289 22.6687 31.9822 26.6979 33.8126C29.0034 34.8587 30.5161 31.232 28.2101 30.1864C25.6754 29.0372 23.2478 27.7106 20.8923 26.2579C23.6322 25.317 26.3339 24.2782 28.9649 23.0528C31.2541 21.9858 29.8117 18.3315 27.5148 19.4021Z" fill="#880015"/>
<path d="M13.8459 13.1168C14.9837 11.6658 14.7286 9.5668 13.2763 8.42992C11.8236 7.29349 9.72634 7.54855 8.58992 9.00041C7.45213 10.4518 7.70809 12.5499 9.15949 13.6873C10.6113 14.8246 12.7099 14.5686 13.8459 13.1168Z" fill="#880015"/>
</g>
<defs>
<clipPath id="clip0_115_93">
<rect width="28" height="28" fill="white" transform="translate(5 6)"/>
</clipPath>
</defs>
</svg>
