<svg width="40" height="40" viewBox="0 0 40 40" fill="none" xmlns="http://www.w3.org/2000/svg">
<circle cx="20" cy="20" r="19.2" fill="white" stroke="black" stroke-width="0.4"/>
<path d="M27.9414 17.8813C27.9398 17.877 27.938 17.8726 27.9363 17.8684C27.8493 17.6571 27.6457 17.5208 27.4173 17.5208C27.4171 17.5208 27.4168 17.5208 27.4166 17.5208C27.188 17.5211 26.9844 17.658 26.8978 17.8696C26.8964 17.8731 26.8949 17.8766 26.8936 17.8803L25.3611 21.904C25.2689 22.1459 25.3904 22.4168 25.6323 22.5089C25.6872 22.5299 25.7436 22.5398 25.7991 22.5398C25.9879 22.5398 26.1659 22.4248 26.2372 22.2378L26.5039 21.5375H28.3191L28.5829 22.2364C28.6743 22.4786 28.9449 22.6009 29.1869 22.5094C29.4291 22.4181 29.5514 22.1476 29.4599 21.9054L27.9414 17.8813ZM26.861 20.5999L27.4157 19.1435L27.9653 20.5999H26.861Z" fill="#7092BE"/>
<path d="M10.9786 21.5382C10.9776 21.5382 10.9768 21.5382 10.9759 21.5382C10.6444 21.5401 10.2885 21.5414 10.0181 21.5417V17.9291C10.0181 17.6702 9.80831 17.4604 9.54938 17.4604C9.29044 17.4604 9.08063 17.6702 9.08063 17.9291V22.007C9.08063 22.2352 9.24506 22.4303 9.46994 22.469C9.5035 22.4748 9.53075 22.4794 9.98169 22.4794C10.1996 22.4794 10.5167 22.4784 10.9811 22.4757C11.24 22.4743 11.4488 22.2632 11.4473 22.0044C11.4458 21.7464 11.2362 21.5382 10.9786 21.5382Z" fill="#7092BE"/>
<path d="M14.0848 21.5382C14.0839 21.5382 14.083 21.5382 14.0821 21.5382C13.7507 21.5401 13.3948 21.5414 13.1244 21.5417V17.9291C13.1244 17.6702 12.9146 17.4604 12.6556 17.4604C12.3967 17.4604 12.1869 17.6702 12.1869 17.9291V22.007C12.1869 22.2352 12.3513 22.4303 12.5762 22.469C12.6098 22.4748 12.637 22.4794 13.088 22.4794C13.3059 22.4794 13.623 22.4784 14.0874 22.4757C14.3463 22.4743 14.555 22.2632 14.5535 22.0044C14.5521 21.7464 14.3425 21.5382 14.0848 21.5382Z" fill="#7092BE"/>
<path d="M32.5215 21.5382C32.5206 21.5382 32.5197 21.5382 32.5188 21.5382C32.1874 21.5401 31.8314 21.5414 31.5611 21.5417V17.9291C31.5611 17.6702 31.3513 17.4604 31.0923 17.4604C30.8334 17.4604 30.6236 17.6702 30.6236 17.9291V22.007C30.6236 22.2352 30.788 22.4303 31.0129 22.469C31.0464 22.4748 31.0737 22.4794 31.5246 22.4794C31.7426 22.4794 32.0596 22.4784 32.5241 22.4757C32.7829 22.4743 32.9917 22.2632 32.9902 22.0044C32.9887 21.7464 32.7792 21.5382 32.5215 21.5382Z" fill="#7092BE"/>
<path d="M7.47858 17.4604C7.21964 17.4604 7.00983 17.6702 7.00983 17.9291V22.0105C7.00983 22.2694 7.21964 22.4792 7.47858 22.4792C7.73751 22.4792 7.94733 22.2694 7.94733 22.0105V17.9291C7.94733 17.6702 7.73751 17.4604 7.47858 17.4604Z" fill="#7092BE"/>
<path d="M17.8575 18.4352C18.1164 18.4352 18.3263 18.2254 18.3263 17.9664C18.3263 17.7075 18.1164 17.4977 17.8575 17.4977H16.1534C15.8945 17.4977 15.6847 17.7075 15.6847 17.9664V22.0105C15.6847 22.2694 15.8945 22.4792 16.1534 22.4792H17.8575C18.1164 22.4792 18.3263 22.2694 18.3263 22.0105C18.3263 21.7516 18.1164 21.5417 17.8575 21.5417H16.6222V20.4572H17.7318C17.9908 20.4572 18.2006 20.2474 18.2006 19.9884C18.2006 19.7295 17.9908 19.5197 17.7318 19.5197H16.6222V18.4351L17.8575 18.4352Z" fill="#7092BE"/>
<path d="M23.7305 19.5011H22.5096C22.2507 19.5011 22.0409 19.7109 22.0409 19.9698C22.0409 20.2288 22.2507 20.4386 22.5096 20.4386H23.2134C23.0904 21.0162 22.7208 21.5418 21.9689 21.5418C21.1022 21.5418 20.3971 20.8366 20.3971 19.9698C20.3971 19.1031 21.1022 18.3979 21.9689 18.3979C22.2839 18.3979 22.5877 18.4907 22.8475 18.6662C23.0621 18.8111 23.3534 18.7547 23.4983 18.5401C23.6432 18.3256 23.5868 18.0343 23.3723 17.8893C22.9569 17.6088 22.4717 17.4604 21.9689 17.4604C20.5853 17.4604 19.4596 18.5862 19.4596 19.9698C19.4596 21.3536 20.5853 22.4793 21.9689 22.4793C23.2821 22.4793 24.1993 21.4473 24.1993 19.9698C24.1993 19.7109 23.9894 19.5011 23.7305 19.5011Z" fill="#7092BE"/>
<path d="M35.0312 15.3896H34.2391C33.3018 12.4985 31.4602 9.90674 29.0243 8.06218C26.4093 6.08199 23.2887 5.03537 20 5.03537C16.4207 5.03537 12.957 6.31924 10.247 8.65056C10.0508 8.81937 10.0286 9.11537 10.1974 9.31162C10.3662 9.50793 10.6623 9.52999 10.8584 9.36124C13.3984 7.17624 16.6449 5.97287 20 5.97287C25.9484 5.97287 31.3074 9.81443 33.2501 15.3896H32.0366C30.1231 10.4214 25.3281 7.10625 20 7.10625C17.1326 7.10625 14.4178 8.02818 12.149 9.77231C11.9243 9.94512 11.7848 10.2066 11.7664 10.4897C11.7479 10.7733 11.8526 11.0511 12.0534 11.2521L16.1909 15.3896H14.5883L11.2521 12.0534C11.0511 11.8526 10.7732 11.7481 10.4898 11.7663C10.2067 11.7847 9.94519 11.9242 9.77238 12.149C9.01119 13.1391 8.40162 14.228 7.95675 15.3896H6.75C7.328 13.7239 8.20694 12.1987 9.36981 10.8489C9.53875 10.6527 9.51675 10.3568 9.32062 10.1878C9.1245 10.0191 8.82856 10.0408 8.6595 10.237C7.34769 11.7597 6.37388 13.4918 5.76081 15.3896H4.96875C4.43456 15.3896 4 15.8241 4 16.3583V23.6416C4 24.1758 4.43456 24.6104 4.96875 24.6104H5.76094C6.69825 27.5014 8.53981 30.0932 10.9757 31.9377C13.5907 33.9179 16.7113 34.9646 20 34.9646C23.2887 34.9646 26.4093 33.9179 29.0243 31.9377C31.4602 30.0932 33.3018 27.5014 34.2391 24.6104H35.0312C35.5654 24.6104 36 24.1758 36 23.6416V16.3583C36 15.8242 35.5654 15.3896 35.0312 15.3896ZM12.7164 10.5891C12.7058 10.5786 12.7009 10.5656 12.7019 10.5506C12.7033 10.5287 12.7162 10.5189 12.7204 10.5156C14.8238 8.89849 17.3411 8.04374 20 8.04374C24.8191 8.04374 29.1684 10.9692 31.0263 15.3896H17.5169L12.7164 10.5891ZM10.5156 12.7204C10.5189 12.7162 10.5287 12.7033 10.5507 12.7019C10.566 12.7007 10.5786 12.7057 10.5891 12.7164L13.2624 15.3896H8.96631C9.36419 14.4381 9.88356 13.5426 10.5156 12.7204ZM20 34.0271C14.0516 34.0271 8.69256 30.1856 6.74988 24.6104H7.96338C9.87694 29.5786 14.6719 32.8937 20 32.8937C22.8674 32.8937 25.5823 31.9718 27.8511 30.2276C28.0758 30.0547 28.2152 29.7932 28.2336 29.5101C28.252 29.2266 28.1474 28.9487 27.9466 28.748L23.8091 24.6105H25.4118L28.7479 27.9467C28.9337 28.1324 29.1851 28.2358 29.4461 28.2358C29.4674 28.2358 29.4889 28.2351 29.5103 28.2337C29.7934 28.2152 30.0549 28.0758 30.2276 27.8511C30.9888 26.8609 31.5984 25.7721 32.0432 24.6105H33.2501C31.3074 30.1856 25.9484 34.0271 20 34.0271ZM26.7377 24.6104H31.0338C30.6359 25.5619 30.1165 26.4574 29.4844 27.2796C29.4812 27.2838 29.4713 27.2967 29.4494 27.2981C29.4347 27.2987 29.4214 27.2942 29.4109 27.2836L26.7377 24.6104ZM35.0625 23.6417C35.0625 23.6589 35.0484 23.6729 35.0312 23.6729H12.541C12.2821 23.6729 12.0723 23.8828 12.0723 24.1417C12.0723 24.4006 12.2821 24.6104 12.541 24.6104H22.4832L27.2837 29.4109C27.2943 29.4215 27.2991 29.4344 27.2981 29.4494C27.2967 29.4713 27.2837 29.4812 27.2796 29.4844C25.1762 31.1015 22.6589 31.9562 20 31.9562C15.1808 31.9562 10.8317 29.0308 8.97369 24.6104H10.3536C10.6125 24.6104 10.8223 24.4006 10.8223 24.1417C10.8223 23.8828 10.6125 23.6729 10.3536 23.6729H4.96875C4.95156 23.6729 4.9375 23.6589 4.9375 23.6417V16.3583C4.9375 16.3411 4.95156 16.3271 4.96875 16.3271H35.0312C35.0484 16.3271 35.0625 16.3411 35.0625 16.3583V23.6417Z" fill="#7092BE"/>
</svg>
