<svg width="40" height="40" viewBox="0 0 40 40" fill="none" xmlns="http://www.w3.org/2000/svg">
<circle cx="20" cy="20" r="19.2" fill="white" stroke="black" stroke-width="0.4"/>
<g clip-path="url(#clip0_115_78)">
<path d="M30.6916 7.56143C30.6275 7.30269 30.429 7.09849 30.1722 7.02711C29.9154 6.95567 29.6399 7.02808 29.4515 7.21661L15.3481 21.3199L20.7873 26.7592L27.112 20.4344C28.7641 18.7824 29.9682 16.7194 30.594 14.4685C31.22 12.2175 31.2537 9.82911 30.6916 7.56143Z" fill="#7092BE"/>
<path d="M14.3026 22.3653L8.5807 28.0873C7.6868 28.9812 7.6868 30.4357 8.5807 31.3296C9.02767 31.7765 9.61478 32 10.2018 32C10.7889 32 11.3761 31.7765 11.823 31.3296L17.545 25.6076L14.3026 22.3653Z" fill="#7092BE"/>
</g>
<defs>
<clipPath id="clip0_115_78">
<rect width="25" height="25" fill="white" transform="translate(7 7)"/>
</clipPath>
</defs>
</svg>
