<svg width="40" height="40" viewBox="0 0 40 40" fill="none" xmlns="http://www.w3.org/2000/svg">
<circle cx="20" cy="20" r="19.2" fill="white" stroke="black" stroke-width="0.4"/>
<path fill-rule="evenodd" clip-rule="evenodd" d="M12.2206 25.4228C12.1619 25.3757 12.089 25.35 12.0138 25.35H6.29999C5.38873 25.35 4.64999 24.6113 4.64999 23.7V17.1C4.64999 16.1888 5.38873 15.45 6.29999 15.45H12.0138C12.089 15.45 12.1619 15.4244 12.2206 15.3773L21.7664 7.70646C22.8462 6.83878 24.45 7.60742 24.45 8.99263V31.8074C24.45 33.1926 22.8462 33.9613 21.7664 33.0936L12.2206 25.4228Z" fill="#7092BE"/>
<path fill-rule="evenodd" clip-rule="evenodd" d="M26.1 32.0244C26.1 31.9066 26.163 31.798 26.2641 31.7375C30.1189 29.4328 32.7 25.2178 32.7 20.4C32.7 15.5141 30.0455 11.2483 26.1 8.96596V7.62613C26.1 7.38117 26.3572 7.22233 26.5725 7.33916C31.2049 9.8529 34.35 14.7592 34.35 20.4C34.35 26.0409 31.2049 30.9472 26.5725 33.4609C26.3572 33.5777 26.1 33.4189 26.1 33.1739V32.0244Z" fill="#7092BE"/>
<path fill-rule="evenodd" clip-rule="evenodd" d="M26.1 27.9267C26.1 27.8328 26.1402 27.7436 26.2092 27.68C28.1711 25.871 29.4 23.279 29.4 20.4C29.4 17.521 28.1711 14.9291 26.2092 13.1201C26.1402 13.0564 26.1 12.9672 26.1 12.8734V11.5528C26.1 11.2861 26.3986 11.1318 26.6087 11.2961C29.3122 13.4101 31.05 16.7021 31.05 20.4C31.05 24.0979 29.3122 27.3899 26.6087 29.5039C26.3986 29.6682 26.1 29.514 26.1 29.2473V27.9267Z" fill="#7092BE"/>
<path fill-rule="evenodd" clip-rule="evenodd" d="M26.1 24.3622C26.1 24.6792 26.4864 24.8012 26.6452 24.5269C27.3478 23.313 27.75 21.9035 27.75 20.4C27.75 18.8966 27.3478 17.4871 26.6452 16.2732C26.4864 15.9988 26.1 16.1208 26.1 16.4378V24.3622Z" fill="#7092BE"/>
</svg>
