<svg width="40" height="40" viewBox="0 0 40 40" fill="none" xmlns="http://www.w3.org/2000/svg">
<circle cx="20" cy="20" r="19.2" fill="white" stroke="black" stroke-width="0.4"/>
<path d="M28.6951 16.3994C28.6373 16.2971 28.5535 16.2121 28.4523 16.1529C28.351 16.0937 28.2359 16.0625 28.1186 16.0625H19.4381L20.8934 4.91028C20.9091 4.76102 20.8741 4.61084 20.7943 4.48391C20.7145 4.35698 20.5944 4.26069 20.4533 4.21054C20.3123 4.16039 20.1585 4.1593 20.0168 4.20745C19.8751 4.2556 19.7537 4.35018 19.672 4.47597L9.11561 23.0248C9.05388 23.1255 9.02005 23.2409 9.0176 23.3591C9.01515 23.4773 9.04418 23.594 9.10169 23.6972C9.1592 23.8004 9.24311 23.8863 9.34476 23.9461C9.44642 24.0059 9.56215 24.0375 9.68001 24.0375H18.2308L17.0775 35.2065C17.0662 35.3552 17.1048 35.5035 17.1871 35.6277C17.2695 35.7519 17.3909 35.8449 17.5321 35.8919C17.6732 35.9389 17.826 35.9372 17.9661 35.8871C18.1062 35.837 18.2256 35.7413 18.3052 35.6154L28.6872 17.0685C28.7474 16.9676 28.7798 16.8526 28.7812 16.735C28.7826 16.6175 28.7529 16.5017 28.6951 16.3994Z" fill="#FFC90E"/>
</svg>
