<svg width="17" height="31" viewBox="0 0 17 31" fill="none" xmlns="http://www.w3.org/2000/svg">
<path d="M6.5625 19.3242V28.5234L7.85156 30.457C8.08594 30.8672 8.73047 30.8672 8.96484 30.457L10.3125 28.5234V19.3242C9.66797 19.4414 9.02344 19.5 8.4375 19.5C7.79297 19.5 7.14844 19.4414 6.5625 19.3242ZM8.4375 0.75C3.75 0.75 0 4.55859 0 9.1875C0 13.875 3.75 17.625 8.4375 17.625C13.0664 17.625 16.875 13.875 16.875 9.1875C16.875 4.55859 13.0664 0.75 8.4375 0.75ZM8.4375 5.20312C6.21094 5.20312 4.45312 7.01953 4.45312 9.1875C4.45312 9.59766 4.10156 9.89062 3.75 9.89062C3.33984 9.89062 3.04688 9.59766 3.04688 9.1875C3.04688 6.25781 5.44922 3.79688 8.4375 3.79688C8.78906 3.79688 9.14062 4.14844 9.14062 4.5C9.14062 4.91016 8.78906 5.20312 8.4375 5.20312Z" fill="#1890FF"/>
</svg>
