<svg width="30" height="30" viewBox="0 0 30 30" fill="none" xmlns="http://www.w3.org/2000/svg">
<g clip-path="url(#clip0_29_17)">
<g clip-path="url(#clip1_29_17)">
<path opacity="0.1" d="M15 5C20.5228 5 25 9.47715 25 15C25 20.5228 20.5228 25 15 25C9.47715 25 5 20.5228 5 15C5 9.47715 9.47715 5 15 5Z" fill="#1890FF"/>
<g filter="url(#filter0_d_29_17)">
<path d="M15 8.33335C18.6819 8.33335 21.6667 11.3181 21.6667 15C21.6667 18.6819 18.6819 21.6667 15 21.6667C11.3181 21.6667 8.33333 18.6819 8.33333 15C8.33333 11.3181 11.3181 8.33335 15 8.33335Z" fill="#0F69BD"/>
<path d="M15 9.58335C17.9915 9.58335 20.4167 12.0085 20.4167 15C20.4167 17.9916 17.9915 20.4167 15 20.4167C12.0085 20.4167 9.58333 17.9916 9.58333 15C9.58333 12.0085 12.0085 9.58335 15 9.58335Z" stroke="white" stroke-width="3"/>
</g>
</g>
</g>
<defs>
<filter id="filter0_d_29_17" x="-1.91667" y="3.08337" width="33.8333" height="33.8333" filterUnits="userSpaceOnUse" color-interpolation-filters="sRGB">
<feFlood flood-opacity="0" result="BackgroundImageFix"/>
<feColorMatrix in="SourceAlpha" type="matrix" values="0 0 0 0 0 0 0 0 0 0 0 0 0 0 0 0 0 0 127 0" result="hardAlpha"/>
<feOffset dy="5"/>
<feGaussianBlur stdDeviation="5"/>
<feColorMatrix type="matrix" values="0 0 0 0 0.0745098 0 0 0 0 0.0941176 0 0 0 0 0.309804 0 0 0 0.15 0"/>
<feBlend mode="normal" in2="BackgroundImageFix" result="effect1_dropShadow_29_17"/>
<feBlend mode="normal" in="SourceGraphic" in2="effect1_dropShadow_29_17" result="shape"/>
</filter>
<clipPath id="clip0_29_17">
<rect width="30" height="30" fill="white"/>
</clipPath>
<clipPath id="clip1_29_17">
<rect width="30" height="30" fill="white"/>
</clipPath>
</defs>
</svg>
