<svg width="38" height="38" viewBox="0 0 38 38" fill="none" xmlns="http://www.w3.org/2000/svg">
<circle cx="19" cy="19" r="19" fill="#68C2C5"/>
<path d="M33.189 23.014L32.634 25.16C32.486 25.678 32.227 26.122 31.82 26.492C31.709 26.603 31.561 26.714 31.413 26.825L30.747 29.23C30.71 29.415 30.599 29.6 30.488 29.748C30.118 30.229 29.526 30.414 28.934 30.266L27.491 29.896C26.714 29.674 26.233 28.86 26.455 28.083L26.825 26.64L15.392 23.569L15.022 25.012C14.8 25.789 13.986 26.27 13.209 26.048L11.766 25.678C11.174 25.53 10.767 25.012 10.693 24.457C10.656 24.272 10.693 24.05 10.73 23.865L11.359 21.46C11.285 21.312 11.211 21.127 11.174 20.979C11.026 20.461 11.026 19.906 11.137 19.388L11.692 17.242C11.914 16.354 12.543 15.651 13.394 15.281C13.653 15.17 13.949 15.096 14.245 15.059L15.096 13.949L16.576 11.951C16.724 11.729 16.909 11.544 17.094 11.359C17.464 10.989 17.871 10.693 18.315 10.471C18.537 10.36 18.759 10.249 19.018 10.175C19.499 10.027 19.98 9.916 20.498 9.916C21.016 9.879 21.534 9.953 22.052 10.101L27.713 11.618C28.231 11.766 28.712 11.951 29.156 12.21C30.488 13.024 31.339 14.43 31.524 15.984L31.82 18.463L31.968 19.869C32.449 20.202 32.819 20.683 33.004 21.238C33.337 21.793 33.337 22.422 33.189 23.014ZM15.54 17.501C14.8 17.242 14.023 17.649 13.764 18.389C13.764 18.426 13.727 18.5 13.727 18.537C13.468 19.277 13.875 20.054 14.615 20.313C14.652 20.313 14.726 20.35 14.763 20.35C15.614 20.572 16.872 21.053 17.094 20.202C17.316 19.351 16.391 17.723 15.54 17.501ZM28.971 18.796L28.675 16.317C28.638 16.095 28.564 15.873 28.49 15.688C28.231 15.059 27.676 14.615 27.047 14.467L21.349 12.95C20.461 12.728 19.536 13.024 18.981 13.764L17.501 15.762L25.456 17.908L28.971 18.796ZM29.822 21.312C28.971 21.09 27.343 22.015 27.121 22.866C26.899 23.717 28.231 23.939 29.082 24.161C29.859 24.457 30.71 24.05 30.969 23.273C31.228 22.496 30.858 21.645 30.081 21.386C30.007 21.349 29.896 21.349 29.822 21.312Z" fill="white"/>
<path d="M10.323 16.872L9.731 19.018C9.583 19.536 9.546 20.091 9.62 20.609L7.992 21.941C7.807 22.089 7.548 22.052 7.4 21.867C7.326 21.756 7.289 21.645 7.326 21.534L8.029 17.982C8.066 17.76 7.918 17.538 7.696 17.501H7.659L4.07 17.168C3.848 17.131 3.663 16.946 3.7 16.724C3.7 16.613 3.774 16.502 3.885 16.428L6.882 14.43C7.067 14.282 7.141 14.023 6.993 13.838C6.993 13.838 6.993 13.801 6.956 13.801L4.662 11.026C4.514 10.841 4.551 10.582 4.736 10.434C4.847 10.36 4.958 10.323 5.069 10.36L8.621 11.063C8.843 11.1 9.065 10.952 9.102 10.73V10.693L9.435 7.067C9.472 6.845 9.657 6.66 9.879 6.697C9.99 6.697 10.101 6.771 10.175 6.882L12.173 9.879C12.284 10.064 12.543 10.138 12.765 9.99C12.765 9.99 12.802 9.99 12.802 9.953L15.577 7.659C15.762 7.511 16.021 7.548 16.169 7.733C16.243 7.844 16.28 7.955 16.243 8.066L15.725 10.656C15.614 10.804 15.466 10.952 15.355 11.1L13.875 13.098L13.394 13.764C11.951 14.134 10.73 15.355 10.323 16.872Z" fill="white"/>
</svg>
