<svg width="38" height="38" viewBox="0 0 38 38" fill="none" xmlns="http://www.w3.org/2000/svg">
<circle cx="19" cy="19" r="19" fill="#4166BE"/>
<g clip-path="url(#clip0_134_60)">
<path d="M15.1002 8.5C15.1002 7.57174 15.4584 6.6815 16.096 6.02513C16.7337 5.36875 17.5985 5 18.5002 5C19.4019 5 20.2667 5.36875 20.9044 6.02513C21.542 6.6815 21.9002 7.57174 21.9002 8.5C21.9002 9.42826 21.542 10.3185 20.9044 10.9749C20.2667 11.6313 19.4019 12 18.5002 12C17.5985 12 16.7337 11.6313 16.096 10.9749C15.4584 10.3185 15.1002 9.42826 15.1002 8.5ZM17.6502 26V31.25C17.6502 32.218 16.8905 33 15.9502 33C15.0099 33 14.2502 32.218 14.2502 31.25V20.7391L13.1399 22.5547C12.6405 23.375 11.5886 23.6156 10.7971 23.1016C10.0055 22.5875 9.76114 21.5102 10.2605 20.6953L12.3802 17.2336C13.703 15.0625 16.014 13.75 18.5002 13.75C20.9865 13.75 23.2974 15.0625 24.6202 17.2281L26.7399 20.6953C27.2393 21.5156 27.0002 22.593 26.2086 23.107C25.4171 23.6211 24.3652 23.375 23.8658 22.5602L22.7502 20.7391V31.25C22.7502 32.218 21.9905 33 21.0502 33C20.1099 33 19.3502 32.218 19.3502 31.25V26H17.6502Z" fill="white"/>
</g>
<defs>
<clipPath id="clip0_134_60">
<rect width="17" height="28" fill="white" transform="translate(10 5)"/>
</clipPath>
</defs>
</svg>
