<svg width="38" height="38" viewBox="0 0 38 38" fill="none" xmlns="http://www.w3.org/2000/svg">
<circle cx="19" cy="19" r="19" fill="#22B14C"/>
<g clip-path="url(#clip0_134_49)">
<path d="M26.9627 7.072L10.4747 13.6667H6C4.34667 13.6667 3 15.0133 3 16.6667V20.3333C3 21.904 4.23333 23 6 23H7.13333L8.344 31.4747C8.41467 31.968 8.836 32.3333 9.33333 32.3333H13.3333C13.6187 32.3333 13.8893 32.212 14.08 32C14.2693 31.788 14.36 31.5053 14.328 31.2213L13.5413 24.2267L26.9613 29.5947C27.0827 29.6427 27.208 29.6667 27.3333 29.6667C27.5293 29.6667 27.7267 29.608 27.8947 29.4947C28.1693 29.308 28.3333 28.9987 28.3333 28.6667V8C28.3333 7.668 28.1693 7.35867 27.8947 7.172C27.6187 6.98533 27.2693 6.948 26.9627 7.072Z" fill="white"/>
<path d="M31.292 15.448L34.6253 12.7813C35.056 12.436 35.1267 11.8067 34.7813 11.3747C34.4347 10.9453 33.8067 10.876 33.3747 11.2187L30.0413 13.8853C29.6107 14.2307 29.54 14.86 29.8853 15.292C30.0827 15.5373 30.3733 15.6667 30.6667 15.6667C30.8867 15.6667 31.1067 15.5947 31.292 15.448Z" fill="white"/>
<path d="M31.292 22.552C30.8627 22.2093 30.2333 22.2787 29.8853 22.708C29.54 23.1387 29.6107 23.7693 30.0413 24.1147L33.3747 26.7813C33.56 26.928 33.78 27 34 27C34.2933 27 34.584 26.8707 34.7813 26.6253C35.1267 26.1947 35.056 25.564 34.6253 25.2187L31.292 22.552Z" fill="white"/>
<path d="M34 18H30.6667C30.1147 18 29.6667 18.448 29.6667 19C29.6667 19.552 30.1147 20 30.6667 20H34C34.552 20 35 19.552 35 19C35 18.448 34.552 18 34 18Z" fill="white"/>
</g>
<defs>
<clipPath id="clip0_134_49">
<rect width="32" height="32" fill="white" transform="translate(3 3)"/>
</clipPath>
</defs>
</svg>
