<svg width="38" height="38" viewBox="0 0 38 38" fill="none" xmlns="http://www.w3.org/2000/svg">
<circle cx="19" cy="19" r="19" fill="#DF5900"/>
<g clip-path="url(#clip0_134_81)">
<path d="M30.1859 21.5646C29.8422 17.0904 27.7591 14.2867 25.9214 11.8125C24.2197 9.52193 22.75 7.54392 22.75 4.62607C22.75 4.3917 22.6188 4.17748 22.4106 4.07007C22.2019 3.96203 21.951 3.97972 21.7612 4.11765C19.0012 6.09261 16.6984 9.42127 15.8939 12.5973C15.3355 14.8084 15.2616 17.2942 15.2512 18.936C12.7024 18.3916 12.125 14.579 12.1189 14.5374C12.0902 14.3397 11.9694 14.1676 11.7936 14.0736C11.616 13.9809 11.4072 13.9741 11.2272 14.0632C11.0935 14.1279 7.94652 15.727 7.76342 22.1114C7.75059 22.3238 7.75 22.5368 7.75 22.7498C7.75 28.9524 12.797 33.9991 19 33.9991C19.0086 33.9996 19.0177 34.0009 19.025 33.9991C19.0275 33.9991 19.0299 33.9991 19.0329 33.9991C25.2207 33.9813 30.25 28.9414 30.25 22.7498C30.25 22.4379 30.1859 21.5646 30.1859 21.5646ZM19 32.7491C16.9321 32.7491 15.25 30.9573 15.25 28.7547C15.25 28.6796 15.2494 28.6039 15.2549 28.5112C15.2799 27.5823 15.4563 26.9482 15.6498 26.5264C16.0124 27.3052 16.6605 28.0211 17.7134 28.0211C18.0589 28.0211 18.3384 27.7415 18.3384 27.3961C18.3384 26.5063 18.3568 25.4798 18.5783 24.5533C18.7755 23.7318 19.2466 22.8578 19.8436 22.1572C20.1091 23.0666 20.6267 23.8026 21.1321 24.5209C21.8553 25.5487 22.603 26.6113 22.7342 28.4233C22.7421 28.5307 22.7501 28.6387 22.7501 28.7547C22.75 30.9572 21.0679 32.7491 19 32.7491Z" fill="white"/>
</g>
<defs>
<clipPath id="clip0_134_81">
<rect width="30" height="30" fill="white" transform="translate(4 4)"/>
</clipPath>
</defs>
</svg>
