<svg width="38" height="38" viewBox="0 0 38 38" fill="none" xmlns="http://www.w3.org/2000/svg">
<circle cx="19" cy="19" r="19" fill="#2FC0FF"/>
<path d="M31.25 19.9087C30.7389 19.9104 30.2334 20.0153 29.7638 20.2171C29.2942 20.4188 28.8702 20.7133 28.5172 21.0829C28.3361 21.3021 28.1089 21.4785 27.8517 21.5997C27.5945 21.7208 27.3137 21.7836 27.0294 21.7836C26.7451 21.7836 26.4643 21.7208 26.2071 21.5997C25.9499 21.4785 25.7226 21.3021 25.5416 21.0829C25.1897 20.7119 24.766 20.4165 24.2962 20.2146C23.8265 20.0127 23.3205 19.9086 22.8092 19.9086C22.2979 19.9086 21.792 20.0127 21.3222 20.2146C20.8525 20.4165 20.4287 20.7119 20.0769 21.0829C19.896 21.302 19.669 21.4785 19.412 21.5996C19.155 21.7207 18.8744 21.7836 18.5902 21.7836C18.3061 21.7836 18.0255 21.7207 17.7685 21.5996C17.5115 21.4785 17.2844 21.302 17.1036 21.0829C16.7518 20.712 16.3282 20.4165 15.8585 20.2147C15.3888 20.0128 14.8829 19.9087 14.3717 19.9087C13.8605 19.9087 13.3546 20.0128 12.8849 20.2147C12.4153 20.4165 11.9916 20.712 11.6398 21.0829C11.4592 21.302 11.2324 21.4784 10.9756 21.5995C10.7187 21.7207 10.4383 21.7835 10.1544 21.7835C9.87043 21.7835 9.59 21.7207 9.33318 21.5995C9.07637 21.4784 8.84952 21.302 8.66891 21.0829C8.3163 20.7131 7.89256 20.4185 7.42317 20.2167C6.95378 20.0149 6.44843 19.9102 5.9375 19.9087C5.68886 19.9087 5.4504 20.0075 5.27459 20.1833C5.09877 20.3591 5 20.5975 5 20.8462C5 21.0948 5.09877 21.3333 5.27459 21.5091C5.4504 21.6849 5.68886 21.7837 5.9375 21.7837C6.22083 21.7871 6.50011 21.8514 6.7564 21.9723C7.0127 22.0931 7.24002 22.2676 7.42297 22.484C7.77464 22.855 8.19819 23.1504 8.66779 23.3523C9.13739 23.5542 9.64321 23.6584 10.1544 23.6584C10.6655 23.6584 11.1714 23.5542 11.641 23.3523C12.1106 23.1504 12.5341 22.855 12.8858 22.484C13.0665 22.2648 13.2934 22.0883 13.5504 21.9671C13.8073 21.8459 14.0879 21.7831 14.372 21.7831C14.656 21.7831 14.9366 21.8459 15.1935 21.9671C15.4505 22.0883 15.6774 22.2648 15.8581 22.484C16.21 22.855 16.6337 23.1504 17.1035 23.3523C17.5732 23.5542 18.0792 23.6583 18.5905 23.6583C19.1018 23.6583 19.6077 23.5542 20.0775 23.3523C20.5472 23.1504 20.9709 22.855 21.3228 22.484C21.5037 22.2648 21.7308 22.0884 21.9878 21.9673C22.2449 21.8461 22.5255 21.7833 22.8097 21.7833C23.0938 21.7833 23.3745 21.8461 23.6315 21.9673C23.8886 22.0884 24.1157 22.2648 24.2966 22.484C24.6485 22.8549 25.0724 23.1503 25.5422 23.3522C26.012 23.554 26.518 23.6582 27.0294 23.6582C27.5407 23.6582 28.0467 23.554 28.5166 23.3522C28.9864 23.1503 29.4102 22.8549 29.7622 22.484C29.9455 22.2675 30.1732 22.0929 30.4299 21.972C30.6866 21.8512 30.9663 21.787 31.25 21.7837C31.4986 21.7837 31.7371 21.6849 31.9129 21.5091C32.0887 21.3333 32.1875 21.0948 32.1875 20.8462C32.1875 20.5975 32.0887 20.3591 31.9129 20.1833C31.7371 20.0075 31.4986 19.9087 31.25 19.9087Z" fill="white"/>
<path d="M31.25 24.1274C30.7389 24.1291 30.2334 24.234 29.7638 24.4358C29.2942 24.6376 28.8702 24.9321 28.5172 25.3017C28.3361 25.5208 28.1089 25.6973 27.8517 25.8184C27.5945 25.9396 27.3137 26.0024 27.0294 26.0024C26.7451 26.0024 26.4643 25.9396 26.2071 25.8184C25.9499 25.6973 25.7226 25.5208 25.5416 25.3017C25.1897 24.9307 24.766 24.6352 24.2962 24.4334C23.8265 24.2315 23.3205 24.1273 22.8092 24.1273C22.2979 24.1273 21.792 24.2315 21.3222 24.4334C20.8525 24.6352 20.4287 24.9307 20.0769 25.3017C19.896 25.5208 19.669 25.6972 19.412 25.8184C19.155 25.9395 18.8744 26.0023 18.5902 26.0023C18.3061 26.0023 18.0255 25.9395 17.7685 25.8184C17.5115 25.6972 17.2844 25.5208 17.1036 25.3017C16.7518 24.9307 16.3282 24.6353 15.8585 24.4334C15.3888 24.2315 14.8829 24.1274 14.3717 24.1274C13.8605 24.1274 13.3546 24.2315 12.8849 24.4334C12.4153 24.6353 11.9916 24.9307 11.6398 25.3017C11.4592 25.5207 11.2324 25.6972 10.9756 25.8183C10.7187 25.9394 10.4383 26.0022 10.1544 26.0022C9.87043 26.0022 9.59 25.9394 9.33318 25.8183C9.07637 25.6972 8.84952 25.5207 8.66891 25.3017C8.3163 24.9319 7.89256 24.6373 7.42317 24.4355C6.95378 24.2337 6.44843 24.1289 5.9375 24.1274C5.68886 24.1274 5.4504 24.2262 5.27459 24.402C5.09877 24.5778 5 24.8163 5 25.0649C5 25.3136 5.09877 25.552 5.27459 25.7278C5.4504 25.9037 5.68886 26.0024 5.9375 26.0024C6.22083 26.0059 6.50011 26.0702 6.7564 26.191C7.0127 26.3119 7.24002 26.4864 7.42297 26.7027C7.77464 27.0737 8.19819 27.3692 8.66779 27.5711C9.13739 27.773 9.64321 27.8771 10.1544 27.8771C10.6655 27.8771 11.1714 27.773 11.641 27.5711C12.1106 27.3692 12.5341 27.0737 12.8858 26.7027C13.0665 26.4836 13.2934 26.307 13.5504 26.1859C13.8073 26.0647 14.0879 26.0019 14.372 26.0019C14.656 26.0019 14.9366 26.0647 15.1935 26.1859C15.4505 26.307 15.6774 26.4836 15.8581 26.7027C16.21 27.0737 16.6337 27.3691 17.1035 27.571C17.5732 27.7729 18.0792 27.877 18.5905 27.877C19.1018 27.877 19.6077 27.7729 20.0775 27.571C20.5472 27.3691 20.9709 27.0737 21.3228 26.7027C21.5037 26.4836 21.7308 26.3071 21.9878 26.186C22.2449 26.0649 22.5255 26.0021 22.8097 26.0021C23.0938 26.0021 23.3745 26.0649 23.6315 26.186C23.8886 26.3071 24.1157 26.4836 24.2966 26.7027C24.6485 27.0737 25.0724 27.3691 25.5422 27.5709C26.012 27.7728 26.518 27.8769 27.0294 27.8769C27.5407 27.8769 28.0467 27.7728 28.5166 27.5709C28.9864 27.3691 29.4102 27.0737 29.7622 26.7027C29.9455 26.4862 30.1732 26.3116 30.4299 26.1908C30.6866 26.07 30.9663 26.0057 31.25 26.0024C31.4986 26.0024 31.7371 25.9037 31.9129 25.7278C32.0887 25.552 32.1875 25.3136 32.1875 25.0649C32.1875 24.8163 32.0887 24.5778 31.9129 24.402C31.7371 24.2262 31.4986 24.1274 31.25 24.1274Z" fill="white"/>
<path d="M5.9375 12.8774C6.22083 12.8809 6.50011 12.9452 6.7564 13.066C7.0127 13.1868 7.24002 13.3614 7.42297 13.5777C7.77464 13.9487 8.19819 14.2442 8.66779 14.4461C9.13739 14.648 9.64321 14.7521 10.1544 14.7521C10.6655 14.7521 11.1714 14.648 11.641 14.4461C12.1106 14.2442 12.5341 13.9487 12.8858 13.5777C13.0665 13.3585 13.2934 13.182 13.5504 13.0609C13.8073 12.9397 14.0879 12.8769 14.372 12.8769C14.656 12.8769 14.9366 12.9397 15.1935 13.0609C15.4505 13.182 15.6774 13.3585 15.8581 13.5777C16.21 13.9487 16.6337 14.2441 17.1035 14.446C17.5732 14.6479 18.0792 14.752 18.5905 14.752C19.1018 14.752 19.6077 14.6479 20.0775 14.446C20.5472 14.2441 20.9709 13.9487 21.3228 13.5777C21.5037 13.3586 21.7308 13.1821 21.9878 13.061C22.2449 12.9399 22.5255 12.8771 22.8097 12.8771C23.0938 12.8771 23.3745 12.9399 23.6315 13.061C23.8886 13.1821 24.1157 13.3586 24.2966 13.5777C24.6485 13.9487 25.0724 14.2441 25.5422 14.4459C26.012 14.6478 26.518 14.7519 27.0294 14.7519C27.5407 14.7519 28.0467 14.6478 28.5166 14.4459C28.9864 14.2441 29.4102 13.9487 29.7622 13.5777C29.9455 13.3612 30.1732 13.1866 30.4299 13.0658C30.6866 12.945 30.9663 12.8807 31.25 12.8774C31.4986 12.8774 31.7371 12.7787 31.9129 12.6028C32.0887 12.427 32.1875 12.1886 32.1875 11.9399C32.1875 11.6913 32.0887 11.4528 31.9129 11.277C31.7371 11.1012 31.4986 11.0024 31.25 11.0024C30.7391 11.0038 30.2337 11.1084 29.7641 11.3097C29.2945 11.5111 28.8704 11.8051 28.5172 12.1743C28.3361 12.3935 28.1089 12.5699 27.8517 12.6911C27.5945 12.8122 27.3137 12.875 27.0294 12.875C26.7451 12.875 26.4643 12.8122 26.2071 12.6911C25.9499 12.5699 25.7226 12.3935 25.5416 12.1743C25.1897 11.8033 24.766 11.5079 24.2962 11.306C23.8265 11.1041 23.3205 11 22.8092 11C22.2979 11 21.792 11.1041 21.3222 11.306C20.8525 11.5079 20.4287 11.8033 20.0769 12.1743C19.896 12.3934 19.669 12.5699 19.412 12.691C19.155 12.8121 18.8744 12.875 18.5902 12.875C18.3061 12.875 18.0255 12.8121 17.7685 12.691C17.5115 12.5699 17.2844 12.3934 17.1036 12.1743C16.7518 11.8034 16.3282 11.5079 15.8585 11.3061C15.3888 11.1042 14.8829 11.0001 14.3717 11.0001C13.8605 11.0001 13.3546 11.1042 12.8849 11.3061C12.4153 11.5079 11.9916 11.8034 11.6398 12.1743C11.4592 12.3934 11.2324 12.5698 10.9756 12.6909C10.7187 12.8121 10.4383 12.8749 10.1544 12.8749C9.87043 12.8749 9.59 12.8121 9.33318 12.6909C9.07637 12.5698 8.84952 12.3934 8.66891 12.1743C8.3161 11.805 7.89227 11.5108 7.42289 11.3094C6.95351 11.108 6.44826 11.0036 5.9375 11.0024C5.68886 11.0024 5.4504 11.1012 5.27459 11.277C5.09877 11.4528 5 11.6913 5 11.9399C5 12.1886 5.09877 12.427 5.27459 12.6028C5.4504 12.7787 5.68886 12.8774 5.9375 12.8774Z" fill="white"/>
<path d="M31.25 15.2212C30.7391 15.2226 30.2337 15.3271 29.7641 15.5285C29.2945 15.7298 28.8704 16.0239 28.5172 16.3931C28.3361 16.6122 28.1089 16.7887 27.8517 16.9098C27.5945 17.031 27.3137 17.0938 27.0294 17.0938C26.7451 17.0938 26.4643 17.031 26.2071 16.9098C25.9499 16.7887 25.7226 16.6122 25.5416 16.3931C25.1897 16.0221 24.766 15.7266 24.2962 15.5248C23.8265 15.3229 23.3205 15.2188 22.8092 15.2188C22.2979 15.2188 21.792 15.3229 21.3222 15.5248C20.8525 15.7266 20.4287 16.0221 20.0769 16.3931C19.896 16.6122 19.669 16.7886 19.412 16.9098C19.155 17.0309 18.8744 17.0937 18.5902 17.0937C18.3061 17.0937 18.0255 17.0309 17.7685 16.9098C17.5115 16.7886 17.2844 16.6122 17.1036 16.3931C16.7518 16.0221 16.3282 15.7267 15.8585 15.5248C15.3888 15.3229 14.8829 15.2188 14.3717 15.2188C13.8605 15.2188 13.3546 15.3229 12.8849 15.5248C12.4153 15.7267 11.9916 16.0221 11.6398 16.3931C11.4592 16.6121 11.2324 16.7886 10.9756 16.9097C10.7187 17.0308 10.4383 17.0936 10.1544 17.0936C9.87043 17.0936 9.59 17.0308 9.33318 16.9097C9.07637 16.7886 8.84952 16.6121 8.66891 16.3931C8.3161 16.0237 7.89227 15.7295 7.42289 15.5281C6.95351 15.3268 6.44826 15.2223 5.9375 15.2212C5.68886 15.2212 5.4504 15.3199 5.27459 15.4958C5.09877 15.6716 5 15.91 5 16.1587C5 16.4073 5.09877 16.6458 5.27459 16.8216C5.4504 16.9974 5.68886 17.0962 5.9375 17.0962C6.22083 17.0996 6.50011 17.1639 6.7564 17.2848C7.0127 17.4056 7.24002 17.5801 7.42297 17.7965C7.77464 18.1675 8.19819 18.4629 8.66779 18.6648C9.13739 18.8667 9.64321 18.9709 10.1544 18.9709C10.6655 18.9709 11.1714 18.8667 11.641 18.6648C12.1106 18.4629 12.5341 18.1675 12.8858 17.7965C13.0665 17.5773 13.2934 17.4008 13.5504 17.2796C13.8073 17.1584 14.0879 17.0956 14.372 17.0956C14.656 17.0956 14.9366 17.1584 15.1935 17.2796C15.4505 17.4008 15.6774 17.5773 15.8581 17.7965C16.21 18.1675 16.6337 18.4629 17.1035 18.6648C17.5732 18.8667 18.0792 18.9708 18.5905 18.9708C19.1018 18.9708 19.6077 18.8667 20.0775 18.6648C20.5472 18.4629 20.9709 18.1675 21.3228 17.7965C21.5037 17.5773 21.7308 17.4009 21.9878 17.2798C22.2449 17.1586 22.5255 17.0958 22.8097 17.0958C23.0938 17.0958 23.3745 17.1586 23.6315 17.2798C23.8886 17.4009 24.1157 17.5773 24.2966 17.7965C24.6485 18.1674 25.0724 18.4628 25.5422 18.6647C26.012 18.8665 26.518 18.9706 27.0294 18.9706C27.5407 18.9706 28.0467 18.8665 28.5166 18.6647C28.9864 18.4628 29.4102 18.1674 29.7622 17.7965C29.9455 17.58 30.1732 17.4054 30.4299 17.2845C30.6866 17.1637 30.9663 17.0995 31.25 17.0962C31.4986 17.0962 31.7371 16.9974 31.9129 16.8216C32.0887 16.6458 32.1875 16.4073 32.1875 16.1587C32.1875 15.91 32.0887 15.6716 31.9129 15.4958C31.7371 15.3199 31.4986 15.2212 31.25 15.2212Z" fill="white"/>
</svg>
