<svg width="38" height="38" viewBox="0 0 38 38" fill="none" xmlns="http://www.w3.org/2000/svg">
<circle cx="19" cy="19" r="19" fill="#E366AC"/>
<path d="M25.1086 13.4164C27.8102 13.4164 30.0031 15.6094 30.0031 18.3109V26.7055C30.0031 28.4445 29.2977 30.0141 28.1602 31.157C27.0227 32.2945 25.4477 33 23.7086 33C21.532 33 19.5086 31.8734 18.3602 30.025L15.8828 26.0219L13.2195 31.4578C12.7602 32.3984 11.8031 32.9945 10.7531 32.9945C8.71875 32.9945 7.38985 30.8617 8.28672 29.0352L11.6773 22.1172C12.1805 21.0891 13.0719 20.3125 14.1602 19.9461C15.8938 19.3719 17.7969 19.957 18.9016 21.4117L20.2141 23.1344V18.3109C20.2086 15.6094 22.4016 13.4164 25.1086 13.4164Z" fill="white"/>
<path d="M18.1742 14.2969C20.7415 14.2969 22.8227 12.2157 22.8227 9.64844C22.8227 7.08118 20.7415 5 18.1742 5C15.607 5 13.5258 7.08118 13.5258 9.64844C13.5258 12.2157 15.607 14.2969 18.1742 14.2969Z" fill="white"/>
</svg>
