<svg width="38" height="38" viewBox="0 0 38 38" fill="none" xmlns="http://www.w3.org/2000/svg">
<circle cx="19" cy="19" r="19" fill="#FF6766"/>
<path d="M22.3633 33.0723C23.8867 32.7676 24.877 31.2852 24.5723 29.7617L24.4375 29.0938C24.127 27.5293 23.5527 26.041 22.75 24.6875H31.1875C32.7402 24.6875 34 23.4277 34 21.875C34 20.791 33.3848 19.8477 32.4824 19.3789C33.1211 18.8633 33.5312 18.0723 33.5312 17.1875C33.5312 15.8164 32.5469 14.6738 31.252 14.4277C31.5098 14 31.6562 13.502 31.6562 12.9688C31.6562 11.7207 30.8418 10.6602 29.7168 10.2969C29.7578 10.1035 29.7812 9.89844 29.7812 9.6875C29.7812 8.13477 28.5215 6.875 26.9688 6.875H21.2559C20.1426 6.875 19.0586 7.20312 18.1328 7.81836L15.877 9.32422C14.3125 10.3672 13.375 12.125 13.375 14.0059V16.25V19.0625V20.5215C13.375 22.2324 14.1543 23.8438 15.4844 24.916L15.918 25.2617C17.4707 26.5039 18.5312 28.25 18.918 30.1953L19.0527 30.8633C19.3574 32.3867 20.8398 33.377 22.3633 33.0723ZM5.875 27.5H9.625C10.6621 27.5 11.5 26.6621 11.5 25.625V12.5C11.5 11.4629 10.6621 10.625 9.625 10.625H5.875C4.83789 10.625 4 11.4629 4 12.5V25.625C4 26.6621 4.83789 27.5 5.875 27.5Z" fill="white"/>
</svg>
