<svg width="38" height="38" viewBox="0 0 38 38" fill="none" xmlns="http://www.w3.org/2000/svg">
<circle cx="19" cy="19" r="19" fill="#8A70CF"/>
<g clip-path="url(#clip0_134_70)">
<path d="M20.2857 5C21.2734 5 22.0714 5.80996 22.0714 6.8125V7.36758C22.0714 10.4602 20.5145 13.2922 18.0257 14.9348L18.0368 14.9518L21.2065 19.5H26.0893C26.9319 19.5 27.7243 19.9021 28.2321 20.5875L30.6429 23.85C31.2344 24.6486 31.0725 25.7871 30.2857 26.3875C29.4989 26.9879 28.3772 26.8236 27.7857 26.025L25.6429 23.125H20.2857H20.2076L25.3583 31.202C25.894 32.0402 25.6596 33.1617 24.8281 33.7111C23.9967 34.2605 22.8973 34.017 22.356 33.173L13.394 19.1148C13.2321 19.6359 13.1429 20.191 13.1429 20.7574V24.9375C13.1429 25.94 12.3449 26.75 11.3571 26.75C10.3694 26.75 9.57143 25.94 9.57143 24.9375V20.7574C9.57143 17.0701 11.7813 13.751 15.1574 12.3803C17.1775 11.559 18.5 9.57656 18.5 7.36758V6.8125C18.5 5.80996 19.298 5 20.2857 5ZM10.4643 6.8125C11.1747 6.8125 11.856 7.09894 12.3583 7.6088C12.8607 8.11867 13.1429 8.81019 13.1429 9.53125C13.1429 10.2523 12.8607 10.9438 12.3583 11.4537C11.856 11.9636 11.1747 12.25 10.4643 12.25C9.75388 12.25 9.07258 11.9636 8.57025 11.4537C8.06792 10.9438 7.78571 10.2523 7.78571 9.53125C7.78571 8.81019 8.06792 8.11867 8.57025 7.6088C9.07258 7.09894 9.75388 6.8125 10.4643 6.8125Z" fill="white"/>
</g>
<defs>
<clipPath id="clip0_134_70">
<rect width="25" height="29" fill="white" transform="translate(6 5)"/>
</clipPath>
</defs>
</svg>
