<svg width="38" height="38" viewBox="0 0 38 38" fill="none" xmlns="http://www.w3.org/2000/svg">
<circle cx="19" cy="19" r="19" fill="#8A70CF"/>
<g clip-path="url(#clip0_157_152)">
<path d="M14.3799 24.987C14.3802 26.4616 14.2984 28.5655 14.0049 31.3655C13.9197 32.1784 14.5098 32.9067 15.3226 32.9918C15.375 32.9973 15.4272 32.9999 15.4787 32.9999C16.2269 33 16.8692 32.4345 16.9489 31.6741C17.2523 28.7776 17.3399 26.5708 17.3401 24.987C17.3401 22.9053 17.1884 21.8988 17.1758 21.8178C17.163 21.7367 17.1423 21.659 17.1174 21.5835C17.2196 21.186 17.2485 20.7541 17.2044 20.3272C17.106 19.441 17.1265 18.5724 17.2495 17.7369C16.8902 17.4457 16.5909 17.1237 16.3519 16.7893C15.4466 15.5156 15.3403 14.1572 15.336 13.4619C15.336 13.178 15.3566 12.9983 15.3604 12.9669C15.4234 12.4476 15.8955 12.0776 16.4147 12.1406C16.9339 12.2036 17.304 12.6757 17.2409 13.1949V13.1966C17.2401 13.2049 17.2387 13.2213 17.2373 13.2446C17.234 13.2914 17.2304 13.3659 17.2306 13.4618C17.2289 13.8185 17.2836 14.465 17.5512 15.0806C17.6264 15.2508 17.7147 15.4183 17.8208 15.5807C17.9162 15.3362 18.0198 15.0961 18.1335 14.8621C18.6603 13.7541 18.47 12.407 17.5241 11.5397C16.5944 10.6809 14.8772 10.9914 14.0033 12.608C12.8151 14.8378 12.2205 17.4009 12.3764 20.061C12.4464 21.4629 13.3366 22.6453 14.3265 23.0977C14.3547 23.5406 14.3799 24.165 14.3799 24.987Z" fill="white"/>
<path d="M24.056 32.5066C24.3829 32.5066 24.6481 32.2414 24.6481 31.9145L24.6479 19.8302C24.6475 18.8525 24.0397 18.0194 23.1821 17.6823C23.2409 17.7975 23.2779 17.9261 23.285 18.0635C23.3022 18.3876 23.1539 18.6821 22.9143 18.8653C23.2427 19.0619 23.4633 19.4195 23.4639 19.83V31.9144C23.4639 32.2413 23.729 32.5066 24.056 32.5066Z" fill="white"/>
<path d="M20.1999 18.9642C20.0914 19.2318 20.0303 19.5236 20.0302 19.8302C20.0302 20.1569 20.2953 20.4219 20.6223 20.4219C20.9492 20.4219 21.2144 20.1569 21.2144 19.8302H21.2142C21.2148 19.5376 21.3275 19.2724 21.5103 19.0725C21.0438 19.0639 20.6067 19.0275 20.1999 18.9642Z" fill="white"/>
<path d="M21.7089 9.26857C22.0428 7.83594 21.1521 6.40389 19.7194 6.06999C18.2867 5.73609 16.8546 6.62678 16.5207 8.0594C16.1868 9.49203 17.0776 10.9241 18.5103 11.258C19.943 11.5919 21.3751 10.7012 21.7089 9.26857Z" fill="white"/>
<path d="M21.8087 18.839C21.995 18.8375 22.1851 18.8325 22.3768 18.8225C22.4756 18.8173 22.5687 18.7919 22.6524 18.7507C22.8995 18.6291 23.0641 18.3683 23.0487 18.0761C23.0379 17.8702 22.94 17.6888 22.7922 17.5664C22.6691 17.4643 22.5116 17.4029 22.3399 17.4029C22.3274 17.4029 22.3146 17.4031 22.3023 17.4038C22.1057 17.4145 21.91 17.4196 21.7208 17.4196C20.6626 17.4191 19.7656 17.2515 19.0533 16.921C18.4877 16.6546 18.0543 16.3039 17.7212 15.8467C17.5738 15.6442 17.444 15.423 17.3344 15.1753C17.0233 14.4599 16.9926 13.7379 16.994 13.4624C16.9938 13.3568 16.9978 13.2768 17.0011 13.2305C17.0029 13.2014 17.0046 13.1811 17.0061 13.1665C17.029 12.9781 16.9771 12.7924 16.86 12.6429C16.7432 12.4936 16.5749 12.3988 16.3865 12.3758C16.3573 12.3724 16.3284 12.3705 16.2996 12.3705C15.9416 12.3705 15.639 12.6393 15.596 12.9949C15.5906 13.0393 15.5733 13.2046 15.5733 13.4606C15.5808 14.6815 15.9079 15.7554 16.545 16.6519C16.7575 16.9492 17.0103 17.2202 17.2932 17.4633C17.638 17.7593 18.0286 18.0125 18.4566 18.2104C19.0018 18.4637 19.6208 18.6399 20.3041 18.7405C20.7495 18.8061 21.2217 18.8405 21.7209 18.8403C21.7496 18.8402 21.7796 18.8393 21.8087 18.839Z" fill="white"/>
</g>
<defs>
<clipPath id="clip0_157_152">
<rect width="27" height="27" fill="white" transform="translate(5 6)"/>
</clipPath>
</defs>
</svg>
