<svg width="38" height="38" viewBox="0 0 38 38" fill="none" xmlns="http://www.w3.org/2000/svg">
<circle cx="19" cy="19" r="19" fill="#68C571"/>
<path d="M17.3867 10.0805C18.1688 12.4266 17.3703 14.7945 15.6039 15.3742C13.8375 15.9539 11.7703 14.5211 10.9883 12.175C10.2063 9.82891 11.0047 7.46094 12.7711 6.88125C14.5375 6.30156 16.6047 7.73437 17.3867 10.0805ZM10.4906 15.8609C11.5242 17.6328 11.2727 19.6945 9.93281 20.4602C8.59297 21.2258 6.66797 20.4109 5.63984 18.6391C4.61172 16.8672 4.85234 14.8055 6.19219 14.0398C7.53203 13.2742 9.45703 14.0891 10.4852 15.8609H10.4906ZM8.78438 26.9406C11.65 19.2133 16.7414 17.25 19 17.25C21.2586 17.25 26.35 19.2133 29.2156 26.9406C29.4125 27.4711 29.5 28.0398 29.5 28.6086V28.6961C29.5 30.107 28.357 31.25 26.9461 31.25C26.3172 31.25 25.6938 31.1734 25.0867 31.0203L20.2742 29.8172C19.4375 29.6094 18.5625 29.6094 17.7258 29.8172L12.9133 31.0203C12.3063 31.1734 11.6828 31.25 11.0539 31.25C9.64297 31.25 8.5 30.107 8.5 28.6961V28.6086C8.5 28.0398 8.5875 27.4711 8.78438 26.9406ZM28.0672 20.4602C26.7273 19.6945 26.4758 17.6328 27.5094 15.8609C28.543 14.0891 30.4625 13.2742 31.8023 14.0398C33.1422 14.8055 33.3938 16.8672 32.3602 18.6391C31.3266 20.4109 29.407 21.2258 28.0672 20.4602ZM21.9586 15.3742C20.1922 14.7945 19.3938 12.4266 20.1758 10.0805C20.9578 7.73437 23.025 6.30156 24.7914 6.88125C26.5578 7.46094 27.3563 9.82891 26.5742 12.175C25.7922 14.5211 23.725 15.9539 21.9586 15.3742Z" fill="white"/>
</svg>
