<svg width="38" height="38" viewBox="0 0 38 38" fill="none" xmlns="http://www.w3.org/2000/svg">
<circle cx="19" cy="19" r="19" fill="#FF7F27"/>
<path d="M32.7536 25.3005L20.4691 4.9278C20.1587 4.41292 19.6012 4.09808 18.9999 4.09808C18.3987 4.09808 17.8412 4.41286 17.5308 4.9278L5.24642 25.3005C4.92694 25.8304 4.91748 26.4912 5.22176 27.03C5.52604 27.5688 6.09681 27.9019 6.71555 27.9019H31.2844C31.9031 27.9019 32.4739 27.5687 32.7782 27.03C33.0825 26.4912 33.0731 25.8304 32.7536 25.3005ZM19.0091 11.1452C19.7147 11.1452 20.3116 11.5432 20.3116 12.2487C20.3116 14.4014 20.0584 17.4948 20.0584 19.6475C20.0584 20.2083 19.4433 20.4434 19.0091 20.4434C18.4303 20.4434 17.9419 20.2083 17.9419 19.6475C17.9419 17.4948 17.6886 14.4014 17.6886 12.2487C17.6886 11.5432 18.2675 11.1452 19.0091 11.1452ZM19.0272 24.4775C18.2313 24.4775 17.6343 23.8263 17.6343 23.0847C17.6343 22.3249 18.2313 21.6918 19.0272 21.6918C19.7689 21.6918 20.4021 22.3249 20.4021 23.0847C20.4021 23.8263 19.7689 24.4775 19.0272 24.4775Z" fill="white"/>
</svg>
