<svg width="38" height="38" viewBox="0 0 38 38" fill="none" xmlns="http://www.w3.org/2000/svg">
<circle cx="19" cy="19" r="19" fill="#8F3ABC"/>
<g clip-path="url(#clip0_134_56)">
<path d="M26.7636 9.4498C26.9666 8.88836 26.6778 8.27302 26.1184 8.06642C25.559 7.85981 24.932 8.15175 24.7289 8.71319L24.5214 9.28361L21.8281 8.30446C21.2642 8.10235 20.6462 8.3898 20.4386 8.94675L18.7108 13.6763C18.5078 14.2377 18.7965 14.8531 19.3559 15.0597L22.0492 16.0343L21.3544 17.9387L20.0552 17.4536C19.6176 17.2875 19.2251 17.0225 18.9093 16.6721L17.601 15.1989C16.7799 14.2782 15.6025 13.7527 14.3618 13.7527H13.1167C11.4746 13.7527 9.9768 14.6734 9.24145 16.1376L7.15269 20.2968C6.7963 21.0064 7.08502 21.8688 7.79782 22.2236C8.51061 22.5784 9.37679 22.291 9.73319 21.5813L10.6084 19.8431V29.5627C10.6084 30.3577 11.2535 31 12.052 31C12.8505 31 13.4957 30.3577 13.4957 29.5627V23.8136H14.407L15.6611 26.3109V29.5627C15.6611 30.3577 16.3062 31 17.1047 31C17.9033 31 18.5484 30.3577 18.5484 29.5627V26.3109C18.5484 25.8662 18.4446 25.4261 18.2416 25.0263L16.7438 22.035V18.5675L16.7574 18.581C17.3799 19.2817 18.1649 19.8162 19.0446 20.144L20.3665 20.6381L20.0371 21.5454C19.8341 22.1068 20.1228 22.7222 20.6823 22.9288C21.2417 23.1354 21.8642 22.8434 22.0718 22.2865L24.0838 16.7799L26.8177 17.768C27.3816 17.9702 27.9997 17.6827 28.2072 17.1258L29.935 12.3917C30.1381 11.8303 29.8493 11.215 29.2899 11.0083L26.556 10.0202L26.7636 9.4498ZM15.6611 10.1595C15.6611 9.58767 15.433 9.0393 15.0269 8.63499C14.6208 8.23068 14.07 8.00353 13.4957 8.00353C12.9213 8.00353 12.3706 8.23068 11.9645 8.63499C11.5584 9.0393 11.3302 9.58767 11.3302 10.1595C11.3302 10.7312 11.5584 11.2796 11.9645 11.6839C12.3706 12.0882 12.9213 12.3154 13.4957 12.3154C14.07 12.3154 14.6208 12.0882 15.0269 11.6839C15.433 11.2796 15.6611 10.7312 15.6611 10.1595Z" fill="white"/>
</g>
<defs>
<clipPath id="clip0_134_56">
<rect width="23" height="23" fill="white" transform="translate(7 8)"/>
</clipPath>
</defs>
</svg>
