<svg width="38" height="38" viewBox="0 0 38 38" fill="none" xmlns="http://www.w3.org/2000/svg">
<circle cx="19" cy="19" r="19" fill="#FF9034"/>
<path d="M33 15.2373V13.1595H32.8852V11.1788H32.7721V10.4773H31.9628V11.177C31.9628 11.177 12.3803 11.3148 8.96138 11.177C8.43838 11.177 5.45233 11.4721 8.44721 16.0766C8.44721 16.0766 9.80772 18.1403 7.94365 20.4426C6.10431 22.7113 5.27564 27.307 5.06007 28.6958H5V29.5227H13.4864V28.6958V27.936C9.82009 28.611 16.0201 20.0786 15.7445 21.5151C15.9442 21.5663 16.1509 21.5982 16.3664 21.5982H18.5751C19.9391 21.5982 21.7502 20.1387 21.7502 18.7729C21.7502 18.181 21.5417 17.6385 21.1954 17.2127H32.1236L32.477 15.9123H32.9399V15.2833H32.8639L32.8834 15.2373H33ZM18.5786 20.3896H16.37C16.2074 20.3896 16.0502 20.3631 15.9017 20.3189C16.0307 19.5609 16.1297 18.8824 16.2004 18.3541C16.3859 18.9672 16.7481 19.6086 17.4601 19.886C17.5096 19.9055 17.5609 19.9143 17.6121 19.9143C17.7782 19.9143 17.9372 19.8118 18.0026 19.6493C18.0856 19.4319 17.9778 19.1899 17.7623 19.1051C17.0255 18.8188 16.8788 17.7057 16.8506 17.218H18.9797C19.6741 17.3982 20.1918 18.029 20.1918 18.7782C20.1918 19.6652 19.4673 20.3896 18.5786 20.3896ZM29.9097 15.9158H19.0009L20.895 15.285H29.9097V15.9158Z" fill="white"/>
</svg>
