<svg width="38" height="38" viewBox="0 0 38 38" fill="none" xmlns="http://www.w3.org/2000/svg">
<circle cx="19" cy="19" r="19" fill="#3757A4"/>
<path d="M18.4771 11.1386C17.5816 11.1391 16.5101 11.2353 15.4017 11.5679C14.295 11.9001 13.1464 12.4753 12.1503 13.428C12.116 13.4607 12.0859 13.4959 12.0576 13.5321C10.5319 13.1964 8.60203 13.3637 6.93204 15.3375C3.55215 19.3328 10.3774 22.8177 11.3664 19.7031C12.0725 17.4791 11.1312 15.5231 12.2261 14.8585C12.3954 14.9893 12.5987 15.0563 12.803 15.0563C13.0376 15.0563 13.2727 14.9694 13.4557 14.7945C13.5184 14.7346 13.583 14.6794 13.6473 14.6233C13.9651 14.638 14.3324 14.6783 14.7579 14.7468C14.7579 14.7468 14.4955 14.5461 14.0506 14.2995C14.6451 13.8691 15.2898 13.5754 15.9454 13.378C16.6421 13.1682 17.3469 13.0723 17.9868 13.0412C16.8277 15.2731 16.4194 16.7796 16.3198 19.4196C16.3556 20.3542 16.6676 20.9284 17.1011 21.2903C17.0422 21.9256 16.8513 22.8869 16.2901 23.8956C15.5449 25.2211 14.1964 26.6925 11.3823 27.7735C10.6199 28.0635 10.2373 28.9165 10.5273 29.6789C10.7516 30.2682 11.3126 30.6306 11.9079 30.6306C12.0825 30.6307 12.2599 30.5994 12.4327 30.5336C15.8233 29.2534 17.822 27.2424 18.8732 25.3274C19.4616 24.263 19.768 23.2482 19.9243 22.4085L22.4304 23.2712L23.9647 28.5564C24.1919 29.3397 25.0113 29.7902 25.7943 29.5629C26.5775 29.3356 27.0282 28.5163 26.8009 27.7332H26.8007L25.053 21.7125C24.9195 21.2526 24.5683 20.8838 24.1156 20.728L20.5158 19.4889C20.6796 18.2116 21.1081 16.9036 21.5197 15.765C21.4093 15.6999 21.2993 15.633 21.19 15.5619C20.3558 15.0173 19.8415 14.4752 19.7038 14.322C19.4894 14.0777 19.3862 13.7735 19.4068 13.4588C19.4275 13.1438 19.5694 12.8559 19.8066 12.6477C20.022 12.4587 20.2986 12.3547 20.5852 12.3547C20.9238 12.3547 21.2467 12.5002 21.4707 12.7537L21.5176 12.8034C21.5741 12.8613 21.6385 12.9236 21.7076 12.9863C21.8322 13.1002 22.0182 13.2585 22.2542 13.4277C22.3059 12.5915 21.9972 11.7904 21.3258 11.5082C21.187 11.4498 21.0359 11.4072 20.8769 11.3807C20.8756 11.3803 20.8744 11.38 20.8733 11.3796C20.8244 11.3688 19.8573 11.1394 18.4771 11.1386ZM7.71039 15.3673C7.71039 15.3673 7.12648 16.343 7.04131 16.9878C6.95626 17.6327 6.84168 17.8821 7.77725 19.6991C5.24895 17.898 7.71039 15.3673 7.71039 15.3673Z" fill="white"/>
<path d="M26.7462 10.4482C27.2936 9.08635 26.6333 7.53858 25.2714 6.99117C23.9095 6.44376 22.3617 7.104 21.8143 8.46586C21.2669 9.82773 21.9272 11.3755 23.2891 11.9229C24.651 12.4703 26.1988 11.8101 26.7462 10.4482Z" fill="white"/>
<path d="M21.347 12.9667C21.3258 12.9446 21.3105 12.9284 21.3019 12.919C21.2981 12.915 21.2957 12.9121 21.2944 12.9108C21.2941 12.9106 21.2939 12.9105 21.2939 12.9105C20.9494 12.5205 20.3541 12.4822 19.9625 12.8256C19.5701 13.1698 19.5312 13.7669 19.8753 14.1592C19.9146 14.2028 20.4214 14.7778 21.3192 15.3641C22.2142 15.9467 23.5204 16.552 25.1277 16.5538H25.1416C26.3575 16.5538 27.7219 16.1866 29.1012 15.2687C29.5363 14.9804 29.6553 14.3939 29.3667 13.959C29.0784 13.524 28.492 13.405 28.057 13.6935C26.9448 14.4272 25.9802 14.661 25.1277 14.6637C24.011 14.6653 23.0461 14.2341 22.3513 13.7806C22.0054 13.5553 21.7313 13.3279 21.549 13.1617C21.4581 13.0786 21.39 13.0109 21.347 12.9667Z" fill="white"/>
</svg>
