<svg width="38" height="38" viewBox="0 0 38 38" fill="none" xmlns="http://www.w3.org/2000/svg">
<circle cx="19" cy="19" r="19" fill="#FE0000"/>
<path d="M30.0222 16.9246C29.6456 16.5481 29.0583 16.099 28.6972 15.8333C29.4054 14.7536 29.2631 13.9023 28.2334 12.8727C27.8081 12.4594 27.2962 12.1461 26.7346 11.9556C26.8815 11.5819 26.9162 11.1735 26.8344 10.7805C26.7526 10.3874 26.5578 10.0268 26.274 9.7428L25.176 8.64459C24.529 7.9978 23.4848 8.01582 22.7039 8.39421C22.6572 8.15008 22.5643 7.91713 22.4302 7.70788C22.1006 7.19235 21.5349 6.8027 21.0533 6.44275C20.6757 6.16356 20.2107 6.0288 19.7424 6.06286C19.2741 6.09692 18.8334 6.29754 18.5002 6.62842L12.0527 13.079C10.0397 15.0444 10.2014 18.8708 10.2705 20.5053C10.279 20.7053 10.2856 20.8632 10.2856 20.9681C10.2867 21.3343 10.2151 21.697 10.0751 22.0353C9.935 22.3736 9.72923 22.6807 9.46967 22.939L7.4353 24.9727C7.3767 25.0313 7.34378 25.1108 7.34378 25.1937C7.34378 25.2766 7.3767 25.3561 7.4353 25.4147L13.8747 31.8541C13.9037 31.8831 13.9382 31.9061 13.9761 31.9218C14.014 31.9375 14.0546 31.9456 14.0956 31.9456C14.1367 31.9456 14.1773 31.9375 14.2152 31.9218C14.2531 31.9061 14.2876 31.8831 14.3166 31.8541L18.1334 28.0372C18.4879 27.6807 18.9096 27.3981 19.3741 27.2057C19.8386 27.0133 20.3366 26.9149 20.8394 26.9163C21.424 26.9164 22.0029 26.8013 22.5431 26.5775C23.0832 26.3537 23.574 26.0257 23.9872 25.6122L28.7106 20.8882C29.2434 20.492 29.7452 20.0557 30.2114 19.5829C30.9132 18.882 30.7351 17.6367 30.0222 16.9246ZM28.5141 16.0936C28.2487 16.4462 27.8928 16.8409 27.3604 17.3735C25.9706 18.7633 24.9009 19.1504 24.1744 19.1868C24.2474 20.0658 24.5537 20.7381 25.048 21.0927C25.4755 21.3993 26.0275 21.4558 26.6887 21.2607C26.7681 21.2374 26.8536 21.2466 26.9262 21.2862C26.9989 21.3258 27.0529 21.3926 27.0763 21.472C27.0998 21.5514 27.0908 21.6369 27.0513 21.7096C27.0118 21.7823 26.9451 21.8365 26.8657 21.86C26.112 22.0827 25.327 22.0619 24.6837 21.6005C24.0154 21.1211 23.6137 20.2449 23.544 19.1258C22.3898 18.8291 21.8913 17.6166 21.919 16.4153C20.8788 17.049 19.315 16.7051 18.1697 16.2912C19.2694 17.8519 19.9558 19.6657 20.165 21.5634C20.1695 21.6042 20.1659 21.6455 20.1544 21.6849C20.1429 21.7243 20.1238 21.7611 20.0981 21.7931C20.0724 21.8251 20.0407 21.8517 20.0047 21.8715C19.9687 21.8912 19.9292 21.9037 19.8884 21.9081C19.806 21.9172 19.7234 21.8931 19.6588 21.8412C19.6268 21.8155 19.6001 21.7838 19.5804 21.7478C19.5606 21.7118 19.5482 21.6723 19.5437 21.6315C19.14 17.9486 16.9185 15.7418 16.8961 15.7199C16.6348 15.4637 16.9505 15.058 17.2598 15.2197C18.6153 15.9316 21.1959 16.7448 22.0262 15.4592C22.2225 15.1526 22.2891 14.7807 22.2115 14.425C22.1338 14.0694 21.9181 13.7592 21.6119 13.5624L18.7119 11.7025C18.4856 11.5582 18.2293 11.4674 17.9627 11.437C17.696 11.4067 17.4259 11.4376 17.1729 11.5273L13.6886 12.7767C13.6106 12.8046 13.5247 12.8004 13.4498 12.765C13.3749 12.7296 13.3171 12.6659 13.2891 12.5879C13.2612 12.5099 13.2653 12.424 13.3007 12.3491C13.336 12.2741 13.3997 12.2163 13.4777 12.1883L16.962 10.939C17.3051 10.8172 17.6715 10.7754 18.0332 10.8165C18.3949 10.8576 18.7424 10.9807 19.0494 11.1764L19.7987 11.6569C20.8519 11.2174 22.0536 9.95474 22.113 8.86304C22.1176 8.78035 22.1548 8.70286 22.2165 8.6476C22.2781 8.59233 22.3592 8.56382 22.4419 8.56832C22.5246 8.57281 22.6022 8.60996 22.6575 8.67158C22.7128 8.73321 22.7414 8.81427 22.737 8.89697C22.6697 10.1356 21.5506 11.4263 20.4145 12.0519L21.9493 13.0363C22.2593 13.2343 22.5083 13.5143 22.6687 13.8453C22.829 14.1762 22.8945 14.5452 22.8578 14.9111C23.6763 14.3298 25.037 13.2693 25.9662 12.0556C25.9912 12.023 26.0223 11.9956 26.0578 11.975C26.0934 11.9543 26.1326 11.941 26.1733 11.9355C26.214 11.9301 26.2554 11.9328 26.2951 11.9433C26.3348 11.9539 26.372 11.9722 26.4046 11.9972C26.4372 12.0222 26.4646 12.0533 26.4851 12.0889C26.5057 12.1244 26.519 12.1637 26.5244 12.2044C26.5298 12.2451 26.5271 12.2865 26.5165 12.3262C26.5058 12.3658 26.4875 12.403 26.4625 12.4356C25.1548 14.1434 23.1151 15.5119 22.6035 15.8409C22.3908 17.0261 22.7378 18.4293 23.894 18.5563C24.707 18.6446 25.7818 18.0681 26.9185 16.9316C27.4225 16.4274 27.7709 16.0417 28.0147 15.7177C28.0646 15.6515 28.1387 15.6078 28.2207 15.5962C28.3028 15.5846 28.3861 15.6061 28.4523 15.6559C28.5186 15.7058 28.5623 15.7799 28.5738 15.862C28.5854 15.944 28.5639 16.0273 28.5141 16.0936Z" fill="white"/>
</svg>
