<svg id="Layer_1" enable-background="new 0 0 100 100" height="512" viewBox="0 0 100 100" width="512" xmlns="http://www.w3.org/2000/svg"><g id="Layer_2_1_"><g id="Layer_2-2"><g id="_14.cur-crush"><path id="_Path_" d="m89.7 62.2-1.5 5.8c-.4 1.4-1.1 2.6-2.2 3.6-.3.3-.7.6-1.1.9l-1.8 6.5c-.1.5-.4 1-.7 1.4-1 1.3-2.6 1.8-4.2 1.4l-3.9-1c-2.1-.6-3.4-2.8-2.8-4.9l1-3.9-30.9-8.3-1 3.9c-.6 2.1-2.8 3.4-4.9 2.8l-3.9-1c-1.6-.4-2.7-1.8-2.9-3.3-.1-.5 0-1.1.1-1.6l1.7-6.5c-.2-.4-.4-.9-.5-1.3-.4-1.4-.4-2.9-.1-4.3l1.5-5.8c.6-2.4 2.3-4.3 4.6-5.3.7-.3 1.5-.5 2.3-.6l2.3-3 4-5.4c.4-.6.9-1.1 1.4-1.6 1-1 2.1-1.8 3.3-2.4.6-.3 1.2-.6 1.9-.8 1.3-.4 2.6-.7 4-.7 1.4-.1 2.8.1 4.2.5l15.3 4.1c1.4.4 2.7.9 3.9 1.6 3.6 2.2 5.9 6 6.4 10.2l.8 6.7.4 3.8c1.3.9 2.3 2.2 2.8 3.7.9 1.5.9 3.2.5 4.8zm-47.7-14.9c-2-.7-4.1.4-4.8 2.4 0 .1-.1.3-.1.4-.7 2 .4 4.1 2.4 4.8.1 0 .3.1.4.1 2.3.6 5.7 1.9 6.3-.4s-1.9-6.7-4.2-7.3zm36.3 3.5-.8-6.7c-.1-.6-.3-1.2-.5-1.7-.7-1.7-2.2-2.9-3.9-3.3l-15.4-4.1c-2.4-.6-4.9.2-6.4 2.2l-4 5.4 21.5 5.8zm2.3 6.8c-2.3-.6-6.7 1.9-7.3 4.2s3 2.9 5.3 3.5c2.1.8 4.4-.3 5.1-2.4s-.3-4.4-2.4-5.1c-.2-.1-.5-.1-.7-.2z"/><path id="_Path_2" d="m27.9 45.6-1.6 5.8c-.4 1.4-.5 2.9-.3 4.3l-4.4 3.6c-.5.4-1.2.3-1.6-.2-.2-.3-.3-.6-.2-.9l1.9-9.6c.1-.6-.3-1.2-.9-1.3h-.1l-9.7-.9c-.6-.1-1.1-.6-1-1.2 0-.3.2-.6.5-.8l8.1-5.4c.5-.4.7-1.1.3-1.6 0 0 0-.1-.1-.1l-6.2-7.5c-.4-.5-.3-1.2.2-1.6.3-.2.6-.3.9-.2l9.6 1.9c.6.1 1.2-.3 1.3-.9v-.1l.9-9.8c.1-.6.6-1.1 1.2-1 .3 0 .6.2.8.5l5.4 8.1c.3.5 1 .7 1.6.3 0 0 .1 0 .1-.1l7.5-6.2c.5-.4 1.2-.3 1.6.2.2.3.3.6.2.9l-1.4 7c-.3.4-.7.8-1 1.2l-4 5.4-1.3 1.8c-3.9 1-7.2 4.3-8.3 8.4z"/></g></g></g></svg>