<svg id="Layer_1" enable-background="new 0 0 110 90" height="512" viewBox="0 0 110 90" width="512" xmlns="http://www.w3.org/2000/svg"><g fill="rgb(0,0,0)"><path d="m54.9 38.2c-4.2 0-7.6-3.4-7.6-7.6s3.4-7.6 7.6-7.6 7.6 3.4 7.6 7.6c0 4.3-3.4 7.6-7.6 7.6z"/><path d="m51 87.3c-1.7 0-3.1-1.4-3.1-3.1v-19.6h6.3v19.5c0 1.8-1.4 3.2-3.2 3.2z"/><path d="m58.9 87.3c-1.7 0-3.1-1.4-3.1-3.1v-19.6h6.2v19.5c0 1.8-1.4 3.2-3.1 3.2z"/><path d="m70.5 57.9-3.7-11.8c-.9-3.7-4.2-6.2-8-6.2h-7.6c-3.8 0-7.1 2.5-8.1 6.2l-3.6 11.8c-.4 1.3.2 2.7 1.5 3.3.3.1.6.2.9.2 1.2 0 2.2-.8 2.5-1.9l3.6-11.4c.1-.4.4-.7.8-.7s.7.5.4 1.6c-.7 3-4.1 16.5-4.6 18.5-.1.2 0 .5.2.7.1.2.4.3.6.3h19.4c.2 0 .4-.1.6-.3s.2-.4.2-.7c-.4-2-3.9-15.5-4.6-18.5-.3-1.1 0-1.6.4-1.6s.7.3.8.7l3.5 11.3c.3 1.1 1.3 1.9 2.5 1.9.3 0 .6-.1.9-.2 1.2-.5 1.8-1.9 1.4-3.2z"/><path d="m66 22.3c1 1.1 1.5 2.6 1.5 4.1 0 2.6.5 3.8.9 4.2.1.1 0 .2 0 .3h-.1c-4.8.3-6.5-2.4-7.2-3.3-1.4-1.5-1.5-3.7-.3-5.4 1.4-1.5 3.7-1.5 5.1-.1 0 .1 0 .1.1.2z"/><path d="m43.9 22.3c-1 1.1-1.5 2.6-1.5 4.1 0 2.6-.5 3.8-.9 4.2-.1.1 0 .2 0 .3h.1c4.8.3 6.5-2.4 7.2-3.3 1.5-1.9 1.4-4.2.3-5.4-1.4-1.5-3.7-1.5-5.1-.1 0 .1-.1.1-.1.2z"/></g></svg>