<?xml version="1.0" encoding="iso-8859-1"?>
<!-- Generator: Adobe Illustrator 18.1.1, SVG Export Plug-In . SVG Version: 6.00 Build 0)  -->
<svg version="1.1" id="Capa_1" xmlns="http://www.w3.org/2000/svg" xmlns:xlink="http://www.w3.org/1999/xlink" x="0px" y="0px"
	 viewBox="0 0 15.847 15.847" style="enable-background:new 0 0 15.847 15.847;" xml:space="preserve">
<g>
	<path style="fill:#030104;" d="M15.847,5.228V4.052h-0.065V2.931h-0.064V2.534H15.26V2.93c0,0-11.083,0.078-13.018,0
		c-0.296,0-1.986,0.167-0.291,2.773c0,0,0.77,1.168-0.285,2.471c-1.041,1.284-1.51,3.885-1.632,4.671H0v0.468h4.803v-0.468v-0.43
		c-2.075,0.382,1.434-4.447,1.278-3.634c0.113,0.029,0.23,0.047,0.352,0.047h1.25c0.772,0,1.797-0.826,1.797-1.599
		c0-0.335-0.118-0.642-0.314-0.883h6.185l0.2-0.736h0.262V5.254H15.77l0.011-0.026H15.847z M7.685,8.144h-1.25
		c-0.092,0-0.181-0.015-0.265-0.04c0.073-0.429,0.129-0.813,0.169-1.112c0.105,0.347,0.31,0.71,0.713,0.867
		C7.08,7.87,7.109,7.875,7.138,7.875c0.094,0,0.184-0.058,0.221-0.15c0.047-0.123-0.014-0.26-0.136-0.308
		c-0.417-0.162-0.5-0.792-0.516-1.068h1.205c0.393,0.102,0.686,0.459,0.686,0.883C8.598,7.734,8.188,8.144,7.685,8.144z
		 M14.098,5.612H7.924l1.072-0.357h5.102C14.098,5.255,14.098,5.612,14.098,5.612z"/>
</g>
<g>
</g>
<g>
</g>
<g>
</g>
<g>
</g>
<g>
</g>
<g>
</g>
<g>
</g>
<g>
</g>
<g>
</g>
<g>
</g>
<g>
</g>
<g>
</g>
<g>
</g>
<g>
</g>
<g>
</g>
</svg>
