<?xml version="1.0" encoding="UTF-8" standalone="no"?>
<!-- Created with Inkscape (http://www.inkscape.org/) -->

<svg
   version="1.1"
   id="svg255"
   xml:space="preserve"
   width="682.66669"
   height="682.66669"
   viewBox="0 0 682.66669 682.66669"
   xmlns="http://www.w3.org/2000/svg"
   xmlns:svg="http://www.w3.org/2000/svg"><defs
     id="defs259"><clipPath
       clipPathUnits="userSpaceOnUse"
       id="clipPath281"><path
         d="M 0,512 H 512 V 0 H 0 Z"
         id="path279" /></clipPath></defs><g
     id="g261"
     transform="matrix(1.3333333,0,0,-1.3333333,0,682.66667)"><g
       id="g263"
       transform="translate(296.4062,176.0635)"><path
         d="M 0,0 V -39.263 H -80.813 V 0.001"
         style="fill:none;stroke:#000000;stroke-width:15;stroke-linecap:round;stroke-linejoin:round;stroke-miterlimit:10;stroke-dasharray:none;stroke-opacity:1"
         id="path265" /></g><g
       id="g267"
       transform="translate(161.3701,136.7998)"><path
         d="M 0,0 H 256.26 V -32.32"
         style="fill:none;stroke:#000000;stroke-width:15;stroke-linecap:round;stroke-linejoin:round;stroke-miterlimit:10;stroke-dasharray:none;stroke-opacity:1"
         id="path269" /></g><g
       id="g271"
       transform="translate(94.3701,104.48)"><path
         d="M 0,0 V 32.32 H 32"
         style="fill:none;stroke:#000000;stroke-width:15;stroke-linecap:round;stroke-linejoin:round;stroke-miterlimit:10;stroke-dasharray:none;stroke-opacity:1"
         id="path273" /></g><g
       id="g275"><g
         id="g277"
         clip-path="url(#clipPath281)"><g
           id="g283"
           transform="translate(316.5303,7.5)"><path
             d="M 0,0 H -219.13"
             style="fill:none;stroke:#000000;stroke-width:15;stroke-linecap:round;stroke-linejoin:round;stroke-miterlimit:10;stroke-dasharray:none;stroke-opacity:1"
             id="path285" /></g><g
           id="g287"
           transform="translate(414.5996,7.5)"><path
             d="M 0,0 H -63.069"
             style="fill:none;stroke:#000000;stroke-width:15;stroke-linecap:round;stroke-linejoin:round;stroke-miterlimit:10;stroke-dasharray:none;stroke-opacity:1"
             id="path289" /></g><g
           id="g291"
           transform="translate(154.9839,285.2949)"><path
             d="m 0,0 c 0,-20.594 6.168,-39.744 16.749,-55.715 -2.124,-3.198 -3.367,-7.032 -3.367,-11.159 0,-10.215 7.59,-18.638 17.434,-19.991 -0.213,-1.048 -0.326,-2.132 -0.326,-3.242 0,-8.927 7.237,-16.163 16.163,-16.163 3.643,0 6.994,1.22 9.697,3.254 2.685,-5.203 8.102,-8.767 14.36,-8.767 3.671,0 7.045,1.238 9.759,3.3 4.287,-6.834 11.884,-11.381 20.547,-11.381 8.663,0 16.26,4.547 20.547,11.381 2.714,-2.062 6.088,-3.3 9.759,-3.3 6.259,0 11.675,3.564 14.36,8.767 2.703,-2.034 6.054,-3.254 9.697,-3.254 8.927,0 16.163,7.236 16.163,16.163 0,1.11 -0.113,2.194 -0.326,3.242 9.844,1.353 17.434,9.776 17.434,19.991 0,4.127 -1.243,7.961 -3.366,11.159 10.581,15.971 16.749,35.121 16.749,55.715"
             style="fill:none;stroke:#000000;stroke-width:15;stroke-linecap:round;stroke-linejoin:round;stroke-miterlimit:10;stroke-dasharray:none;stroke-opacity:1"
             id="path293" /></g><g
           id="g295"
           transform="translate(241.7163,227.7153)"><path
             d="M 0,0 C 3.657,3.657 8.708,5.92 14.284,5.92 19.86,5.92 24.911,3.657 28.568,0"
             style="fill:none;stroke:#000000;stroke-width:15;stroke-linecap:round;stroke-linejoin:round;stroke-miterlimit:10;stroke-dasharray:none;stroke-opacity:1"
             id="path297" /></g><g
           id="g299"
           transform="translate(278.6484,96.3945)"><path
             d="m 0,0 v -56.521 c 0.625,-0.108 19.809,0 19.809,0"
             style="fill:none;stroke:#000000;stroke-width:15;stroke-linecap:round;stroke-linejoin:round;stroke-miterlimit:10;stroke-dasharray:none;stroke-opacity:1"
             id="path301" /></g><g
           id="g303"
           transform="translate(154.9839,96.3945)"><path
             d="M 0,0 V -56.569"
             style="fill:none;stroke:#000000;stroke-width:15;stroke-linecap:round;stroke-linejoin:round;stroke-miterlimit:10;stroke-dasharray:none;stroke-opacity:1"
             id="path305" /></g><g
           id="g307"
           transform="translate(194.1304,96.3945)"><path
             d="M 0,0 V -56.569"
             style="fill:none;stroke:#000000;stroke-width:15;stroke-linecap:round;stroke-linejoin:round;stroke-miterlimit:10;stroke-dasharray:none;stroke-opacity:1"
             id="path309" /></g><g
           id="g311"
           transform="translate(154.9839,69.0801)"><path
             d="M 0,0 H 39.146"
             style="fill:none;stroke:#000000;stroke-width:15;stroke-linecap:round;stroke-linejoin:round;stroke-miterlimit:10;stroke-dasharray:none;stroke-opacity:1"
             id="path313" /></g><g
           id="g315"
           transform="translate(249.0801,95.8779)"><path
             d="M 0,0 H -23.618 V -56.053 H 0"
             style="fill:none;stroke:#000000;stroke-width:15;stroke-linecap:round;stroke-linejoin:round;stroke-miterlimit:10;stroke-dasharray:none;stroke-opacity:1"
             id="path317" /></g><g
           id="g319"
           transform="translate(247.3384,67.8516)"><path
             d="M 0,0 H -21.876"
             style="fill:none;stroke:#000000;stroke-width:15;stroke-linecap:round;stroke-linejoin:round;stroke-miterlimit:10;stroke-dasharray:none;stroke-opacity:1"
             id="path321" /></g><g
           id="g323"
           transform="translate(329.7734,96.3945)"><path
             d="M 0,0 V -56.569"
             style="fill:none;stroke:#000000;stroke-width:15;stroke-linecap:round;stroke-linejoin:round;stroke-miterlimit:10;stroke-dasharray:none;stroke-opacity:1"
             id="path325" /></g><g
           id="g327"
           transform="translate(361.8008,80.4307)"><path
             d="m 0,0 c 0,-8.816 -7.46,-15.964 -16.276,-15.964 -4.372,0 -15.642,-0.07 -15.642,-0.07 0,0 -0.07,11.59 -0.07,16.034 0,3.65 -0.039,15.964 -0.039,15.964 h 15.751 C -7.46,15.964 0,8.816 0,0 Z"
             style="fill:none;stroke:#000000;stroke-width:15;stroke-linecap:round;stroke-linejoin:round;stroke-miterlimit:10;stroke-dasharray:none;stroke-opacity:1"
             id="path329" /></g><g
           id="g331"
           transform="translate(394.3926,27.7031)"><path
             d="m 0,0 v 56.569 c 0,11.158 9.045,20.203 20.203,20.203 h 22.224 c 17.852,0 32.325,-14.472 32.325,-32.325 V 12.122 c 0,-17.852 -14.473,-32.325 -32.325,-32.325 H 20.203 C 9.045,-20.203 0,-11.158 0,0 Z"
             style="fill:none;stroke:#000000;stroke-width:15;stroke-linecap:round;stroke-linejoin:round;stroke-miterlimit:10;stroke-dasharray:none;stroke-opacity:1"
             id="path333" /></g><g
           id="g335"
           transform="translate(410.5547,39.8252)"><path
             d="M 0,0 H -16.162"
             style="fill:none;stroke:#000000;stroke-width:15;stroke-linecap:round;stroke-linejoin:round;stroke-miterlimit:10;stroke-dasharray:none;stroke-opacity:1"
             id="path337" /></g><g
           id="g339"
           transform="translate(394.3926,72.1504)"><path
             d="M 0,0 H 16.162"
             style="fill:none;stroke:#000000;stroke-width:15;stroke-linecap:round;stroke-linejoin:round;stroke-miterlimit:10;stroke-dasharray:none;stroke-opacity:1"
             id="path341" /></g><g
           id="g343"
           transform="translate(117.6079,27.7031)"><path
             d="M 0,0 V 56.569 C 0,67.727 -9.045,76.772 -20.203,76.772 H -42.427 C -60.28,76.772 -74.752,62.3 -74.752,44.447 V 12.122 c 0,-17.852 14.472,-32.325 32.325,-32.325 h 22.224 C -9.045,-20.203 0,-11.158 0,0 Z"
             style="fill:none;stroke:#000000;stroke-width:15;stroke-linecap:round;stroke-linejoin:round;stroke-miterlimit:10;stroke-dasharray:none;stroke-opacity:1"
             id="path345" /></g><g
           id="g347"
           transform="translate(101.4453,39.8252)"><path
             d="M 0,0 H 16.163"
             style="fill:none;stroke:#000000;stroke-width:15;stroke-linecap:round;stroke-linejoin:round;stroke-miterlimit:10;stroke-dasharray:none;stroke-opacity:1"
             id="path349" /></g><g
           id="g351"
           transform="translate(117.6079,72.1504)"><path
             d="M 0,0 H -16.163"
             style="fill:none;stroke:#000000;stroke-width:15;stroke-linecap:round;stroke-linejoin:round;stroke-miterlimit:10;stroke-dasharray:none;stroke-opacity:1"
             id="path353" /></g><g
           id="g355"
           transform="translate(357.0166,345.9043)"><path
             d="m 0,0 h 10.102 c 16.736,0 30.304,-13.568 30.304,-30.305 0,-16.737 -13.568,-30.304 -30.304,-30.304 l -10.102,0 z"
             style="fill:none;stroke:#000000;stroke-width:15;stroke-linecap:round;stroke-linejoin:round;stroke-miterlimit:10;stroke-dasharray:none;stroke-opacity:1"
             id="path357" /></g><g
           id="g359"
           transform="translate(154.9839,345.9043)"><path
             d="m 0,0 h -10.102 c -16.737,0 -30.305,-13.568 -30.305,-30.305 0,-16.737 13.568,-30.304 30.305,-30.304 l 10.102,0 z"
             style="fill:none;stroke:#000000;stroke-width:15;stroke-linecap:round;stroke-linejoin:round;stroke-miterlimit:10;stroke-dasharray:none;stroke-opacity:1"
             id="path361" /></g><g
           id="g363"
           transform="translate(134.7808,344.894)"><path
             d="m 0,0 v 38.387 c 0,66.947 54.271,121.219 121.219,121.219 66.948,0 121.22,-54.272 121.22,-121.219 V 0"
             style="fill:none;stroke:#000000;stroke-width:15;stroke-linecap:round;stroke-linejoin:round;stroke-miterlimit:10;stroke-dasharray:none;stroke-opacity:1"
             id="path365" /></g><g
           id="g367"
           transform="translate(326.71,295.1001)"><path
             d="m 0,0 v -9.81 c 0,-14.53 -4.41,-28.05 -11.96,-39.29 -2.83,4.65 -7.94,7.78 -13.8,7.78 -1.95,0 -3.81,-0.37 -5.54,-1 -2.96,10.05 -12.24,17.38 -23.25,17.38 -6.21,0 -11.87,-2.33 -16.16,-6.17 -4.29,3.84 -9.95,6.17 -16.16,6.17 -11.01,0 -20.29,-7.33 -23.25,-17.38 -1.73,0.63 -3.59,1 -5.54,1 -5.86,0 -10.97,-3.13 -13.8,-7.78 -7.55,11.24 -11.96,24.76 -11.96,39.29 v 59.6 c 0,21.22 26.26,21.22 26.26,21.22 -6.06,-20.21 9.09,-35.36 9.09,-35.36 6.07,30.31 35.36,37.38 35.36,37.38 -5.05,-20.21 11.11,-35.36 11.11,-35.36 5.05,44.45 45.46,44.45 45.46,44.45 L 0,49.79 V 35"
             style="fill:none;stroke:#000000;stroke-width:15;stroke-linecap:round;stroke-linejoin:round;stroke-miterlimit:10;stroke-dasharray:none;stroke-opacity:1"
             id="path369" /></g><g
           id="g371"
           transform="translate(361.0576,443.791)"><path
             d="M 0,0 C 0,0 11.833,-16.176 28.472,-14.327"
             style="fill:none;stroke:#000000;stroke-width:15;stroke-linecap:round;stroke-linejoin:round;stroke-miterlimit:10;stroke-dasharray:none;stroke-opacity:1"
             id="path373" /></g><g
           id="g375"
           transform="translate(138.0723,411.4507)"><path
             d="M 0,0 C 0,0 -3.292,-14.126 -18.885,-15.975"
             style="fill:none;stroke:#000000;stroke-width:15;stroke-linecap:round;stroke-linejoin:round;stroke-miterlimit:10;stroke-dasharray:none;stroke-opacity:1"
             id="path377" /></g><g
           id="g379"
           transform="translate(185.7241,482.0596)"><path
             d="M 0,0 C 0,0 -16.396,-14.031 -45.822,-9.458"
             style="fill:none;stroke:#000000;stroke-width:15;stroke-linecap:round;stroke-linejoin:round;stroke-miterlimit:10;stroke-dasharray:none;stroke-opacity:1"
             id="path381" /></g><g
           id="g383"
           transform="translate(377.0566,389.5625)"><path
             d="M 0,0 C 0,0 1.238,-17.125 18.445,-22.171"
             style="fill:none;stroke:#000000;stroke-width:15;stroke-linecap:round;stroke-linejoin:round;stroke-miterlimit:10;stroke-dasharray:none;stroke-opacity:1"
             id="path385" /></g></g></g></g></svg>
