<?xml version="1.0" encoding="iso-8859-1"?>
<!-- Generator: Adobe Illustrator 18.1.1, SVG Export Plug-In . SVG Version: 6.00 Build 0)  -->
<svg version="1.1" id="Capa_1" xmlns="http://www.w3.org/2000/svg" xmlns:xlink="http://www.w3.org/1999/xlink" x="0px" y="0px"
	 viewBox="0 0 61.695 61.695" style="enable-background:new 0 0 61.695 61.695;" xml:space="preserve">
<g>
	<g>
		<path style="fill:#010002;" d="M49.609,29.53c-5.738,2.673-11.632,4.946-17.607,7.001c-1.056-3.396-1.656-6.263-2.532-10.341
			c-0.364-1.694-1.163-3.216-2.293-4.354c3.308-4.908,6.616-9.815,9.924-14.723c3.101-4.599-3.688-9.969-6.812-5.336
			c-4.525,6.715-9.053,13.431-13.579,20.147c-0.182,0.271-0.328,0.543-0.444,0.817c-1.178,1.491-1.806,3.383-1.395,5.303
			c1.056,4.896,2.13,9.812,3.67,14.584c0.567,1.756,1.895,3.05,3.502,3.806c0.145,0.126,0.298,0.249,0.47,0.367
			c8.05,5.483,16.418,10.448,25.296,14.481c5.08,2.305,8.413-5.686,3.332-7.99c-5.585-2.532-10.934-5.455-16.124-8.656
			c6.037-2.073,11.99-4.362,17.787-7.062C57.848,35.223,54.67,27.171,49.609,29.53z"/>
		<path style="fill:#010002;" d="M19.491,15.681c2.507-3.197,1.945-7.822-1.255-10.327C15.035,2.85,10.414,3.412,7.91,6.611
			c-2.507,3.198-1.943,7.821,1.255,10.327C12.364,19.444,16.988,18.88,19.491,15.681z"/>
	</g>
</g>
<g>
</g>
<g>
</g>
<g>
</g>
<g>
</g>
<g>
</g>
<g>
</g>
<g>
</g>
<g>
</g>
<g>
</g>
<g>
</g>
<g>
</g>
<g>
</g>
<g>
</g>
<g>
</g>
<g>
</g>
</svg>
