<svg id="Capa_1" enable-background="new 0 0 512 512" height="512" viewBox="0 0 512 512" width="512" xmlns="http://www.w3.org/2000/svg"><g><path d="m383.062 222.101c-.026-.069-.054-.139-.082-.207-1.392-3.38-4.649-5.561-8.303-5.561-.004 0-.008 0-.011 0-3.658.005-6.916 2.195-8.301 5.58-.023.057-.046.113-.067.171l-24.521 64.38c-1.475 3.871.469 8.204 4.339 9.679.879.335 1.781.493 2.669.493 3.021 0 5.87-1.84 7.01-4.832l4.267-11.204h29.044l4.22 11.183c1.462 3.875 5.792 5.832 9.665 4.368 3.875-1.462 5.831-5.789 4.368-9.665zm-17.286 43.498 8.875-23.303 8.794 23.303z"/><path d="m111.657 280.612c-.015 0-.029 0-.043 0-5.303.03-10.998.051-15.324.055v-57.801c0-4.143-3.357-7.5-7.5-7.5s-7.5 3.357-7.5 7.5v65.246c0 3.652 2.631 6.773 6.229 7.392.537.093.973.167 8.188.167 3.487 0 8.56-.017 15.991-.059 4.142-.023 7.482-3.4 7.458-7.542-.023-4.128-3.377-7.458-7.499-7.458z"/><path d="m161.357 280.612c-.015 0-.029 0-.043 0-5.303.03-10.998.051-15.324.055v-57.801c0-4.143-3.357-7.5-7.5-7.5s-7.5 3.357-7.5 7.5v65.246c0 3.652 2.631 6.773 6.229 7.392.537.093.973.167 8.188.167 3.487 0 8.56-.017 15.991-.059 4.142-.023 7.481-3.4 7.458-7.542-.023-4.128-3.376-7.458-7.499-7.458z"/><path d="m456.344 280.612c-.015 0-.029 0-.043 0-5.303.03-10.998.051-15.324.055v-57.801c0-4.143-3.357-7.5-7.5-7.5s-7.5 3.357-7.5 7.5v65.246c0 3.652 2.631 6.773 6.229 7.392.537.093.973.167 8.188.167 3.487 0 8.56-.017 15.991-.059 4.142-.023 7.482-3.4 7.458-7.542-.024-4.128-3.376-7.458-7.499-7.458z"/><path d="m55.657 215.366c-4.143 0-7.5 3.357-7.5 7.5v65.302c0 4.143 3.357 7.5 7.5 7.5s7.5-3.357 7.5-7.5v-65.302c0-4.142-3.357-7.5-7.5-7.5z"/><path d="m221.72 230.963c4.143 0 7.5-3.357 7.5-7.5s-3.357-7.5-7.5-7.5h-27.265c-4.143 0-7.5 3.357-7.5 7.5v64.705c0 4.143 3.357 7.5 7.5 7.5h27.265c4.143 0 7.5-3.357 7.5-7.5s-3.357-7.5-7.5-7.5h-19.765v-17.353h17.754c4.143 0 7.5-3.357 7.5-7.5s-3.357-7.5-7.5-7.5h-17.754v-17.353h19.765z"/><path d="m315.688 248.017h-19.534c-4.143 0-7.5 3.357-7.5 7.5s3.357 7.5 7.5 7.5h11.26c-1.968 9.242-7.882 17.651-19.911 17.651-13.868 0-25.15-11.283-25.15-25.151s11.282-25.15 25.15-25.15c5.04 0 9.9 1.484 14.057 4.292 3.433 2.318 8.095 1.416 10.413-2.017 2.318-3.432 1.416-8.094-2.017-10.413-6.645-4.489-14.409-6.862-22.453-6.862-22.139 0-40.15 18.012-40.15 40.15 0 22.14 18.012 40.151 40.15 40.151 21.011 0 35.685-16.511 35.685-40.151 0-4.143-3.357-7.5-7.5-7.5z"/><path d="m496.5 182.233h-12.675c-14.997-46.257-44.462-87.725-83.436-117.238-41.84-31.683-91.769-48.429-144.389-48.429-57.269 0-112.688 20.542-156.048 57.843-3.14 2.701-3.495 7.437-.794 10.577 2.702 3.141 7.438 3.494 10.577.794 40.64-34.96 92.584-54.214 146.265-54.214 95.174 0 180.919 61.465 212.002 150.667h-19.416c-30.617-79.49-107.336-132.533-192.586-132.533-45.879 0-89.316 14.751-125.616 42.657-3.596 2.765-5.827 6.948-6.122 11.479-.295 4.537 1.379 8.982 4.593 12.197l66.2 66.2h-25.643l-53.379-53.379c-3.215-3.213-7.661-4.885-12.196-4.593-4.53.295-8.714 2.526-11.479 6.123-12.179 15.842-21.932 33.264-29.05 51.849h-19.308c9.248-26.65 23.311-51.054 41.917-72.65 2.703-3.139 2.351-7.874-.787-10.578-3.138-2.7-7.873-2.352-10.578.787-20.989 24.364-36.57 52.077-46.379 82.441h-12.673c-8.547 0-15.5 6.953-15.5 15.5v116.533c0 8.547 6.953 15.5 15.5 15.5h12.675c14.997 46.257 44.462 87.725 83.436 117.238 41.84 31.683 91.769 48.429 144.389 48.429s102.549-16.746 144.389-48.429c38.974-29.513 68.439-70.982 83.436-117.238h12.675c8.547 0 15.5-6.953 15.5-15.5v-116.533c0-8.546-6.953-15.5-15.5-15.5zm-357.038-76.807c-.169-.169-.247-.376-.232-.616.023-.35.229-.508.296-.56 33.655-25.874 73.931-39.55 116.474-39.55 77.106 0 146.694 46.807 176.421 117.533h-216.151zm-35.213 34.101c.053-.067.211-.274.562-.297.245-.018.447.062.615.232l42.772 42.771h-68.737c6.366-15.223 14.676-29.551 24.788-42.706zm151.751 340.907c-95.174 0-180.919-61.465-212.002-150.667h19.416c30.617 79.491 107.336 132.533 192.586 132.533 45.879 0 89.316-14.751 125.617-42.658 3.596-2.766 5.826-6.95 6.121-11.48.294-4.537-1.38-8.982-4.593-12.194l-66.199-66.2h25.642l53.379 53.379c2.972 2.971 6.994 4.626 11.17 4.626.342 0 .685-.012 1.028-.034 4.53-.295 8.714-2.526 11.477-6.122 12.179-15.842 21.932-33.264 29.05-51.849h19.309c-31.082 89.201-116.827 150.666-212.001 150.666zm107.803-150.667h68.737c-6.366 15.224-14.676 29.552-24.789 42.707-.052.067-.21.273-.561.296-.235.009-.447-.062-.615-.232zm133.197-15.5c0 .275-.225.5-.5.5h-359.844c-4.143 0-7.5 3.358-7.5 7.5 0 4.143 3.357 7.5 7.5 7.5h159.075l76.808 76.808c.169.169.246.375.23.615-.022.351-.229.51-.296.56-33.654 25.874-73.93 39.55-116.473 39.55-77.107 0-146.693-46.807-176.421-117.533h22.078c4.143 0 7.5-3.357 7.5-7.5 0-4.142-3.357-7.5-7.5-7.5h-86.157c-.275 0-.5-.225-.5-.5v-116.534c0-.275.225-.5.5-.5h481c.275 0 .5.225.5.5z"/></g></svg>