<svg fill="none" height="512" viewBox="0 0 100 100" width="512" xmlns="http://www.w3.org/2000/svg"><g clip-rule="evenodd" fill="rgb(0,0,0)" fill-rule="evenodd"><path d="m27.9411 64.9176c-.1776-.1427-.3986-.2205-.6264-.2205h-17.3147c-2.76142 0-5-2.2386-5-5v-20c0-2.7614 2.23858-5 5-5h17.3147c.2278 0 .4488-.0778.6264-.2205l28.9269-23.2449c3.2721-2.62934 8.132-.3001 8.132 3.8975v69.1357c0 4.1976-4.8599 6.5269-8.132 3.8976z"/><path d="m70 84.9226c0-.357.191-.6862.4974-.8694 11.6812-6.9841 19.5026-19.7567 19.5026-34.3561 0-14.8057-8.044-27.7325-20-34.6487v-4.0601c0-.7423.7795-1.22364 1.4319-.8696 14.0374 7.6174 23.5681 22.4849 23.5681 39.5784s-9.5307 31.961-23.5681 39.5784c-.6524.354-1.4319-.1273-1.4319-.8696z"/><path d="m70 72.5052c0-.2845.1218-.5548.3309-.7476 5.9451-5.4818 9.6691-13.3363 9.6691-22.0605 0-8.7243-3.724-16.5787-9.6691-22.0605-.2091-.1928-.3309-.4631-.3309-.7476v-4.0017c0-.8083.9048-1.2757 1.5415-.7778 8.1924 6.4061 13.4585 16.3818 13.4585 27.5876 0 11.2057-5.2661 21.1815-13.4585 27.5875-.6367.4979-1.5415.0305-1.5415-.7777z"/><path d="m70 61.7037c0 .9606 1.171 1.3303 1.6522.4989 2.1291-3.6784 3.3478-7.9496 3.3478-12.5055s-1.2187-8.8272-3.3478-12.5056c-.4812-.8314-1.6522-.4617-1.6522.4989z"/></g></svg>